<mxfile host="app.diagrams.net" modified="2022-05-09T18:11:58.378Z" agent="5.0 (Windows NT 10.0; Win64; x64) AppleWebKit/537.36 (KHTML, like Gecko) Chrome/101.0.4951.54 Safari/537.36" etag="cKfxOf87EF8lmVot7fEe" version="18.0.2" type="github">
  <diagram id="qmI6LUlu0K6wFWTq1jUT" name="Page-1">
    <mxGraphModel dx="1220" dy="1087" grid="1" gridSize="10" guides="1" tooltips="1" connect="1" arrows="1" fold="1" page="1" pageScale="1" pageWidth="1169" pageHeight="827" math="0" shadow="0">
      <root>
        <mxCell id="0" />
        <mxCell id="1" parent="0" />
        <mxCell id="wXUvmhFlW6K3RGWHzzFr-58" value="" style="rounded=0;whiteSpace=wrap;html=1;labelBackgroundColor=#FFFFFF;fontSize=12;fontColor=#10739E;fillColor=#D5E8D4;" parent="1" vertex="1">
          <mxGeometry x="40" y="410" width="200" height="320" as="geometry" />
        </mxCell>
        <mxCell id="wXUvmhFlW6K3RGWHzzFr-9" value="" style="rounded=0;whiteSpace=wrap;html=1;" parent="1" vertex="1">
          <mxGeometry x="680" y="186.21" width="470" height="433.79" as="geometry" />
        </mxCell>
        <mxCell id="wXUvmhFlW6K3RGWHzzFr-32" style="edgeStyle=orthogonalEdgeStyle;rounded=0;orthogonalLoop=1;jettySize=auto;html=1;exitX=0.5;exitY=1;exitDx=0;exitDy=0;exitPerimeter=0;fontSize=15;fontColor=#10739E;entryX=1;entryY=0.25;entryDx=0;entryDy=0;" parent="1" source="PTJRQVvbIerqqaXg6TyO-2" edge="1">
          <mxGeometry relative="1" as="geometry">
            <mxPoint x="240" y="466.21000000000004" as="targetPoint" />
          </mxGeometry>
        </mxCell>
        <mxCell id="wXUvmhFlW6K3RGWHzzFr-33" value="Authenticate and Get Tokens &lt;br&gt;JSON Web Token (JWT)&amp;nbsp;" style="edgeLabel;html=1;align=center;verticalAlign=middle;resizable=0;points=[];fontSize=15;fontColor=#10739E;" parent="wXUvmhFlW6K3RGWHzzFr-32" vertex="1" connectable="0">
          <mxGeometry x="0.1325" y="-1" relative="1" as="geometry">
            <mxPoint as="offset" />
          </mxGeometry>
        </mxCell>
        <mxCell id="wXUvmhFlW6K3RGWHzzFr-41" style="edgeStyle=orthogonalEdgeStyle;rounded=0;orthogonalLoop=1;jettySize=auto;html=1;exitX=1;exitY=0.5;exitDx=0;exitDy=0;exitPerimeter=0;fontSize=15;fontColor=#10739E;startArrow=block;startFill=1;" parent="1" source="PTJRQVvbIerqqaXg6TyO-2" target="wXUvmhFlW6K3RGWHzzFr-2" edge="1">
          <mxGeometry relative="1" as="geometry" />
        </mxCell>
        <mxCell id="PTJRQVvbIerqqaXg6TyO-2" value="AWS Cognito &lt;br&gt;Identity Broker" style="outlineConnect=0;dashed=0;verticalLabelPosition=bottom;verticalAlign=top;align=center;html=1;shape=mxgraph.aws3.cognito;fillColor=#AD688B;gradientColor=none;" parent="1" vertex="1">
          <mxGeometry x="740" y="333.21000000000004" width="76.5" height="93" as="geometry" />
        </mxCell>
        <mxCell id="wXUvmhFlW6K3RGWHzzFr-26" style="edgeStyle=orthogonalEdgeStyle;rounded=0;orthogonalLoop=1;jettySize=auto;html=1;exitX=1;exitY=0.5;exitDx=0;exitDy=0;fontSize=15;fontColor=#10739E;" parent="1" source="PTJRQVvbIerqqaXg6TyO-3" target="wXUvmhFlW6K3RGWHzzFr-48" edge="1">
          <mxGeometry relative="1" as="geometry">
            <mxPoint x="540" y="299" as="targetPoint" />
            <Array as="points">
              <mxPoint x="500" y="295" />
              <mxPoint x="500" y="344" />
            </Array>
          </mxGeometry>
        </mxCell>
        <mxCell id="PTJRQVvbIerqqaXg6TyO-3" value="" style="shape=image;verticalLabelPosition=bottom;labelBackgroundColor=default;verticalAlign=top;aspect=fixed;imageAspect=0;image=data:image/png,iVBORw0KGgoAAAANSUhEUgAAARYAAABXCAYAAADBPmoyAAAgAElEQVR4nO2d2XMcx53nv3X1hT7RaKABNEAcJEASvCSLMCV6JJmSZdGyZHFnwxH22H7YnZh5mr9gHjb8um/7shG7sRuxsw/2ho+RvLJW1lA0JdGmaFAiSIIAD4DEfTbQFxp91LkPYBaquqv6ABqgZ5yfiAoS1VWVWVWZ3/zlL3+ZxaytrWmgUCiUBsI+6wxQKJR/e1BhoVAoDYcKC4VCaThUWCgUSsOhwkKhUBoOFRYKhdJwqLBQKJSGQ4WFQqE0HCosFAql4VBhoVAoDYcKC4VCaThUWCgUSsOhwkKhUBoOFRYKhdJw9l1YWJaFoij7nYxluhQK5dnA7+fFWZbF1atXMTMzc6AVXVVVnD17FidOnICqqgeWLoVC2WbfhIVlWSwtLeG9995DNpvdr2RsmZqawk9/+lPwPE/FhUI5YPZNWBiGwa9+9Susrq6C5/fVMLLkyZMn+Pzzz/Haa68deNoUyl86+1LjWZbF3bt38ac//Qk8zz8zf8evf/1rnDx5EpFIhFotFMoBsi81XlEU/Pa3v4Wqqs9MVFiWxdraGq5cuQJNo8v6UigHScNrPcuy+OKLLzA2NvZMukBGHA4Hrly5gkePHtFRIgrlAGlobSNWwgcffPBnYSWwLItsNosPPvjgmQx5Uyh/qTRUWBiGwdWrVzE3N1fRWmEU2XKrKQ1FBiMWTFsleJ7H2NgY7t27R60WCuWAaFhfhWVZzMzM4MqVKxUrMKPIyPlbIHqCpv2OXAqezDo0rrIgFQ6fgeb2ms+dGQO3mbY9V5Zl/OxnP8ORI0fg8XioI5dC2WcaJiwMw+C9995DJpOBIAi2x8mCC+O9z0MRPIZc8OACIZz64p/h2EpbX18sINV7CvMvXETU3wRVcOi/uTsOwX/557ZpsiyLJ0+e4Pr16/jWt75V/81RKJS6aEjfgGVZTExM4ObNmxVFBQDSnYOI+1uRcHv1LdXahXjPENaHvmHbtdE4Hg+efwPLze0oNgUh+5v1bevUeeT7TlfsTjkcDnz44YdYW1ujXSIKZZ/Zcw1jWRb5fB6//OUvIYoiZFm23BhVhtgUxFTbYfMFeB5aOAqwLKaPvICivwWMWDSfKxaRPPw1JNp6IGvAvKiafDMq70D+uW8ADGubvqqqmJ+fx29+8xtomvavVlxYltXzTv5v3KyOrXRMrenVc75duo26TiNpVF73mt5BXucg7nXPXSGGYTA5OQlVVXHs2DHb42RJxAeBAWw43OYfWmPQXNv7Mk0BTLx0Cf/+yWdQGE4/pKBquPH8G8DTm06qQJckgxW2s88oMoqHjiI//DpOrk1CtvG1KIqCpaUlLC8vo7m5uerIldvthqqqUFUVkiSZftM0DS6Xq+L5wPa8JVEULX9jGAZOp7PqcaXnkPRL8wQAgiDA4/FAlmVsbm5aXsPn81VNh5BOl3dNBUGwvHeWZaGqKtLpNAqFAgqFAorFoj4ix3EcnE4nXC4X/H4/3O7t927l82JZFhsbG5Z5CofDe/aTkQqUTqeRyWSwtbUFSZJQKGxbzDzPw+VywePxwOv1IhwO2+a1HuLxuOkaqqrC4XAgFArVdZ10Oo1cLle2PxgM6mXKCmIIpFKpst9kWYbH42nI892zsOTzeQiCgLfffrvicSMLcSwvmYd82zwerAZbTPtOnDiNN46aC35RY/Ax2gHD6fOiikOGXpcqOJF94TW8qA3Ay5WrLincsiwjm83WNPzc0tICt9uNVCqlFzhyLUVREIvFqip8PB5HsVgsywe5vtPpBMuyWF9ftxWC0nSNf8uyufvn8/lw+PBh3UKTZdk0QifLMnp6ehAMBqsWnsXFRayuruqCQc6PRCLo7+8vOz+dTmNpaQnpdBqyLEMURUiSpB/HsiwYhoHD4YDL5UIgEEBPT49lRWAYBhMTE2XPDAC++c1vVsx3LaTTaUxPTyMejyOfz6NY3LaSiVizLAtBEMBxHFwuF1paWjAwMAC/37+r+WcsyyIej+Pzzz/XGytgu4EQBAHf+9736rI47t+/j/v375f9dvHiRUSjUVuxzufzuHbtGhYXF02/SZIERVHw6quvoqWlpezcetmzsGxubiIYDOqKbsd/mt4CYK44hZaoboUQ/r4F6HH1lJ3/N0kN/3mD0f+2slqkpgBW3C686imWnW+sgJqmmSq7FYqioFgswuPxoFgsYmtrCwD0QqFpWtXI4o2NDaRSKZNlpKoqZFmGz+eDx7PtwGYYBtlsFpubm2XD9CTfxGoqLTDkeqXwPA+Hw4GNjQ04HA7T8aurqwgEAhXvv1AoYG5uDoVCAQzD6PerKAp6e3v1e2LZ7e7n48ePdXG0yg+w/UxVVUWhUEAmk0E8Hkcmk0EkEkF3d3dZhV1fX9fzTJ7FXoIuiUCOj49jYWEBGxsbFa1EURR1UYvH49jY2EA0GsXx48d1a7ZWGIbB7du3MTMzAwCmMiGKIubm5tDX11fTNRmGwfr6OiYnJ03vFgCKxaJu1Rohy5f8/ve/x927d03lX5IkbG5uYnh4GK2trQ0ZNd2TsJCbEATB0iwnfLqQxI24WVRYfwhpb7Np39tNGgZd1jf1lk/BRxkOY9LOQ1sQVXSX+IqvFHn08DK6+Z38ECEwpV+ldShtJcnDNlo+lUgmk0gkEmXpqqoKn8+H9vZ28Dxvmy+joJB/7VohKxiGQWdnZ1l3gmVZJBIJrK+v286hYlkW09PTpkLKMAxkWUY4HEYkEtH9VJlMBtPT01hZWUGxWKz6XI2/E5FLpVLY3NzE0aNH4XQ6y4TEeM5ufQAkr48ePcLk5CSy2Sw4jqt6HjlG0zQsLS0hHo8jmUxieHgYfr+/pkrIsixyuRwmJyf1fcbKz7IsxsbGcOjQIUtRsINhGF1oJUmyHTghonLlyhV8+eWXEEXRJNCFQgFnzpzBG2+8UZOLoBZ27alRVRXZbBY8z1dsRRK5PP7boxXzTo6HFuk0WSsdLPC3zfYvqZkHfhLS4DQ894QKxItmAVhQOfw+t5MfK1FpBHYFgGVZJJNJbGxsWHa3mpqa0N7eDrfbbZkvRVFMTnAiKJW6blbPX9M0uN1udHR0WIrk0tKS5TWJb2N1dbXsHIZh0N/fD4ZhwLIsCoUC7t+/j/n5eUiStGvHcLFYxOzsLO7evWvqcjYq3ojk9c6dO5iYmEA+n7cUlVKHfykcxyGfz2NychLXr19HIpGo6Z4ZhsGTJ0+Qz+ctf+d5Ho8fP65rxJKUa0mSIEmSqRtXiqZpGBkZwbVr13RLhdxjPp9HLBbDm2++qTcYjWDXwkJM5GpcnkvgXsb8QFlfEJrbY9r3g6CGPmflm/orr4pX3OZj1iQFqmSuIKMyjwlxW70b9aBKC7lVwSSt4sbGhmXBdDgcaGtrsxQV0k0ghYQICql8DMOA4zjTJggCBEGA0+nUBb40X+3t7WUtGWlB4/F4WUFWFAUzMzN6/ozO61gshnA4DE3ToCgKHj16hHg8XvG5kS6Z0+nUzfZS64u0qAsLC1W7qLtB0zSMjo5ienra1tJ0u90YGBjA0NCQvlVyck9PT+Orr75CoVCoKgaFQgG3bt2y/Z1hGBSLRYyNjdVlsQAwiaDVvbEsi9HRUXz66aeQJMl0fUmSEI1G8Z3vfAft7e0NbYB31RUi/fpq/d2FTA7/ZzZp3sk9HV42MCRoeNtf3Znq0hT8MMjiszyD4tNnIGnAoqigS9ipUFmGw28KThxxqWAbNEeI+BjsIK3i8vKypSXAMAwikQg8Ho/lC7Tr6hAHstU5xkJC0nQ4HKbrCIKAjo4OzM7OlonO/Pw8gsEgXC6XLmIrKytIp9NgGMZk7fE8j56eHr0LNDMzU+YANN5LW1sbfD4fmpqawHGc7qfZ3NxEPp/HwsKCnibJ78DAgO53ahQsy2JhYQGTk5O2FW9gYABtbW2IRCKmMt3Z2an7Mqwc69PT0wgGgxgeHq6Y/vz8PNbW1irmUxAETE5O4ty5czV1sUrFTNO0MlFiWRa3b9/GJ598gnQ6bXr/mqYhFArh4sWLOHLkSMOt+rqFhWVZveBV4788WsNUvsQ5Fukos1b+Y0hFuEpOyIjICTeHHwUY/M/UTvobKuAuKmhx7jy4KYXHaEHAWUFumElt9/CJpZJMJiGKYlkFZhgGLS0tdQ3zEgKBAPx+/67zqWkaotEo4vG4PjxJ8ieKIpaWltDb26t3Sebm5qBpmr4B2y3hkSNH4PV6oaoqisUipqamLAWU53nEYjF0dnbC7XbD4XCYygpxiAYCAd2BSvxBAwMDln6n3ULE/vbt25ai4na7ceLECfT39+tD30YOHTqEjo4OBINB3Lx5s2yIVlEU3LlzB319fbZDtIqi4OHDh1XzyjAMtra28PDhw4pCVStk5Ojy5ctIJBJlouJyufDWW29hcHBwz2lZpl/vCcViEYVCoaKzFgDurWfwu2VzDATrCwLNraZ9r7g1vOyzL0hEUEgh5lUFP/CJiJbkfFUqL+S/ywvY0CpHAu8VUnjj8Ti2trYsu0gtLS1obm62OLs2jBW9lq0UnufR1dUFhmFMz5NlWayuriKTyYBhGCwsLCCTyZSJis/nQ1dXl26tzM7OWsZQAEBvby8GBwcRDAb1ro8xb4IgwO12o7e3F8eOHYPf70ckEsGxY8caKioA9HuyshZYlsWJEyf0ER67ZykIAvr7+zE8PGxpoedyOTx69Mgy38RfNTc3V1N+SbfF6GfaLVNTU/j444+xvr5uKSqvvvoqTp8+ved07KhbWMhNlzqLjA9dURT81werQEmLpoXbyoeXm80OWSOlokL2hRgF3w+YX6SkAeuiOb3ZEkduPdRi5XAch2KxiLW1NUvfgKIoCIfDaG5urrvvTGhElLCmaWhubtZDAozPVVVVLC4uIh6PY35+vkycJElCf38/BEHQfSsLCwtleSLdn76+vqoCQX6LRCIYGhrCsWPH4PV6bZ3ZxjJQ7/IXCwsLZftkWUZ3dzcGBwfBsmzVvGqahv7+fsvWXRAEzM7O2nZ/x8fHy0RYVVV0dnaiubnZVM4YhsHa2hrm5uZ2/c45jsPS0hI+/vhjLC0tmeoluc/h4WGcO3duXyfj1px7Yiobx/2N4mJ0EH6xnMa19ZLhZW8QmsfcFbjk03DSbW0+lgoKsOOHUFUV73hFPM+bf18Ty1/urzMMJmVHXS9KUZSaWs6trS2sra2VLRZO8u73+9HS0rJrUVEURQ9cMt673VYJlmXR1dVV1gBomoZEIoGHDx+WtZQkGK61tVW/RqFQsB3dqLcro2ka2trabIc4jeWgXmEheV1ZWSn7jWEYDA0N6WJZa15PnDhh2WWKx+Nl8TCke/zgwQPLa50/fx4DAwOmsALyDsfGxna9ftDi4iI+/PDDsqVLjKLy0ksv1XXvu6Hm5lxRFGSz2bK+KvmbCMtqroj/PlVienI8tFbz8PJRQcPfhexFxaqiGB9EABJ+4BFxb9MH8eluUQM2RAVhx7bptyEqmJcZ/K9NB/7RX4DHIiLXKv1alXx9fR2FQqGsECiKgqamJkSj0aotYiVUVcX6+rptRS5NMxwO2zr+NE2D1+tFc3OzqWsgSRI0TUMulyvrxrEsiyNHjuj3QAL5rPB6vQgGg7uqEHbPR1GUmmJNrGAYBolEAplMpqwLQyJp63kvmqYhEAggEAiUvQ9itfb09OjPnmEYzMzMIJvNlsXukIBAp9OJL7/8Evl8Xj+G4zhMTk5icXER3d3dNZdF0niNjIxgdnbWMpr59OnTuHDhAnw+374vxFazsBQKBduhOjI8CgAfPlnDaMps+rFeP1RPk2nfX/s1xByaXhBLA9Cq3bimaTjrVvCaouGjrR2LYFVUEGIBluew+tSC+SzP4HsCi6+5dwq9VYGtVVRIHkk0rlVlIqMtu215yHmpVAqZTKbq8aqqQhCEihG1qqqiq6sL6XQa+XxeH+kiz1r3Y/E8ZFlGLBZDKBQyvQs730q9DuaDIJ/PQ1GUMmEJBAK7siJ5nofX6y3b73A4dCc4QZZl3LlzpywdTdN030Y4HMbAwABu3LiBpqbt+sFxHHK5HO7evYtDhw7Vncfl5WXbuUJnz55FIBA4kNUUa+ofkLgHK4iFUSgUsJzN49dzJZGe3iBaW6NoZaFvA4KGVz2Sfm6xWNQ3OwekFR6ew0+8RbBbWX2Ts1ms5EVsiIrJkvl5zqMPoZKAs1LfTSVRKTXL7bprhEpCXAulE9Vq6QZVKzCapukBeiTvxuFkcg0yGa2np6esC2lsRIwcxPrGjagQsixbdmdqxWo4XBAEUzeSDDEvLS2ZhEVVVQSDQQwMDOhD7adOnSoLG+B5HlNTU9jc3Kzb11JJMK3mFu0Xu/IQ1Vq5wHFApAOtwQCiTk7f2h0cXOxOH98YEFbv/AstlwXiS6YtvpnVrRU7SismyQMJOCq9JxLhWGvhTqVS+lBqveynU03TNLS3t8Pv95vuxWjBSZKErq4uW4fqs6IRwlKxvO6BUnEYHx8vO0aW5bLAu2g0ip6enrK6lM1mMTo6umv/nBXXr1+3zNd+UJOwqKoKj8dTVVBa3Q68G9uZ/s00BaA2eZFSt7smZEuzPD7LbftkSlt1o6OyGjlZxf94vA41m9rZ8ptgWE63VgDAwQA/8OQsC5QkSbpTmjij7QSkHuFTFMXSqVfrubuhVn+Ew+FAb2+vbaH1+Xzo7Oy0/J3Mxi5lL9bZfmGVf47j9vRlTivLXZIkBINBPc14PI7p6WnTEhdEoIPBIBYWFrC6uorV1VXE43GTBWlkZGSk5gj3UkotfzLX65NPPsH6+npDBcuKmu1Xsv5GpUKvKAre6mvFtUQeo5tFOFraUASw8tTvwfA7Bf9yjscZB4+QUj5mb0yj0iS7W+ub+P1aif8hHIXaZO4Hv+LWcEwQAZjNUmO3SJbligvdkAjR0lB0IrpWsQeSJGFlZQWxWKzmF1kqXC0tLTV3M/x+f00WhqqqaGlpQTAYtPTfxGIxS/8QmX9khdX6Hs8STdPg8/nKZv/yPI9MJgNRFOF0OuuyyIrFIhKJRNl+SZLQ3t4OYCcWZXNzEw6HwzQrHIAe2m8sZ3ZCl0gkMD8/jyNHjtTc2JCQgPb2diQSie2F0p6WPZ7nsbCwgKtXr+LSpUv7OjJUs7BwHAe/349kMlnxuDa3A/9hIIp/mClAa/IB2s5oTYtBWNIsj98WnPgxZ9962AkMwzBIFBX8vGy6AAdHSxRGG+Ewr+Ennjxc7E7FJt0eq+Hs0rSMWImL0+lENBpFKpWyrFzJZBJut7vmNS5K8xSJRGr24hvD42s51ufzWQqLlYMS2LFcS/cB28KysrKC1tbWmgsr8XnVMnJWrxWnqipCoRACgUDZPRaLRUxPT+P48eM1X5dhGKysrGB9fb2sfPh8Pt15nc1m8fDhQ3AcZ/JHkXSmpqYsr281M5nnedy8eVNfUqIWZFlGNBrFa6+9hvHxcdy8eRMul0sXHFmWMTIygvb2drzyyiv75sit2ceiqiq8Xq+eSTsURcHZVh9ejkVN3ZE1FUiW+D1uiALmNPvVrsj1Sh2rDMPgX+Y3MJLcMh/c3Lbt1zHw1+4i+tiCfg+ku2P3QCt1d0oLlCAIiEajCAaDiEajtl8AiMfj2NzcrGq1lJ5L/uY4rupygo1aUrAaLpdLD+0vdYJPTEyUTXSzg5jm9+/fRzKZrHrObioAz/OIRqNl53Ich7GxsZp9YAzDIJfLYWxsrKzLJ0kSOjo69JGY8fFxfTSKlDNj+mTiaOlmhSAIePDgARYWFmq2eMPhMN544w2cOnUKr7zyClpbW3W/IYk5k2UZly9fxuzs7L51ieoujcFgsGrrIqgK/r5ZhWDIs6htd4lK+Uj2olhDI2sUl/W8iH+eN1srjMcPtLSbxOwEp+KvnHmTU7baVASgNnEh8QihUAiqquozl61aFkmSsLS0VNEPQWYQW+V1P525Rmpdn6Srq6uswnAch1QqhYcPHyKXy4FhGMtCS/bncjlMTEzg7t27GBsbQyqVsi3ku21VNU1DX19fmejyPI9UKoXbt28jm81WrFwMw0CSJNy6dQuPHz82da0kSUI+n9cDA0VRxMjISEMdxJIk4d69ezULwPDwMIaGhnQnPfkqhbHscRyHTCaDjz76qOr975a6hcXpdNY0me6oQ8YbTWYBKmpAqmROz11ZwG2xtvk8xJT739MbmDauw8JxYFo7TdaKwAA/9OTg1+SqVooVpIKXQgqpoihl8398Ph+i0WjZOcB2zMvS0pKtKJPRsdIFwIGdyljrtltqMbdVVUUsFrONh5iamsLExASWlpb0QDKSL03TkM1mMTMzgzt37mB8fByKomBubg5jY2O2Vt1uK6lxmkHpNcgaKDdu3MDS0pJuaRk3TdMQj8dx69Yt3Lt3z7T+iSiKyOfz6OzsRH9/PwBgZmbGchkJnufR1NQEt9tddSuFYRg8ePCgovAaIUJKGsfTp0/jxRdfLDuO4zhMTEzgD3/4w740XHUHH5C+qyzLVdfO+LuAhIc5DlPqToVfLioIMGZH7hXZi+NsDj618vVYlsXYxhZ+Nmt2oDEeH1SvWezO8gqe43IQxdosFCvsrJtK3Y5IJIJsNotUKlV23Orqqr5YcSWMVlE8Hq9rUpqiKGhpaan6GRbj8fVGtzqdThw+fBijo6OWz252dhbxeBytra0IBAL6/UiShEQigeXlZWxubprSnZ2dBQCcP3++YgVSlO3ZwrWIjc/nQywWw5kzZ7C2tlbma5FlGRMTE0gmk/o6wMQiURQF6XRaj0cBtis5GeUjI0Evv/yyHlB49+7dMqe3LMs4fvw4Ojo6qo4QchyHR48eYXZ21iTyqVQKo6OjuHDhQt0iy3Ec3nzzTSwvL+PevXum4DmO43Dt2jV0dnbi5MmTz349Fo7j4PV6qwpLjJPxN34GP03tFKCiBiREBWGDsCxyTtyQNXyLrXw9UQP+aa5k1XiOAxOOwvhIwizwQ2cGglJdVIDqXY3Sl1lJWBiGQUdHh75As/FYTdOwvLwMt9uNpqamqi+SZVl9IlmtL53MRq5VWGRZrltYyCS6bDZruXwCx3HY3NwsEw8AeuWySpOsD2y1zozx75GRkZqGtzs7O9HR0YFQKIQzZ85gZGQEyWTS9GwcDgeWl5exsrKCpqYmk7CQmd4Oh0O3UohfyeVy4dy5c+jq6gKw7UczrnlD8u10OvHSSy/VtJYsx3EIhUL6urjGe7xx4wbOnz9f8b1aBZeqqgqXy4WLFy9ieXm5bF2Wra0tvP/+++ju7kYgEHi2K8ipqgq3213TcN1rAQ3HOPMDXVMBraTAfJbnsFjBkcuyLD5bTuGPGyWjSKEIVK85nPybXB5HGetI4d1Qz/wh8iLJPCFynqqq+pobi4uLdb1AY3xNtc0Yol/P/RFnY63xKBzHYXBwED09PeB5viyKufTaZCOr35USDofx3HPPWa5oV/o3qeCVNhKfBGw/+/7+fjz33HMIBAL6syKQYeFsNotEIoFEIoF0Om0rKl6vF1//+tf1qFlN03D79m09PXJ/kiTh6NGjiEQiAKp/z4cs/UlGEEkeybyn6elpy0aNjPjYlVNVVdHT04OLFy9adnfn5uZw+fLlmh3vtbDroQQy/FytEDdpMv42IJocuUUNSJasVZtkBfxOth7mBIBNBfinJ+bpAozbB0Q6Tfv6WBVv8dafad0LVjEslY4NhUJoa2vTu4zGir++vl62pizBznqoZVSo3gmP5H7IpzrItIpaz+U4DsePH8fhw4d1J7bVMH6lazidTvT29uL06dN66293bLUARaOAlQoky7I4fvw4zp07h+7ubt0pSzaHw2G5EVEh8SCxWAznz5/HuXPnwHEcNE1DOp3Wh5iN6TEMgxdeeKFmi5A0SidPnizLvyAIuH79uv5sjSNyRGwrDUyoqorh4WGcPXvW9DyJ9XXlyhV89dVXDROWXU/wIA/B5XKhWCxWfHgX/MC5vIZrecNkQRUIKSoYw4zjW7KAC5wT/bz5WzQAcHU+hccFc4FlWqLQStL9d44tdBmWU7ASgNICaldYjfdUKiq1FJZoNIqNjQ19pXxS6cniyk1NTWWOcI7jTHN46qWeVqc0zqJeJx6JQRkcHEQ4HNbnt5CPf1UaWfN4PPq8pYGBAdvPadjNg7ISL2NltLO8BgcHEYlEMD4+jsXFRf2bUcblC4zOTzLiFwqFEI1Gcfr0acRiMf034hcxzlAm99jd3a0fWyuapuHkyZMYGRkpW6yb5Lm7u1ufY2ekWsgBx3G4ePEi1tbWcO/ePdPxoiji/fffRywWQywW23OXaM8zx4LBIB4+fKivQmbHN7eAa+4BfemEogasF2W0OHmTuPy/LQHfSz+Goij6AtKiquGX82Y1Ztzesi5QYCuNQ8kHWDA831IBICMFZDYpYD/qQALT3G43fD6ffi1S+au9SIZhTK2wUSxlWUYul9OtPrLcAbl2PYWRrD8syzJcLldZtKkVJDLV6Eg2+gXqLVitra3w+XzY2NhAMplEJpNBLpczja6RZSpJQFkkEkEwGLT9AFhnZ6etw7Nal61YLCIajepdFYKqqmhubsaLL76IlZUVrKysIJlM6v4dIixEoP1+P0KhECKRCLq6uiwFUBRFdHd36/FGwLbADw0NlaVfDZK/s2fPYmpqytR1yefz2NjYQHd3ty7IxjJIfJ926amqikAggG9/+9uQJMnS/7W6uqoL115g1tbW9iRNHMdhdHQUv/jFLypWBkZT8X+Pfgurh8+Y9h/igJDn6RKGHA/fl5/g2IM/QtF2FFhUNXzY9hw2yEJRLAe26zBUn2GJAFXF10Y+wNdW7kHmrCsWCfL78Y9/XFMkbCAQ0FsmqwJeyydWycxwO9G1+sRqveaoKIpwOBz6+STf1ShduIvQ1NS064A7cl4ul8PW1pbpvlwuF1iWRSAQ0CtMJauGfFFxN6iqiqamJtugRWNe80Mui/wAAAPRSURBVPk8MpmM6ThZluFwOGr6FCz5pKzxmqqqwu/3V/zcqR0sy+p5Kr0nj8eDQCCAXC6HdDpd9p7C4XBN786uK06uv9ch6D1bLJqmYXBwEF6vF6Ojo7axEAILHEv/Fvn2XmSadgRhRQWCT7tEQm4T3j98gMXCFiTVfO6g7MT1I18H8HR42WdedyS8OoO221cxXeGBSJKEt99+G319fTVVXqOFUYuI2F2DVCi765emUW+lJgW/UgWwwul0WsZO7KVQkXPJd4/tjqmWBmld90K1dMhvTqcTbW1tVY+z+40sAFXPeZUggyN287JImbJ6vrWmSeY22V1/r+xZWMhDuHTpEu7fv6+bkqVoANxbCfRP/BGjZ7+j7y9qQEqUEXI74Bv9FGw2Dc3hAs+azw2uPUZray/WQu1gwm2m4WWmkMfg6CeAptoKm6puL3L03e9+V5+jcpDUk95B5m0/09rrtf+1PIf9yGct1/xzy7ORhqzOo6oqjh49ivPnz+PKlSsVW/fInU/R1jkASdgxEUUGEDgFjptXoDlszlVVHJ+5DdnjBwqZ7e0pnpVZBOcnoHH2tyOKIt566y20tLTs28QrCoWyTcOW/WIYBu+++y5u3bqFra0tW3OelwoY+uJ9FFzmoWVXIQsum7IVFo3j4d5K4OjMbWBpwvSbL7kIqCpgs6atqqo4fPgwvvGNb/xZLVxEofxbpWHCoqoq2tvb8frrr+O9996zFRaN4+Fam4OVfNhaKwaCK+XTzjWOt7VWyHDhj370I/2LfxQKZX9p6Fx7TdNw4cIF9Pb2VvTmEyEo3WpKo87zRFHE6dOncfToUSoqFMoB0VBhUdXtlckuXbq070vf1ZqfcDiMd955Z9efkaBQKPXT8NWBVFXF888/j1OnTj3zdVBFUcTFixfR399PrRUK5QDZl2XHOI7DO++8A0EQnlmFJhG2L7/8MnXYUigHzL4Ii6qqGBoawvnz522/Q7OfkMCo73//+/rkOAqFcnDs21emNE3Du+++i/HxcaRSqZrmrzQKURTR19eHl156iYoKhfIM2DdhIV2RS5cuYWxs7EC+lEdQFAWvv/667eQ2CoWyv+x5EmI1WJbF1tZW2cpg+wnDMLue20OhUPbOvpsRZJap3Ryi/UqTQqE8Ow6kf0IqOq3wFMpfBgdjQlAolL8oqLBQKJSGQ4WFQqE0HCosFAql4VBhoVAoDYcKC4VCaThUWCgUSsOhwkKhUBoOFRYKhdJwqLBQKJSGQ4WFQqE0HCosFAql4VBhoVAoDYcKC4VCaThUWCgUSsOhwkKhUBrO/wf9qDsQWvgAQwAAAABJRU5ErkJggg==;" parent="1" vertex="1">
          <mxGeometry x="170" y="275.01" width="148" height="46.32" as="geometry" />
        </mxCell>
        <mxCell id="wXUvmhFlW6K3RGWHzzFr-23" style="edgeStyle=orthogonalEdgeStyle;rounded=0;orthogonalLoop=1;jettySize=auto;html=1;exitX=0.5;exitY=0;exitDx=0;exitDy=0;entryX=0;entryY=0.5;entryDx=0;entryDy=0;dashed=1;fontSize=22;fontColor=#10739E;" parent="1" source="PTJRQVvbIerqqaXg6TyO-5" target="wXUvmhFlW6K3RGWHzzFr-10" edge="1">
          <mxGeometry relative="1" as="geometry" />
        </mxCell>
        <mxCell id="wXUvmhFlW6K3RGWHzzFr-24" value="&lt;font style=&quot;font-size: 15px&quot;&gt;(requires BCEID &lt;br&gt;Partnership agreement)&lt;/font&gt;" style="edgeLabel;html=1;align=center;verticalAlign=middle;resizable=0;points=[];fontSize=22;fontColor=#10739E;labelBackgroundColor=none;" parent="wXUvmhFlW6K3RGWHzzFr-23" vertex="1" connectable="0">
          <mxGeometry x="0.4997" y="-2" relative="1" as="geometry">
            <mxPoint x="-22" y="-2" as="offset" />
          </mxGeometry>
        </mxCell>
        <mxCell id="wXUvmhFlW6K3RGWHzzFr-25" style="edgeStyle=orthogonalEdgeStyle;rounded=0;orthogonalLoop=1;jettySize=auto;html=1;exitX=0.75;exitY=0;exitDx=0;exitDy=0;entryX=0;entryY=0.25;entryDx=0;entryDy=0;fontSize=15;fontColor=#10739E;" parent="1" source="PTJRQVvbIerqqaXg6TyO-5" target="PTJRQVvbIerqqaXg6TyO-3" edge="1">
          <mxGeometry relative="1" as="geometry">
            <Array as="points">
              <mxPoint x="103" y="284" />
            </Array>
          </mxGeometry>
        </mxCell>
        <mxCell id="wXUvmhFlW6K3RGWHzzFr-28" value="User Logs in" style="edgeLabel;html=1;align=center;verticalAlign=middle;resizable=0;points=[];fontSize=15;fontColor=#10739E;" parent="wXUvmhFlW6K3RGWHzzFr-25" vertex="1" connectable="0">
          <mxGeometry x="0.35" relative="1" as="geometry">
            <mxPoint as="offset" />
          </mxGeometry>
        </mxCell>
        <mxCell id="PTJRQVvbIerqqaXg6TyO-7" value="" style="sketch=0;pointerEvents=1;shadow=0;dashed=0;html=1;strokeColor=none;fillColor=#505050;labelPosition=center;verticalLabelPosition=bottom;verticalAlign=top;outlineConnect=0;align=center;shape=mxgraph.office.users.approver;" parent="1" vertex="1">
          <mxGeometry x="270" y="480" width="59" height="55" as="geometry" />
        </mxCell>
        <mxCell id="wXUvmhFlW6K3RGWHzzFr-2" value="Data store for forestry &lt;br&gt;&lt;span style=&quot;background-color: rgb(255 , 255 , 255)&quot;&gt;authorization data &lt;br&gt;&lt;/span&gt;(WEBADE equivalent)&lt;br&gt;User to Forest Client Lookup&lt;br&gt;&amp;nbsp;&amp;amp; app RBAC&lt;br&gt;What;s stored here vs in&amp;nbsp;&lt;br&gt;Cognito?" style="sketch=0;outlineConnect=0;fontColor=#232F3E;gradientColor=none;fillColor=#2E27AD;strokeColor=none;dashed=0;verticalLabelPosition=middle;verticalAlign=middle;align=left;html=1;fontSize=12;fontStyle=0;aspect=fixed;pointerEvents=1;shape=mxgraph.aws4.rds_instance;labelBackgroundColor=default;labelPosition=right;" parent="1" vertex="1">
          <mxGeometry x="905" y="340.71" width="78" height="78" as="geometry" />
        </mxCell>
        <mxCell id="wXUvmhFlW6K3RGWHzzFr-17" style="edgeStyle=orthogonalEdgeStyle;rounded=0;orthogonalLoop=1;jettySize=auto;html=1;entryX=0;entryY=0.5;entryDx=0;entryDy=0;entryPerimeter=0;fontSize=22;startArrow=none;" parent="1" source="wXUvmhFlW6K3RGWHzzFr-48" target="PTJRQVvbIerqqaXg6TyO-2" edge="1">
          <mxGeometry relative="1" as="geometry">
            <mxPoint x="585" y="299.05000000000007" as="sourcePoint" />
            <Array as="points">
              <mxPoint x="640" y="380" />
              <mxPoint x="640" y="380" />
            </Array>
          </mxGeometry>
        </mxCell>
        <mxCell id="wXUvmhFlW6K3RGWHzzFr-7" value="" style="outlineConnect=0;dashed=0;verticalLabelPosition=bottom;verticalAlign=top;align=center;html=1;shape=mxgraph.aws3.virtual_private_cloud;fillColor=#F58534;gradientColor=none;" parent="1" vertex="1">
          <mxGeometry x="685" y="156.21" width="79.5" height="50" as="geometry" />
        </mxCell>
        <mxCell id="wXUvmhFlW6K3RGWHzzFr-19" style="edgeStyle=orthogonalEdgeStyle;rounded=0;orthogonalLoop=1;jettySize=auto;html=1;exitX=0.5;exitY=1;exitDx=0;exitDy=0;fontSize=22;" parent="1" source="wXUvmhFlW6K3RGWHzzFr-10" target="PTJRQVvbIerqqaXg6TyO-3" edge="1">
          <mxGeometry relative="1" as="geometry" />
        </mxCell>
        <mxCell id="wXUvmhFlW6K3RGWHzzFr-10" value="" style="shape=image;verticalLabelPosition=bottom;labelBackgroundColor=default;verticalAlign=top;aspect=fixed;imageAspect=0;image=data:image/png,iVBORw0KGgoAAAANSUhEUgAAAQkAAAB5CAYAAAAqPdQRAAAgAElEQVR4nO2de1xU1dr4vzMwFwYYEAUEEVEQ7/fEvJaV6aks08zsZpdjHu3YydffyXjPOa/1ntMx8zU7XaTyWFGWqWmWZpqV9xuoeEVBQQTkMlycGXBmGGDm98di9jCCiMp46ezv5zMfmNlr77X2ZT37Wc961vMozGazExkZGZlLoLzRDZCRkbm5kYWEjIxMk8hCQkZGpklkISEjI9MkspCQkZFpEllIyMjINIksJGRkZJpEFhIyMjJNIgsJGRmZJpGFhIyMTJP43ugGeJ0qo+d3TfCNaYe3KdkB6hAI6nGjWyLzG+O3ISSqjGDJxmnKQlF5HEdFFgqnERzVOKtOussp9ShUkTh9QsGvHcrgnhDUHXSdbnnh4Tj3A4rgAShkISHTwty6QsJ0HEq248hLguoc6WfXajWnTwgACk1Xj92cVSehdjdUgMNQb4MqBmX76RA6Qn4by8jU49YSEtZiOLcGZ9F3dZ29HHxCxAdAqQeH2V1eqQelquFxXOXr7+Mw48ieA9mg0A1BEXIHRD0K+ljvnpOMzE3OrWG4NGfhOPQqjh2dceQl4awuEBqCKsaznLZPw319dJ6f+ij1KHTd6pUNkY7pKF6OY28/nPt/L7QWGZn/UG5uTaLKCKfewVHwNiDe8BJKlbAvVNXTHPzagQWhHbjwCfQ8pmubw4wi+A6cxm0emxWqSPdfVSTOihSc+wZD2AyUXWaBX3hLnZ2MzC3BTatJOHNW4dgWLQRE3ZDCWV0ghg+qIPDRCQMkSB1f4bwAuuGex/FtI33w8fPYpgjsLoYaSr37owoSH6XKPVTxCQHDYhw7OkPOMq+fu4zMzcTNJySsxTj3TcKZ+bynvQFEh/bR4XSowScQhTbYbZhU6sGagzJ0iMfhlOoglAEdUAZ0QKFqXW+DHnw9tQyFpgOow4T24RqeuGwcdW1xZM7AuXOMsI/IyPwHcHMJifMHcewehNP0o+iUrrd7fWotKLTBOH3biE7v39m9zVEtNAbEcEGhigR1MPhoxUepcW/TdcOJxuP4Tl0PcUwfPyEsqk0eVSs0XYVGY9kttIqSHd65DjIyNxE3j5A4nYQj9U7xv0t7cJih1X3i/zqB4aw6i0ITiVIdBNpwFIHd3QIBUATFiv+loYIWpyIApyJAbHeVC+yLgirpN4UqEmVAB/APQaGJRKFqXTe8qRvKaLqCNsrdPp8QHGn3Q/o8L18YGZkby00hJByHXsVxdr6nYbIORU0pipCxHlObDrsJ/NoK7cA3UHRel1BQasR3H52wLShUKDSBKDSBQqtw2Rta9QNLnhhiAM6AvnXDD1HOacv3bEfbh3CafvZsnE8IjsKPcKbNbNHrISNzM3HDhYTj0KtQ9rVkW1D49XJvVOpxlq9E0WqQe7sqEoXlOChUQjvQtEERPMAtFBxVKFoPrbMrBIohha+/+IDb3uDfWQibuv2UwT1xohHH9NFCPSGhjJiG03igQdsVmq4oNF1xGreJqVIZmd8gN1ZIpM/zEBAoVeCjQxEwyF1GFYOzYAWK2JfdvzmqoaZCaAcA/h1F51eHgc0AwX3Ax0/YLTSBbiHhoxU2C3WY20lKHYZT0xH8O7g1jgtngbqhibYPtOontIh6NhKFXy8hlOrKOStSZI1C5jfJDRMSzpxVOPLrjefrBISrsyuC7nGXrTqLs6pCuE0DqIJwVqS7O782DIUuFqfCH6pKQdcJhaq1sFv4+oshiFIDChVKdRCK4P7Swi+nwl+s4QDpeM4LJyQBoOz+Ks7cTz0NqLrhoA6X2gJ1gqIkGU4neeeCycjcIG6MkDh/0D3FSd16CpeA8PFDoWotFisFJgB1HfDM36H9ZGE7cDlI1VxwC4FW/YRQcFaLxVr+HYQNAkChBYVWDD3UwRAQB44qMT2qDhKLvFwCp/K0dHxF7Ms4z6dDtclt8Ay+A2VQ9zq/i0AxHatU1Z1DiHDtlmc9ZH5DXH8hUWUUsxj1/R8Ap+UEgJiCdE1VtrlTCAqlSrhP5y0XXo8IDYALZ6Sy6NoLAVBrE9+1EXWGTX9QBYgPiN8C4qG6UpTXtQefILe2ceGsEFSBfSHkdij+xq0tBN8htBA/f5TqIGm61Wk96j4R16yH7Ech8xvhugsJ59H/d+ltFSniH7+24CuMjop2jwjV3idQMh4qOkwRGoBPtSivbgNql1elVgwldO1BUW/GQ6lBoQkUhkm/cKg1ibJB3YUAUWjBkifKqVpD90Qo+FbSKpwBfVG0vb/umGIGROG8AJZGtAafEJxpsiFT5rfB9RUShRtxlq8EnxAxMxAytkERR8kasBYJAVFnmFS0e0QyRHJuDYQOx6mLg1qV1LFRalAExYpO7KgSQoM67UATLMWLkIydNReEwNB1EmVUAWArFNpF9FNgLcZhyhD1ajqibHc/gHsGxFYs1n3Ud/hS6qVzclZuk124ZX4TXD8hUWXEkf4HTzvEhVMoO8wRMwV1fhAKVSTO8m0onJWehsmoR1H6asFuBNNxFDEThV9DVak4via4LniMGALgF44iYpRnbIiQ28UHQB0ihIpLgNjrjuPfUcx8FG8WRk5NJMoOj4ptvv5iBsRyWggzF9U5KMOfQRk6Hmf5OvFbnQt3g8hYMjK3GNdPSGQlifgP9XBWnRROVJGTUHaYU69VKpyGjcKI6DJMqkMg/G7xpj+fJsqFDBbagu2c+K4Jhogx7pWaF0ebqqdRENQDWvV3b7PkCTtGxBixNLymQtTV7kFRv8vP4nwaTuNutyFT0wFlr5U4q8uk1ar1cZx486oul4zMzcL1ERLWYhz584RHZf2pxDpV3ZH1V7AbUQ74tp7rcyBO40GcpixpdoKAeAiqm648fxD0sShC+oO23bW3sb6WcT5N2CtCR7jrVmrAdAyHKV0sMqsuQNnxFRQ93sSZ9Y7QIC6Ob1G3elSORyFzK3Nd4kk4MhZJHUih6SCmO6tNYsjhEhTFy8GUjrL/e2A+ivNssvBhqDwOmkAI7ic6qr7OI9NWF3uupSJHuTQMa7Gwh7QeDJrWwr5RXSlC5VWeRaHS4PRth7L3u1CZiePgZLHfRcLPpWk4qwtwnlqE4rZ/t0w7ZWSuMwqz2ey8fLFroMqIY2dft1elKginQy1Wcir8UViOi0VbdZ0KVRCKbv8UHTRvubBBqIOFBhE6/NL1tHCb6wsNijeL4YetWAx5QofDmU9xnlsh7eKsLgAQU7U+gVBbAbUWKRivcuAvXg2F5zj0qvAtiZnotTpk/jPxviZRuN79f90iLIVKI7QEdRAEjUdRaxPTm/ZinA41zuOvoYx5AuKmC1W9PMVtn6hvR/AWLgFRZcRZvB2FUyxBV3Su0xrS5+EwpaNQBUnLyRXBd4ggNrZinNVlOKurUGCpO289GH4C/XTvt11GpoXxupBw5otpQGd1gdAWfAAfP0ouBBIeJIyBTt82YpqzqhSn8ZjwPyjbi7OqQrwZg3oIL0aboYmavEhIgghVb86C/JU47CYUKg2gQRHYF6cuTiw7r6kApRCACpUVZ3UwCkoAcOQloYyThYTMrYd3DZfWYpyW3eJ/hxln1UnSzzgZ93FnOr/qyxe/+EpLuQHw74Cyw6Mo2j8kYkXUlApfA2uxUPEjxni1uQ3QBLuF1PmDQhsAlL5a4Q3aYQqEDhNOWmiEsdPPH6WfL8l7OhD8tz5sONpBTO9W58gGTJlbEq8KCWfxdul/Q2U0szY8z+BPB7GlCGjrz4vfVvHQ/HJKz9tA5Qu+/mzaZ+C1ZUYIuxda160GLd58Y92cTcfBeFj4ZYQOE85Wrfq5p0Wpc9KqteEwFfDCR0G8tF4HQRomr41n1oa6dSol25uoREbm5sS7w43STeATwufpz/PST4GgVIDex71dp2JLkYNOf8ll4e/8WXE4l5TT56XNr02/RzhI2c7d2CjV2nYQkuCeaq0q89xuK8RZtov002YGrx4BthrQ111avYZPM33YUvIqKx4+Qre469t0GZlrxXtCosrIhlQfJm+cBTUO0F2iKl8lOJzMXlch/teLBVtv/3gWjV8qidNGXVMKvj1pWYx+dS2J43uLY10N9Zywjmbk88Qbm8mx1rBwlB/DQg/QNbKM5JSevPSdHwQ5QXvRuWp9yamwM+jDWHLvthCs1zVSiYzMzYnXhERWsZ3Jn8dApBLUPk0XVioadiy9hnlrjgBcdeees2gdSRszIUDNvO+P8cuRPL56/RHC2ugvv/NFWG12XkvaJI6nU4FSIQSbPZaY8N7knLdBqyYup68Y2eUVlstCQuaWwms2idNnSyBEKwTA1aLXMO/7Yzw063OMZkuzdzuakU/vpz8k6dcsoZkoFaBTkZJfQdyUpWzacWUGxK2ppwiflOQ+nq/SLdj0GnIuVDcUco3hq+RIZuEV1S0jc6PxniaRX3ZtAsKFTsWW7PNEP7uUXf98mF5doi5Z1Gqz807yNuZ9f0xoLxd3XLUPqH2Y+OZPxH+6k8GdQ7m9Z3tu79OB2OiwBsczmi387YONJG89AwHqS59Pc8/TV0lugbzgS+bWwmtC4myRqWWEBIjO7XAy9KUVLPz97UydOLRBkS/XpTL9kz3C/qH1bbpunYpMk53MvXkk7zwLNdsbHHfTjuNMfPsXcDglO8k1o1RwIr/88uVkZG4ivCYkzhRVtJyQAHGsADWz/72XI6eLeWvWA/hp1WxNPcVL7/1CTplV2Ap8mzmCUiokzQKHk9mfpbB+dxZvzRzFG59uZ21KvtAemnu8ZtaZfk7WJGRuLbwmJLJLWlhIQN0Uqobk3bnsOfUp3dsFs3ZPHgRphIC4luPqVGzJMTJw+leSraHFUSrIPFfZ8seVkfEiXhMS9hovrhvT+orhwvliaKVtuePWm4L1GpYa7x5fRqaF8ZqQyLF6uTMoFS2vqcjIyDTAa1OgMX7XJVSFjIyMl/GakFD7ym/5RtFcxrFMRuYmw2tColNooJg+lHHjcBIfHXijWyEjc0V4TUh0bCsLiQbUOOje7urXocjI3Ai8Zjjo0DZICAnXp8bh/uuitp4Q8akbnrhcni/+/BZwOIkIkddtyNxaeE1IxEa1BoeTkdFBRIcF0C2mDa2D/AkP1dNa74da5UN4myDs9hrUal+KS03Yq2spMJjILTJyMqeU0wUmtuSb4bxNCBG1j9sJ6lajxgHWGu5JkNeKy9xaeC0QrtVmB8BPq77m45gqrJzJLyXt5Dn2phey9kiRWyPxVbq1j5sRhxMq7STEteKD2b+jS6cI71QjB8KV8RJe0ySuVTjUP46fVk3b0CAG94tlRt3vWbkGTp8t4WB6Ab8cySMlvdTtZu0SHDeSGgdYqokJ92fBy3cxeniPy+8jI3MT4v2Q+tcJo9nCiaxC0k6eY1NKjhimmKvcAuN6DFFqHJLtZUzPcKY+2I9RQ7t5v15kTULGe/xmhMTFWG12cgvKOHSygJTj+SzZfRaMNilgjIeB9GpwGWIdTrDXgqWGkbdF8MCQWO4a1LnRpefeRBYSMt7iNyskGsNQauZwxjmOnCpi34lCsksqyCy2QFWt28mpMaHhmsqtcYgZmVZaEsJ0dIsKpndcOLf37kBch7AWG2JdDbKQkPEW/1G+02Ft9Ixqo5eGAFabnYpKG8VlZopKKyg3WSgzXWiwX+sgf4IDtUSGBREaEkhQoN8NFQgyMteT/yghcTEuo2hYGz29utzo1sjI3Jx4VUi44lLaqqoxVViwV9ei81PTOjhADgYr04CiEhNn8ksxV9owVtgIDtSiD9ASEqQjvE2Q/MzcILwmJKw2O6s2pfHeuqPkZBsZOTCSGeMHkFtk5KMfj5FZUc2SZwcz6b4B3mqCzGXYmnqKdVvTKTHbCNKpyDW4A+JcsNdgqBC+LmGBavzVvkSHBRAT0YohfaLp2639NQ+5ikpM/LI3k+92nmLjtrNQUQNROhLiWgGQYrBAlsi1ikYJbf0Z1zOc27tHMLx/pybjnbYURrOFRxK/xmitJthPRWSIP0H1AhzlGio5Z7KSWVFN6vwJHn4wS1bt4nRduEKLrVoqD+L6ukgpukBCW3eip8gQfyJCdPSOa0unqJAWudbXgtcNl1tTT/HgrNWsnv+Qx3TgnEXrSFp5jFVvPSj5EGxNPUWVzY5SKXwcAnRqKi12VGpf+nZp1+BNsictiwCdCBJTaakirHUgsdFhLPxsC/cO7kylparuOO4yLqpqHLTW+6HzU2Moq/AoM7ifZ/bvzbtOkFNQTnVNLUEBfh6Bcy9uw8U3NCO7kHKThQCdxqONLc3VGC63pp7iwPF89p0oZOOxYvc0cY2DKUOiGdang1T2YEYBSbvPQqlFCjKc9PshPDF24BW3NSvXwDtf7iT5l2yodTDl3jgm3NOr0Xtstdk5fdbAsg1pJP18WsrTgrGK3B9mXhftoqjEREl5hWiDK6VC3RKDcf0jmT7+NsJaBxIZFuxx71dsOCCu269ZboO4UiH26xvB7d0jaB3k71FXmekCJ3JKST5YAIWVoFBAGz+mJETx+Jg+DZ7N64HXhcSetCxGz1jJ6v8b5yEkikpMxI//kCn3dea9xPGAkNpL1+zj9Xd28/2SRxnUqwMVlTa+23KU2Yt3sep/7/dwSsrKNZD4wc9s3HyGJf8Yw+hh3bBVVXPv7OUsmDocfYCIWjVt0Wa6RuiZ9ZhIG2iutDHxnV9JXfAI4W2C2LTzBFP/upFx98cxd+pIqRMbzRZG/PFz3p15N4N6daDKXiPKLt2NefVMqQ3T5q8n5UgJm959pIGQMJSaWfjFNpKSj5D093u5/44eXnmwr3V2Y86idSRtzRYCoNSCecsrjZZbvHw7r36WKuJ/mqoYN7g9n/99UrPrWbx8O68uTYFaB+OGdeCtl8bQNjSoWftm5RroN3ulmGWqsJO5fGqz920p7nnxE1IKKkVnt9VQvPrFy77lM7ILGfinFSIsYo2DKQlR0jPfFEcz8oVgWpMOwRqw1jCyVxhvzRzlNc/dxrixbonVDiJD3Eung/U6hvSJBq2S9uFBklFx6sShTL2vCxP/sVFy9waIjQ7j+Qf6gFrJpPsGEKzXcfhkPj+//Tijh/dgcL9YBveLpWNrHR3bBkrfRw/vwaa/3oevrw/Beh0P3tULgCfu7enxlv/7R5uZPDSWOwd2xk+rJlivY9J9A1j4WH+PNvxuYEcI0TK4X2yDByasjZ5xd3YHJV4TEC3BPQlxnovvLsGMySNY+PvbRSrDVlrWpuSzYsOBy+5ntdl5aNbnvLrsAPgoWDhjKJ//fdIVdfLY6DBylz5HTKC4xqaK5udiaSnu7t1emhIfGd+6WcOALp0iSIjWS8523WLaNKuuXl2imD9rLGlfPsvIuBDw8xVxWJ//gi/XpV7TeVwJ101IqNSe5o9Fy7YT3z2E6ZMbhsdvjP5dI6HYRkWlrclyo4f3aFaGrsH9Yhuo/a5hjosSs429Jxsm02kspP+tjkrt2ywhAeL848N1orMEqFnyw+Emy1ttdsbOXsaW7PNQ47hkWoTmEKzXsXDaHVBZTbmpBYREyQ5In4dz3yScu8fi3DcJTidBVRNRzeuGGkEBVxgPtW7IofK9Mu/f2Ogwvlv0NFOGRIt71EbH9H9tY+FnW66s/qvk+ggJfxWLv0ll4WdbmL3gO/Rj3yFpazbr5z/W7Dfryl9PMHJk+6tK0Xe13D84ji17zjFz3poryiD2n8CEQZ2Ep6lSQcqREg8N72KmvfEtKblmAMYlRF2zkB01tBsEqcktvMr0BFVGOJ2E4yc9jrT7ceTPg2oTzsptOE0/4sieg2P3iKYFxRUSEqC95vgq7yWOFxqFvRZaaXl92YErzkZ3NVwfPwlbDRPu6MKDd/Wiyl7DMw+Ws2DZLuIfTmLK/fENx2e+CvKKhVXbUFbBVxsPc3vXCF6ecsd1aa6LSfcNIN9g5vWlKSTvPMvciX2Z8djQxlVMh5MVGw5QU+v5Nvb1UZKdVw66W3B5exN0ah/ifug1PpgqrI1el007jrtzmNhreeulMS1S/5vPDGxwrZtF4UYc6X+AWjHroOw0H9pPBk0wCnMWjr39wCcEqnNwnHgTZd83W6S9LcVH//0Q8S8kiy+ttEx88ydy+3T06jD2+mgStU5CgnTSuL5Xlyg+//skptwfT/KGUyxZtavBLsUlZixWOzPf+5lcQyWJ00bdkGmg2c+MJO3LZxnTM5zXP9xL+FMfU1RiarRs99hwesdHeHy6x4bTJkQH3kwxcCNxOMFHQVCgX4NNVpudie/8KgREjYPpd8W2mKFxxuQRVzazUmXEmTYTx9FHobYchW4IyuGnIG66O2u9PlYICBB/DYtbpK0tSdvQIOY+1EvYhACUCpKWN+w/LckNNVz+cdJg8FWw40i+54YaJ7f1bE+vLlGseO1htuw916gguV7ERoexcv7jbEp6FCzVPDDn64aFlAp6dYlq9NMzri3Yr+KtdxOTnVcuTUeOS4hqVIB//+tRqLRLMwHj7ux+A1oKWItx7B6Bs6TuDRz4EIphG8Ev3LNc4UZJw6C2HEXQ765vO5vJ8+MHiesKoPVl3s8ZXh0O31AhERR4+TdsbHQY0x/tyex3dzY57m1pGqtrcL9Ylrw4gswzpktqE/8JWG125v2cIYREqZW/PDui0XKrt2W4M6tZam7IHD/mLBw7OkN1DgCKoN+hHPxFw3JVRjEMcWkSgCL62evVyisiWK9jTEKU29BsruJQxjmv1Xd9hISPolFL9LbU03ChhqfG9G5y98Tn7wa9mr++96O3WgiAw+F+23//61G2pp5qUCY6IhhqnGg115BW8BbnlUXrRawOey3fvz2+0Tl7o9nCxsxSyXkooXfo9W9ofRsDoNANQTFoRcNyVUacqY95ahGhUyCiZewn3mDUbR3cQkLtw56DOV6ry+tCYvfhXFAoWPDNfrJyDYBwMFqx4QBTF/zCwsQ7PZyszJU2sDmwWN1v8mC9joXPJLBk+TGOZngOTY5lGcDukI7dGGfKLBSWX1odKzAYwQFZ+WXSb7f1bM+Ds1aTke05Bbro633MfT7Bw1BUUCIC3FxK0zFX2sABeYW3Tkbxi8/FUGpm047j3PPiJyRvPcOUOzuS++UL3Dmwc6P75xWWg6VaCAmHkz4xra9Hs91UGXEceNjjJ0XvDxqWM2eJoYhltxAmdQJC0e+969TQq0MMYWvFFy9nq/fq7MbCz7bgp/Eh6ZW7sNjsfLx6HyAiacdGtab4x5c9xrJLVu3CfMFO0t/v5ac9pziSWSgZp6ZOHEppuYX1W09QYDAxengPvlyXir2qhrkvDWHlj4e5M6GTh0qbkV3I+u0nmTxU/LZ4+XYev/82jw6+Jy2LrSnZzH15CCZzFUtW7WLqxKHERoexev5DvL9iDzqtig5tgzhbZGLWY4M86lix4QBt9DrmThnIO8nbGD+qp8ebddOO4xxML2Duy0NYv/VEo27fNx1tdIRPXCx5CHK2AtRKCFCBvwr0GnrHhVNcarqkVb2otMIjhKDvdQ4n6Dg4UwwxXB0/fqkwTNYnZxmOzBkePyl7rbypNQgXIUE6d7R5X6VXs9V7VUjMfmbkFZW/3Px54rRRHt8vZ93u0inisu6rLi/Mxhg1tNtlw89dboHa6OE9br34lrYa5k7ow4Ae7gVU54qM7D2WR3JKPliqmf15Kvx77yUD/HoMLx1OgnUtmNj5MjhzVkHFd24BoRvi6a5esgNnxhtCewDwCUHZYY40FXor4HuFDlnXVFdLHCQju5Ccc+XkFglpFhMZQnREMNGRzXNblbnJqLQ3KuCfGDuQt2x2Pv12r1i/odeQUlDJwOlf8f0/Hrzk0AOlAqOlaU/ZFqPKiDPzeU8DZK+FYM4Cw084zs532x4CH0IZ88QtoTk0iZeTYF2TkNi04zh/XrKDKXd14d7BnenTNQpThYVDJwuY8PbPcK4S897ElmqrzE2An1bNjMkjGN6/E0NfWgF6DQSoefC19WR+9pzkBxEeqncb1pSKJm1CLUpWkud3nxAc+wa7vwc+hCLiQRQRo24ZraExDGUV7oRWDqdXM8NdtZB4+m8rSD9nZPv7T3uMS9uGBtGlUwSjh3UjevJHGM2WRsethlIzDqcTpUJxXV2tW4r6hr3/RG2pV5coFv7+dmZ/liIFF160bDvzZ40FIKJ1gMeYee2xYu83qsooXKzraxGarihC7oCI0aDrdEsLhvqYK21um4/DSZ9Y7wVeviohMXvBd6xNyaf4u5mX7CDBeh1LXhzRwLi1ZNUujpwuZlifDgQHasnKL+PDH9OZclcXyeXZarPzTvI29p4s5EyZhd/1a8fvhnVtoM4uWbWL2cv2Q7GF6ZN6MuvJER4efZt2HOcvn+4k85SRuc8nMOOxoWxPPcWXPx1j7ZpMVn04/pL2AtdSdjQ+JE7sQ+K0UexJyyJpzX7WbjkDEQEkPT2IorJKkn/NoG+HVh7LzL9cl8qmlGwOnT3PHd3CeGBYl0vW9eicr0h+/ZFbTtg8OXagCCp0oRrUPiT9kCEJiejI1tCqnh3CaMNQavbuC6Fwvef32nLhNPUb5FiWwR2jwlojVk97iSs2OR/NyGfJdyd485mBl32oJ903QDJoWW127nnxE3RaNe8ljmfSfQMYPbwHMyaPYN/Hz/Fj6hmGz/gUq82On1ZN4rRRPDAklpxjZcyfNbbR8e7UiUN587F+oFIyf9bYBi6/o4f34NM59zPuzhhmPzMSP62a0cN78JdnRxAzIJSJ7156Fd2na1JI6B3KlLs7SQbTwf1i+egvD0NrPxLv6cITYwcy+5mRHPn8D5gqq+g39QvJ8+2JsQP585NDyTlSxstPDLukgDCUmtm47azwTrzF8NOquaNbmBhW1D2wLiczP62acV1D3UMOnYotKQ39TloSZ/4ytxZRWw6BD3m1vhvJj6ln3AF4Wmnp26291+q6YiGxbEMaqJTcPegSRqpL8Mqi9USG+Dc6I+GnVbNu4fsvzjkAABueSURBVJNkFluEo04d0W0vrxqqfH2I6Xjp9QA6PzXdokI8fsstNLJg6nA4b2PzrhMN9snKNdCpfQj+al+PeBdNMWP8ACixUVx6kSemEvz9Lr2k+JvNh6B9IAu+2d+sem42eseFX9JwNn38bVAXAg+1j/DA9BZVRvdsRR3K0CHeq+8GUlRiEhnrfJVgr+XN8b29qoVesZD45WgB6FSEt2n+Qp2sXAPJK06Ih+YS+GnVJD7Yk+QNpyTHKGPFtVvE/f00DSzr5SYL/bq1Z8rdnXj/m4bBO1b+eJgH7+rlEYfwchzLMkCIRqjZzcRqs5OVf55d/xhHZno5e9Kymr3vzYKu/sNZ60CpcOctGdwvloQuIUKb8FWy8VBhA2e4ayEr1+C2DVmyG2x3+jYvuMutxqdrUsSiuTqeffh2r9Z3xUIi84zpirNe7T18FrRKOkY1fdMG948Bp5PTZ0uutFmXpDH36TLTBQIDtPxx0mC2/HTWw6vSUGomSK9pWjIrFRSUV5CVa+BoRj4LP9vCj6lnyF0z44ok+vbUU4y9s7sI6NougKQ1t542UVTmDp5LgLqBzWHRS/cKbaIuQM2z839omXpLTPQbt4TcgjovWVtDj1uFf9vmHawF40Z4m6ISE/PWHxeObudtrHrF+6ujr1hIJHRvA/ZabFXVzd6nqKwSmiFXIloHgEIh+Vt4C5O5Cj+tWoQVu7Md76/YI21bunrf5SWzUkGx0YbFaqfAYMJeVUOKwcILb6y9ooVf63dmSLaWJc8PYe3m7Jtj4ZiPEkOpuVlFpbGxrYbEBxraXXp1iWLhtMHSatDMEivzPtp8zU1849+/QISuaWe5moaJlhpw7DUc26K9Liiq7DVSWsnT1+BC/eRrq8VxzFXMfXLAdXHUu2IhMSAuFOy1HD7ZfLVR768GHwUl5RWXL1zjaJYtoj45ZdZLbmtMmJXWW1b758cGkbzhFEazBaPZglrje3nJXOOgX6dQenWJYvTwHiROG0Xm4qfYeLKEe2cvb1abi0pMJB8s4Mt1qXy5LlUsvVYp+fKHg83a36v4KCguu7yQ2JOWRUpOnVBTKi4ZinDqxKEkju8N522g9mHemiPXFHpt047jJG84xZRh7mjeaBtOATpyvrz0QcxZOHeOwVHwtnDFvtKpUaUCm2vtRDOQhq5KBQdOX52mPHPeGnG9L1STOL73FXs0Xy1XLCSee0jYFRavuXzwU6iLOD2gE9Q4+WlP09btnHMiRkGfrs3Pp6DTqqHs0raLkvIK4i4yXNZn9PAeEKzhqx/2s2pTGk/c3/+SZZuibWgQbz7Wj5zM880ad3+6JoXMxU8xflQfxo8SU6xT7uvM698eua5L4l0Ul5jd8+5aXz77vun7m5FdyOj/WScZz3a9NaHJ6EiJ00aR9Kc7hEah9eX15Qd5+m8rrjgOwooNB5j4+o+g8eHxMX3cG3SdPAv6hAjX7PR5nlqCOQvHoVdx7O2H07IbZb8frsjj8kR+uZRs+mRh87Qtq80u5TDBV0nK6fONGswvRUZ2Ibc995FIQQCsmvu7BksUvMkVC4kunSJIfKwfW/acu2yU5D1pWSxds48unSIYc0eHy3aApesPM318d2kqMzjw0v7+RSUmrDY7naJCwO64ZMdcv/UEt/fu4PHbxYuN5k7ow6tfp3E6v/yaIiepfH3AV0HoZWZErDY7pWYLbUODpFSDAC+MT4C8SrY3skTdmxhKzSKYrSvvhtqHJdvPMO+jzR7DH6vNztGMfOYsWsfAF74UId47tSIt6YlmJcp5YuxAUpMeJyFKXJ+1BwuIfmoJCz/bctnhTVGJiZnz1jD1X1vBz5f46EDPNTeaYJRRiW6XaxDelvnzcOzsK7SGLb3F0nHDYlDFoLw9DUKHN/s67UnLYu2RImnYkFNmbVbU6mXrUsk5b3Pb8gLUTHjrJ1ZsOHDJ/mA0W9iaeoqn/7aCgVM+JzO3gqmjO3M6+fnrvhboqpypXFJs6n9vxHzB1ujCrKxcA6NnriLz2+kAfPyXcdzz8heMnb2MdQufbKDSL16+nfJKGytnPS79VmoUb5nGvDZf+r8fSH79EWFBHxzBs/N/4Od3nmqwwjMtu6SB1K25KCr0Uw8M4PUFO5m91DOGZkpBJZEhjYwflQrSsj1VRqPZwuxl+5k+oYenoGkkINWazYd55J6eDX7v1SWKmJ6t+cunO6/Lg5CVa6Dfi19B3gVopQIfT+E5b9lB5iWlQHW9k9Aoie/bhsSJfXjgzm5XnEWrS6cIfv7gOfakZfHVxsMkbz3D60tTeP3DvcR3D+HuXpHERYUQ3TYYY4WN7LxyfjmSR8qBYlApIVjDlCHRIqrZxXRPRGHcjbNym2cYutpyj8VcitgFzc5P4or0nZJeCqZqCPGczp7+xs9Mn/8LMZ2C+fYf4yVnOkOpmXv+6ytyMs8Le5y/Cqx1Q446d+qp/9zM1P/9iZj4VoQFuvtDSn4FnDZDKxVjhkaz8KVhjL2z53XPMeLimpLzHM3IZ8GyXaSfMzJhUCcRHBV3tqfEe7o06KCLl2/nk80neG5UN7rHRVBls7N+Zwa392wv+VBYbXbWbD7Myl9PcKbMQsfWOkYnxEihyDfvP0vHtoGSd5/RbOGlBetYe7KE6UM6ENYqgJzC8+i0Kl6bPloSSK6l46+vO8abj/TxSBW3NfWUZEQ8mpHP+q0nmPdzBvGBKmY93J8nxg4kK9fAx6v38WPaOXKsNUxNaE/XmDaUlls4kV/OE/f2lDr3ph3HhWfnyRKm9I/k8TF96NutPcvWpfLeuqOM6hXBvbfHSeWLSkxsSz3Nkh8Ok2KwMH1IB4+2X46rSc7jyo6lVvng6+tDoE4rucpXWGzU1HiOuX19fRpkqbpWXG04klnIkdNFFJZbOHT2PCDSC0aG+NMtKoRO7UPo2zWyeYsGc5bhzF+Gs7oAAIUqUrhmhw67Is3BhWv2q/41AlAqFDicTinPbVyHMKltjV1bQCpfbrJQVeMQwzygptaBb52Qjo4IbjQj2I2iRTJ4WW12CgxGKVBMaEjgZaVeUYmJC9Yq/P00jZa9WHu4WC1r7OJZbXZMFcKIGRTo16CM6xgu1++mjlN/m8sL1PX3UuUuPsbFZS8+xsX/N1Znc3GmzUTRahDEPNnsfWRkmoPX0/zJyMjc2tzYNH8yMjI3PbKQkJGRaRJZSMjIyDSJLCRkZGSaRBYSMjIyTSILCRkZmSaRhYSMjEyTyEJCRkamSWQhISMj0ySykJCRkWkSWUjIyMg0iSwkZGRkmkQWEr8hXCH4ZGRakqsWEoZSMws/28Kjc75i5rw1t2Q4+N8SRrOF6PveZdWmNEBkBdu04/gNbpVMczCaLdz23Ectmm6gJbkqIWE0W4ibspTkXzO4s28UxUabyE0o44HRbGHOonXXJQJ2cakJapzc3rsDVpudjdcj9+ZvlIzsQuYsWnfdYo3aqqrJPHXzhvX3SUxMfO1Kd1r90yF+WHeSIyv/wPDb4pg4qhdxHdzRiotKTBzNPIe9uoaQIH/pd6vNzsmsQrLzSgj012KrqubsuVLatBIxD41mi/TdaLZwrvg8IUH+7EnLon2EiHqVlWsgI7sIla8PAf6Nx8B0lTGaLWjUvlLujYvrd/3uKl+/va7f6pczmi2kpediNFvQB2hR+fpgtdnZfzTH4zdXXR+v2sP/fZnGY/d29Sh/MqsQQ5mZ8CbyYh7NyCc7r4Q2rQKkYxaVmKi0VBHgr+VoRr7HMQ4cy2XVnmxe+/0IfH2UvHBfL/p2a4/VZic710CbVoEN9rm4rvrnWp/61+3ie9rYvc7KNWC310j3x1BqJjuvRKrXdW01Kl/8dSIcXEZ2IW1aBZKRXYij1knFBRuVlip8fJTsP5rjcfyiEhMWqx2lUsH+oznSs+BqS/1rdqlnJiO7EH8/DWXnKzmaeU46d6PZwn9/sJmdJw2MHhCNv5+m0WNdfB0uvraGUjNFpSZCgvw5mpGP0+nkXPF56Vl3tcFR60SjUTH9kf5S6LvLPZP1z8P1/OUXnW9w3i3FVcW49PVRgkbJqk1pDeJbLlm1i9mLd0GwFkqtrPrnA4we3oM9aVmM/t8fRKKWqlp2/fsJ9h45y+x5Wyne/Wf8tGrmLf2FpJ05mFfPJGn5Llbvy6ZdkB9b8s2YV/2R2Qu+Y8mmUyJe4IVqdn3wmEeMxaISE0++tpqU0+dFhqNzlST95R6eGDuQramnePB/fwB7LVhq2PXvJwB4JPFrEb9Q7UPi+N4kThvF039bwdqUfCkwbOYnz2KqsDBw1kpRkbmKtORnAOg3c7lIPFNpZ9eHj0vtWbYuldeXHYBwf4b+/ktSk5+m3GRh9GvrpfLxHYPYsfhZjwhURSUmHpjzNZnn6pLe+CrJ/Ow52oYG8ca/f2HPqRJxTY4a4EI137/7CHcO7MzB9AJopRWJmlftYnbiz5hPz+X7X48y9e0tTLm7E8k7z4Kpirm/H8TsZ0Zitdl5LPFrtmSWiSCtWl9ylz7nERFs047jTHyrXp6M8zZ2LX2SXl2imPfRZuZ9nSbudYlFOm6/2SuZ0j+S9xLHAxA3/XMSwnT8/MFznvew3nUceO/HJP55CPMW7Cb1pxf420dbqLLXcM5kJTO3QnpmenWJYto/vwMQ286YoI2OhY/2Y/bnqWCsYsyQ9qycL2Klzlm0jqQfMiBQDUYbqUufIrxNEAPv/Zgpz/cieW8emKuIaa/nyOd/4G8fbGTtwQJQ+zBwyufk/uBOii0dy19FQlQgP3/wHFm5Bh7+6xoR6NZey5i+Eayc/zhLV+9j+a4sukboOVloZs7EAUyftYHcg38mWK9jxYYDTH1iLWmHZ/LxF/tI2n0W86o/YjRbmDL3G7YcKgK1D1Pu7Mh7ieOZOW+NiJZd9+ynffI0/n4a4l9IFhnSjFVsevcRz+DALcRVDTcm3TeAMSM6MHvhdu558RNJnd6aeorZ7+4kLfkZzN++RELvUH7dLxLOjH7+a6aP6Ejx+pcw75hDry5R7DiST8LgCOkmnMw9z7juQpoWlFeQmVvBiD7tyV36HF+uS2VJSp7Y/7s/gZ8ve4+cldpktdmJfyGZkAAtxd/NJG3RJAB6x0eQkV3Igy99w/S7Yin+bqZU/z0vf4Ghwk7mymmYN80mcdoo5n20mfRzRsybZlO8agYYqziZY+CT7/aDUoH5uz9h3vIKsdFhrPzxMFyoxrzuZcxbXvEQWFMnDiWhSwjTh8Vg3jGH8DZBjP6v1UwdFoN53cukJT9D5qFS1mw+7HFt4//wOcF+KlH/dzNBp2LBZ1sBOJFvJPNcJf/4w13krpkBejXpp0X8xb0nC0WCXuDI6WLiR4jsVdl55VBVy7A+HTD/MIv4+FZsP5wHwLQ3vkWj9sX8wyxOf/ocpJ/nRJY7m9nRjHwm/mENbz7eH/O6l/n+f+4Hi4jluGLDAeZ9up9Nb0/A/O1LzP39IF5/ZzdWm50p/SMpNorh56YdxyG/go/mPMCSVbtYkpKH+ef/J+4hsP9Yngh7GOPPL0fySPt1OtGRrTlZaGZLrokVrz1M2idPg6+C9CwxhDpnsrIl38yGtybz/VsPQ6mFHUfyMa97mcQn+7PxpAhSvGTVLpK2i8xq5m9fggA1+4/ni6FZez9MlmrM3/2JhTOGklNQidFs4a1ZD4ClmiVTh2LeMUcSmEazhaQ16Sz5r5GYv/sTP3/wHAAP/3UNU+7qgnndy6z+n/vYuD5LioaeU1DJoG4RbH//aW7rEQV6X8qMQvhPXbqbqf99G7HRYRw4XcLUBJHw95HEr9mSbxZ9aNNs3kscz+Ll29l2wuC+bhof9h/LE+n+LHXP3445XhEQcA2Gy5XzH2fVggdJyRFvPoDF36QS0zGItb8e554XPyElvZRxd3Zn0bLtEBvE/FljPd6aa1Pyubu3uDhWm50tmWUM7y062rYTBkb2CmP2MyMJ1uuYv+oACWE63knexm3PfQQOJ3fVS1q8bF0qGG18/Jdx+GnV7D+WB34+xHUI4+PVKRAV6FH/1tRTZKaX8+VfHpBibFptduatP06n0EDmfbSZ8Kc+hrb+9O3Sjv5dIqHEwsx5a6QZhE7tQ+BCtcdvLoxmCymnz4v9gB+2CSPinGdFQhWXammqdCcW2pOWBWfMIjUeIt7lmE4h5JWKTFQpB4qZO7m/WxhZaoiNErlHt+wv5PbuIptV8t487u4l6t17spCRt0Uw6b4BANhrnHSNboXRbGHtnjzCg7XMWbSOuKmfET8ozCM79YJlu0i4sx0zJo8A4MDxfGgfgJ9WzYJv9jNuVCfpwRzQIwqUYKqw0jsunOwSkYjpz0t2MP3RnsRGhzF78S5GRumZ99Fmej/9Iah9GD2sG0cyC6GqlmWvTSA2OoyKShs5medZ8vwQtwpurSU6Ihij2UJmejmrXhpJWBs9Gl8l1DiZO9WdqCa+tVDFZ69MY2RMMEnLd4n6HE7uvj2eQycLwFrLu38e675hPgqC9ToKDEYwVdO3a6TH/QzW64jvHMzUf22VDMJbU0+Rk2fGcL6S2Qu+Y8Jf1zHlyR74adVsO1HEmAGR0vMbHdkaHGAoqxD7l1uZ86zQ5lJyzST0iCIju5CUPYV8/8poj6HHq18dpGNrnfu6AXcMjOO2nlFgtl9V/pIr4ZqmQEcP78GbTw4g81ylMJal5NM1Qo+fxoep9/chc+U0BveL5ZejBdJbzoXRbIESG/27i5uRW1AGhRZ6xok3YM6RMh4f1UMqm3PGRGSIP0F6DW88O4zc5dM8LuTm/WdJ6N5Gkvw7D58lvqPIa7H5aGGD+tNPF0KAysOWUmAwgrGK9m1EPatfvpviL14gWK9j0n0DWD3/IZJ35/JIohCKk+4bwPfvPkLy3jzuefkLj+MXl5qgxEb32HAADp4sIL5jkJQr06V9ta43rs0tFMYrV5usNjsb0w306xQqytsdDOkTDUBeYTlcqCGmXYjYdqGGfl3bCWNbmVUSTltyTYxOiJHqyMkUgiuvUGgYOq2KuKgQvv/v37H/k2kegXjXniwRGdvq+DH1DON6t8Vqs5NZYpUEOtQJEESSopjIEDJLrGzacZyczPMkPn+39BBHhwUQpNewYOpwcldNJ1ivY++xPBJ6h0rCOiuvBOwObuspBFZ2XhmoRC7ZvMJysDukBE7HThdBmE56FtKySxjcOVRch8JKz/qWT6NtaBAHMwqIiW8lPStHThcT3y4AQMpD21ji55/feYrpY+KZ+Ke1bE09xbkiIwSoCdZp6d81kk1vT+C9xPHi+qSXM+GOLtK+flo1hGvJzi/nL5/uZO6UgYS10Ytn7twFuseGC+GlVjKolztPjNFsgfO2Rs9j1NBubFr8KGsPFRL9/CcN2ttSXLGQKCoxsSdNqFSGUjObUnKIbyfeLvEdxU2eMXmE9OYC6BQayNqTJVJCHaPZItLvqZUYK2xYbXZeXPgj+PvSLVYMD1AiSXON2heCNXSLCmHG5BGMHt6j0fR9rixJm3edIHnDKbq3E6nbukboWZtuwFBqxmqzY7XZRee01bDzgJi6NZotIuy500nXmDbMmDyCYQNiMVVYpTaPGtqNqSM6klJQKf1258DOJN7X3W1DqCPnXDn4+6LzE50uNqoVmbkVUsb0V97dCO0DePCuXtI+IUHiod13VAyjFn+9C85d4NnxCVJaxW6xQltwqd5dOkVwNLNA2nb6rAEstfTtGimER0El3ePEPhnZhWB30D02XLSr2kH/LpFMnTiUQb06eCTI8dOqiQ9UceB0CUazhSWrdpGSXsrt3cXwMKaVlh1HRJuycg28npxK4rQEAHrFR0KlnT8v2cGbfxpKsF4n7qG1lsiQQGZMHsGIgZ2le7jnlKcwOna6CNRKqeMfOVUEIVrahgYJrQMkgXLkdDFj4kSHttrsbMwup3dcuOiUCoVUX/1n5se0c4zq5c4hmrz1DBMGiQxgx7IMoGnYLQylZoL1Ol6bPhrUSs4VGQkLCQBjFQ/c2Y0nxg6kW2wEVptdvPDqrnN9xiVEMX/VATJLrFKKvtNnS8Dfl/YRIdL9//7Xo9IzqVH7Qq3T47rZ61IGGs0WBveLFTlYT3lvBu2KhcS6rccY/eRXhE/4gLiHk9iSY+TLvz4IwLznR7Bxdx76se+gn/i+lBfzb8+NgPM24icvIXzCB6zalCZucoCKqQt+IfyJj+gT0xoqagjW69h/PB8cbmnup1WT9MJQ5n22H/3E99GPfUckjK3H8w/0ISfbiP7+RXyx8QhjhrQnVC/UzlmPDQJTFXGPfUz4hA9Ys/kwD97Vi/j4Vkx49Xv0D/2LRxK/JqyNnsSnBjD77e3oJ75P+EPv8eUPB9l39CzRD71P76c/ZMn3J1kydSiHTuQRff979H76Q+YtO0jSH0d4tEcfoBU5QyctxWi28Pj9t0ErLf2mfoF+4vusPVRI6qJHPYZfo4Z2I2FwBA++8i36ie/z+rIDrPrXOPH2Sy+A9gHS2y/leL6UKGb/sXwIFUbL9KxiUCvFuD7HAFYH7cNFhzp0sgCqHLSPCCE2OowpD3Vh6j83i3P93Tts3pPhcQ5vPDuMlCMlRI9fzJHTxaBT0TladOYFU4ezdnM2+onv02/KZ4wb1kHKsdI2NAjOV5Nz3iYlX/bTqnnzT0OZ96m4h+ETPmDRsu3irXuoVNJ8AHYcyScmvpX0fd+JQinr195jecT0dL/lk3eeZVA30eFNFVZIK5O00YUvDWPeFwfQT3hPemasNjs5eWa6xogM90azBbIqpZwxen9xPwa98InHFOjjc78R7Z6UREx8K+6/owfDBsSS0DuUob//kt5Pf0j0vf8it6BMXGdzjYeWCtAnNoycY2Usme7O/XEwvQB8xVBn1NBujBzcTtyTh99lxB8/x0+rZuF/jRDnUXfdFn6xjaMZ+UTf9654/r5O4805V55PpLlcVUj9ohITZ/JLCQlqmNXZaLZwIquwwTarzc6hE3kE6DTSmNpV1jUOLjAYiY0Ow1BqpsJi8xhO1K83rHVgg20g3mgWq51eXaIkdd71xjGaLeQVlqNW+Xi0y+XA0j4iROqAWbkGDGUVHvVkZBdSbrLQLTaiQbn6v12qPRfX11Tmq6MZ+VRaqujbrb0kRC4+n/rfL/7/grWK2OgwjGYLZcZK6Rwu/l7/HDpGtWk0/4kr/8fW1FM8OGs1md9Ol8oZSs1k5ZU0ej+ycg0E6rTS8MrFxffQ9eatn3Tn4nPNyjVI+Vnq/++6L+FtggjW6y55rIvrKzAYaR0ccMl9jmbko/NTe5yTK9lOY/fOdb9cz8Glnt/Grv/F59rY8Ro7j/r37lLPX0sh592QaRSrzc7ir3cxpE80uYVGpi74hSn3xknTmjL/OVyVn4TMb58qew37ThTy+rpjxAepmTtl4HVLdS9zcyFrEjIyMk0irwKVkZFpEllIyMjINIksJGRkZJrk/wO42dDwKu6F5wAAAABJRU5ErkJggg==;" parent="1" vertex="1">
          <mxGeometry x="200" y="156.21" width="145" height="66.21" as="geometry" />
        </mxCell>
        <mxCell id="wXUvmhFlW6K3RGWHzzFr-11" value="&lt;p class=&quot;MsoNormal&quot; style=&quot;margin-left: 36pt ; line-height: 1.2&quot;&gt;&lt;span style=&quot;font-family: &amp;#34;segoe ui&amp;#34; , sans-serif&quot;&gt;“The&amp;nbsp;reason for Cognito is that we need an OIDC service that can dynamically read&lt;br&gt;authorization data and put it into the JWT in a smart way. Keycloak can do it,&lt;br&gt;but you have to install custom extensions which means Java programming and&lt;br&gt;restarting Keycloak each time. The Pathfinder SSO instance is not appropriate&lt;br&gt;(and they would never go for that level of customization).&amp;nbsp;&lt;/span&gt;&lt;span style=&quot;font-family: &amp;#34;segoe ui&amp;#34; , sans-serif&quot;&gt;&amp;nbsp;&lt;/span&gt;&lt;/p&gt;" style="text;html=1;align=left;verticalAlign=middle;resizable=0;points=[];autosize=1;strokeColor=none;fillColor=none;" parent="1" vertex="1">
          <mxGeometry x="600" y="56.21" width="500" height="100" as="geometry" />
        </mxCell>
        <mxCell id="wXUvmhFlW6K3RGWHzzFr-12" value="&lt;div style=&quot;background-color: rgb(30 , 30 , 30) ; font-family: &amp;#34;consolas&amp;#34; , &amp;#34;courier new&amp;#34; , monospace ; font-weight: normal ; font-size: 14px ; line-height: 19px&quot;&gt;&lt;div&gt;&lt;span style=&quot;color: rgb(156 , 220 , 254)&quot;&gt;keycloakUrl&lt;/span&gt;&lt;span style=&quot;color: rgb(156 , 220 , 254)&quot;&gt;:&lt;/span&gt;&lt;span style=&quot;color: rgb(212 , 212 , 212)&quot;&gt;&amp;nbsp;&lt;/span&gt;&lt;font color=&quot;#9cdcfe&quot;&gt;NRM or SSO Standard Realm?&lt;/font&gt;&lt;span style=&quot;color: rgb(212 , 212 , 212)&quot;&gt;&amp;nbsp;&lt;/span&gt;&lt;/div&gt;&lt;div style=&quot;color: rgb(212 , 212 , 212)&quot;&gt;&lt;span style=&quot;color: #ce9178&quot;&gt;&#39;https://oidc.gov.bc.ca/auth&#39;&lt;/span&gt;&lt;/div&gt;&lt;/div&gt;" style="text;whiteSpace=wrap;html=1;" parent="1" vertex="1">
          <mxGeometry x="170" y="318.37" width="380" height="34.16" as="geometry" />
        </mxCell>
        <mxCell id="wXUvmhFlW6K3RGWHzzFr-13" value="&lt;div style=&quot;background-color: rgb(30 , 30 , 30) ; font-family: &amp;#34;consolas&amp;#34; , &amp;#34;courier new&amp;#34; , monospace ; font-weight: normal ; font-size: 14px ; line-height: 19px&quot;&gt;&lt;div style=&quot;color: rgb(212 , 212 , 212)&quot;&gt;&lt;span style=&quot;color: rgb(156 , 220 , 254)&quot;&gt;siteminderUrl&lt;/span&gt;&lt;span style=&quot;color: rgb(156 , 220 , 254)&quot;&gt;:&lt;/span&gt;&lt;font color=&quot;#d4d4d4&quot;&gt;&amp;nbsp;&lt;/font&gt;&lt;span style=&quot;color: rgb(156 , 220 , 254)&quot;&gt;prod&lt;/span&gt;&lt;span style=&quot;color: rgb(156 , 220 , 254)&quot;&gt;:&lt;/span&gt;&lt;/div&gt;&lt;div style=&quot;color: rgb(212 , 212 , 212)&quot;&gt;&lt;span style=&quot;color: rgb(206 , 145 , 120)&quot;&gt;&#39;https://logon7.gov.bc.ca&#39;&lt;/span&gt;&lt;br&gt;&lt;/div&gt;&lt;/div&gt;" style="text;whiteSpace=wrap;html=1;" parent="1" vertex="1">
          <mxGeometry x="200" y="120" width="380" height="20" as="geometry" />
        </mxCell>
        <mxCell id="wXUvmhFlW6K3RGWHzzFr-14" value="&lt;font style=&quot;font-size: 22px&quot;&gt;Forestry Access Management - Technical Architecture -- 2022-05-02&lt;/font&gt;" style="text;html=1;align=center;verticalAlign=middle;resizable=0;points=[];autosize=1;strokeColor=none;fillColor=none;" parent="1" vertex="1">
          <mxGeometry x="10" y="20" width="680" height="20" as="geometry" />
        </mxCell>
        <mxCell id="wXUvmhFlW6K3RGWHzzFr-18" style="edgeStyle=orthogonalEdgeStyle;rounded=0;orthogonalLoop=1;jettySize=auto;html=1;exitX=0.5;exitY=1;exitDx=0;exitDy=0;fontSize=22;" parent="1" source="wXUvmhFlW6K3RGWHzzFr-13" target="wXUvmhFlW6K3RGWHzzFr-13" edge="1">
          <mxGeometry relative="1" as="geometry" />
        </mxCell>
        <mxCell id="wXUvmhFlW6K3RGWHzzFr-22" style="edgeStyle=orthogonalEdgeStyle;rounded=0;orthogonalLoop=1;jettySize=auto;html=1;entryX=0;entryY=0.21;entryDx=0;entryDy=0;entryPerimeter=0;fontSize=22;fontColor=#10739E;dashed=1;" parent="1" target="PTJRQVvbIerqqaXg6TyO-2" edge="1">
          <mxGeometry relative="1" as="geometry">
            <mxPoint x="485" y="176.21" as="sourcePoint" />
            <Array as="points">
              <mxPoint x="640" y="176" />
              <mxPoint x="640" y="353" />
            </Array>
          </mxGeometry>
        </mxCell>
        <mxCell id="wXUvmhFlW6K3RGWHzzFr-20" value="SAML token&lt;br&gt;(requires BCEID Partnership Agreement" style="sketch=0;outlineConnect=0;fontColor=#232F3E;gradientColor=none;strokeColor=#232F3E;fillColor=#ffffff;dashed=0;verticalLabelPosition=bottom;verticalAlign=top;align=center;html=1;fontSize=12;fontStyle=0;aspect=fixed;shape=mxgraph.aws4.resourceIcon;resIcon=mxgraph.aws4.saml_token;" parent="1" vertex="1">
          <mxGeometry x="425" y="140" width="66.21" height="66.21" as="geometry" />
        </mxCell>
        <mxCell id="wXUvmhFlW6K3RGWHzzFr-21" value="" style="edgeStyle=orthogonalEdgeStyle;rounded=0;orthogonalLoop=1;jettySize=auto;html=1;fontSize=22;" parent="1" source="wXUvmhFlW6K3RGWHzzFr-10" target="wXUvmhFlW6K3RGWHzzFr-20" edge="1">
          <mxGeometry relative="1" as="geometry" />
        </mxCell>
        <mxCell id="wXUvmhFlW6K3RGWHzzFr-35" value="" style="rounded=0;whiteSpace=wrap;html=1;labelBackgroundColor=none;fontSize=15;fontColor=#10739E;" parent="1" vertex="1">
          <mxGeometry x="680" y="640" width="470" height="160" as="geometry" />
        </mxCell>
        <mxCell id="wXUvmhFlW6K3RGWHzzFr-34" value="" style="sketch=0;aspect=fixed;html=1;points=[];align=center;image;fontSize=12;image=img/lib/mscae/OpenShift.svg;labelBackgroundColor=none;fontColor=#10739E;" parent="1" vertex="1">
          <mxGeometry x="670" y="624" width="50" height="46" as="geometry" />
        </mxCell>
        <mxCell id="wXUvmhFlW6K3RGWHzzFr-38" style="edgeStyle=orthogonalEdgeStyle;rounded=0;orthogonalLoop=1;jettySize=auto;html=1;exitX=1;exitY=0.5;exitDx=0;exitDy=0;entryX=0.005;entryY=0.63;entryDx=0;entryDy=0;entryPerimeter=0;fontSize=15;fontColor=#10739E;startArrow=classic;startFill=0;" parent="1" source="wXUvmhFlW6K3RGWHzzFr-36" target="wXUvmhFlW6K3RGWHzzFr-37" edge="1">
          <mxGeometry relative="1" as="geometry" />
        </mxCell>
        <mxCell id="wXUvmhFlW6K3RGWHzzFr-36" value="THE -- Forest Client data" style="image;html=1;image=img/lib/clip_art/computers/Database_128x128.png;labelBackgroundColor=none;fontSize=15;fontColor=#10739E;" parent="1" vertex="1">
          <mxGeometry x="340" y="670" width="100" height="100" as="geometry" />
        </mxCell>
        <mxCell id="wXUvmhFlW6K3RGWHzzFr-45" style="edgeStyle=orthogonalEdgeStyle;rounded=0;orthogonalLoop=1;jettySize=auto;html=1;exitX=0.995;exitY=0.63;exitDx=0;exitDy=0;exitPerimeter=0;fontSize=12;fontColor=#10739E;startArrow=none;startFill=0;" parent="1" source="wXUvmhFlW6K3RGWHzzFr-37" target="wXUvmhFlW6K3RGWHzzFr-42" edge="1">
          <mxGeometry relative="1" as="geometry" />
        </mxCell>
        <mxCell id="wXUvmhFlW6K3RGWHzzFr-37" value="Forest Client API" style="sketch=0;html=1;dashed=0;whitespace=wrap;fillColor=#2875E2;strokeColor=#ffffff;points=[[0.005,0.63,0],[0.1,0.2,0],[0.9,0.2,0],[0.5,0,0],[0.995,0.63,0],[0.72,0.99,0],[0.5,1,0],[0.28,0.99,0]];shape=mxgraph.kubernetes.icon;prIcon=api;labelBackgroundColor=none;fontSize=15;fontColor=#10739E;labelPosition=center;verticalLabelPosition=bottom;align=center;verticalAlign=top;" parent="1" vertex="1">
          <mxGeometry x="740" y="680" width="70" height="60" as="geometry" />
        </mxCell>
        <mxCell id="wXUvmhFlW6K3RGWHzzFr-39" value="" style="aspect=fixed;html=1;points=[];align=center;image;fontSize=12;image=img/lib/azure2/app_services/App_Service_Domains.svg;labelBackgroundColor=none;fontColor=#10739E;" parent="1" vertex="1">
          <mxGeometry x="135" y="433.9" width="65" height="52" as="geometry" />
        </mxCell>
        <mxCell id="wXUvmhFlW6K3RGWHzzFr-40" value="" style="aspect=fixed;html=1;points=[];align=center;image;fontSize=12;image=img/lib/azure2/app_services/App_Service_Domains.svg;labelBackgroundColor=none;fontColor=#10739E;" parent="1" vertex="1">
          <mxGeometry x="150" y="490.21" width="65" height="52" as="geometry" />
        </mxCell>
        <mxCell id="wXUvmhFlW6K3RGWHzzFr-42" value="Forest Client Manager GUI&lt;br&gt;what additional info is needed&amp;nbsp;&lt;br&gt;over and above whats in&amp;nbsp;&lt;br&gt;OrgBook? Can FAM &amp;amp; Forest&lt;br&gt;Client be merged into one?&amp;nbsp;" style="verticalLabelPosition=middle;html=1;verticalAlign=middle;strokeWidth=1;align=left;outlineConnect=0;dashed=0;outlineConnect=0;shape=mxgraph.aws3d.application;fillColor=#4286c5;strokeColor=#57A2D8;aspect=fixed;labelBackgroundColor=none;fontSize=12;fontColor=#10739E;labelPosition=right;" parent="1" vertex="1">
          <mxGeometry x="890" y="680" width="62" height="68.8" as="geometry" />
        </mxCell>
        <mxCell id="wXUvmhFlW6K3RGWHzzFr-51" style="edgeStyle=orthogonalEdgeStyle;rounded=0;orthogonalLoop=1;jettySize=auto;html=1;exitX=1;exitY=0.5;exitDx=0;exitDy=0;exitPerimeter=0;fontSize=12;fontColor=#10739E;startArrow=classic;startFill=0;" parent="1" source="wXUvmhFlW6K3RGWHzzFr-46" target="wXUvmhFlW6K3RGWHzzFr-2" edge="1">
          <mxGeometry relative="1" as="geometry">
            <Array as="points">
              <mxPoint x="970" y="570" />
            </Array>
          </mxGeometry>
        </mxCell>
        <mxCell id="wXUvmhFlW6K3RGWHzzFr-54" style="edgeStyle=orthogonalEdgeStyle;rounded=0;orthogonalLoop=1;jettySize=auto;html=1;exitX=0;exitY=0.5;exitDx=0;exitDy=0;exitPerimeter=0;entryX=1;entryY=0.5;entryDx=0;entryDy=0;fontSize=12;fontColor=#10739E;startArrow=classic;startFill=0;" parent="1" source="wXUvmhFlW6K3RGWHzzFr-46" target="wXUvmhFlW6K3RGWHzzFr-43" edge="1">
          <mxGeometry relative="1" as="geometry" />
        </mxCell>
        <mxCell id="wXUvmhFlW6K3RGWHzzFr-55" style="edgeStyle=orthogonalEdgeStyle;rounded=0;orthogonalLoop=1;jettySize=auto;html=1;exitX=0.5;exitY=1;exitDx=0;exitDy=0;exitPerimeter=0;entryX=0.5;entryY=0;entryDx=0;entryDy=0;entryPerimeter=0;fontSize=12;fontColor=#10739E;startArrow=classic;startFill=0;" parent="1" source="wXUvmhFlW6K3RGWHzzFr-46" target="wXUvmhFlW6K3RGWHzzFr-37" edge="1">
          <mxGeometry relative="1" as="geometry" />
        </mxCell>
        <mxCell id="wXUvmhFlW6K3RGWHzzFr-46" value="when new users are added, orgbook changes? &lt;br&gt;other triggers?, &lt;br&gt;queries forest client and OrgBook &lt;br&gt;for Organziational Attributes" style="outlineConnect=0;dashed=0;verticalLabelPosition=top;verticalAlign=bottom;align=center;html=1;shape=mxgraph.aws3.lambda_function;fillColor=#F58534;gradientColor=none;labelBackgroundColor=none;fontSize=12;fontColor=#10739E;labelPosition=center;" parent="1" vertex="1">
          <mxGeometry x="804.75" y="535" width="72.5" height="72" as="geometry" />
        </mxCell>
        <mxCell id="wXUvmhFlW6K3RGWHzzFr-47" value="" style="group" parent="1" vertex="1" connectable="0">
          <mxGeometry x="370" y="511.21" width="290" height="112.79000000000002" as="geometry" />
        </mxCell>
        <mxCell id="wXUvmhFlW6K3RGWHzzFr-43" value="" style="shape=image;verticalLabelPosition=bottom;labelBackgroundColor=default;verticalAlign=top;aspect=fixed;imageAspect=0;image=data:image/png,iVBORw0KGgoAAAANSUhEUgAAANcAAAB2CAYAAABbPQb+AAAgAElEQVR4nO2d6XMc13X2f7f36dkHg5UgwJ2yFsqWLVlLHDuqclxJuVL+lj8yH+IPScquRIllOc5rWaIkc6dIAiSAwTaYfaZ7ervvhzvTJEhKlm1Bguh+qkAWiV5n+rnnnOc897bo9XqSDBkyfOnQvu4LyJDhWUVGrgwZjggZuTJkOCJk5MqQ4YiQkStDhiNCRq4MGY4IGbkyZDgiZOTKkOGIkJErQ4YjQkauDBmOCBm5MmQ4ImTkypDhiJCRK0OGI0JGrgwZjggZuTJkOCJk5MqQ4YiQkStDhiNCRq4MGY4IGbkyZDgiZOTKkOGIkJErQ4YjQkauDBmOCMbXfQFHDplAEkLsISMPYh+SMTIJIYkQwMM/BCBBShAChAm6BboNeg6hO6DnQGjqJ0OGz8EzTi4JSYAMOjB8gBxskAw3wN9DjtvIcIBAEUlouiJMEiFlghAGWGVw6ojcAiJ/EvInEe4yGK4in2JlhgxPhXjmFgWVMURDpLcLw03kqIH0d5H+AQRtZNBT0Sv2VUQTAqGbCN0CoSGjABmPVfSaRCwMF8wiwq4inFmEewKRX1Zks8qg2Vkky/AEnpHIJSGJIOwj/SbS24bBfRWtvB0I2hAOkJEPScDD9C8BTUNomsoCBSTEyCRExiEiDkAM1Rk0XRHNKoG7CKNl5GgLzT0BuXmEPQO6MyFZFtEyPBPkkpDEyLAP/TskBx8hOzeQ/i6aDBAkgAA5Bhkgkxhh2GpPmSA0DXQbYRYQQkNIEHEEgJiQRCYhIkkUAUMJ/RHJ4D5S+wBZPINWfQlqL0NuAaHnQNO/rg8jwzHCN5tcMoFogByskXRuIDs3kcMN8Pch9sCwwcgpMgkNhAHCR5g5QEASIoSGZubR7DJohiJXEiGkAzJCJhEQI3QHzXDUMeNICSRBDxn7JOMWYnAfUbsExbMId1GllFkE+6vGN5dc8RgZdJCDe8j2VZLONRhsQdiDZKyIp5sIzUAzi0jdQeoeCQJh5gGBiMcACCuPZldUxIknNZdmQDyGyAMkml1EM/MI3SIZdyfKo6cEk2iEHLcR0QAt6EL8HLjLCCOvjvMlI0kkUZwQRjFxkpAkiboPBLquYRo6pqEjNJHR+2vEN5NcMkIGbWT/DnLv/0g6N5GjLUTkTxR1MYlUQkUjq4AQOjIcIpMEzSpODmMACcLMI+wyCA0ReYjYR+g5ZDiaHENHcypoVmlyHH9Si4lJ9BxC7JGEXWTQQYsGiDrgnkCYpS9d7IiTBM8P6Aw8BiOfOE7QNA1T17EsA8cycHMWtmVgGYYSNqcf3SPHEZM/xRdgoJQP9xafscMX2ebhtnKy/eRaxB/f55uGbx65ZAzeNnRuItsfI3u3Ybw/iUISodugm5DEpI+P4SCsItJ0kUmEMF1AqL6VjNCsIsIqqv8zBujmGMwiUjOQmgFItNysSifjMWgaaAaa4SJlnPbMCPswuI8kQcgYqi8hi+eUovglEixJJP2Rz/pWkxvr28hEcnK+xkylwMgfs9/uY1smq4s1VpfqFHI2UkqiJEGmT7RAEwLT0DB0HU2b1JcSJE8KyFEUE8UJmiYwdB1de/J+wigmkQmaUBH0UbI8SuQkSQiiGG8cIhOJrmk4tolhaGhC8MglTvdKBwApn7w6NZ4eP2J+s8gV+8hxC9m+Bp1r0L+DCHtK+zNsJa1rOkKzwDBVD0szkEKlgsJw0ZIQgf4wssVjJbFbJUAiwqJqLlsVEqEriV630HIzgEYS7asIp9tKgo89iCSQIIQOiY/wd5Hda0rmByidByMPmvmlfAyaJhBCECcJewd9pJTMz5RwbJMwjhn5IeuNA4IwwnVs9LqgN/Q56A4YjMaU8g75nI2h6wy9MZqmUSnmqBRddE3DGwds73cZ+QGaJpirFRkHESM/QAhwLBMpodUbYRk6Occk79i0+yMACq5FIiUjL8Abh1SKOWqlPPmczWgc4HkB4zACAWEYI6UiWLmQQ9M0Rn7AQXeAEIJyIcdstUjONhFC4I1Ddg96tLpDdF0wWy1SK+fJ2dYXisBfJb455JKxSgV7n5IcfDQhVgtNGGC5SJlTdRAgNANhV0DGCN0EmSB0WxGCCaGEoaT1eISwKyp9I0GzPTUymhU0TYM4p9JKq6ikfBmDZiFMqY4VxJP/0xCaPdHzx8jhAzUCSwm6i8ifgC8pRdQ1DdsycB0LKSVJIrFMg1rZJWeb7LV6XL/XwLFNVhZq1Mp59tt9Pr2/y3azy8riDEv1MjnH4s7GPlEcszxX5fzKHG7Ooj/0uXJni/1WH8s0ePniMlEU0x14SClxHRtvHHLtXoOS6zBXK7I0V2V7v4MmBLO1AkNvTGO/y16rz/mVOS6sLiA0ja3dNp3+iCSRVMsFgjBiPA4JwogwitE0jWZnwLW7DTQBZ5Znydkmlmmga+CNA+482OP62jbO5NpcxyJnmxw3AembQ66wB/17yP3fITs3IDhQkcl2VA1l2KoBHA1BoqR1TX8orwsdYRbRjIISH4SBMMvIaICwimhWCWRCksSg2arm0jVFULsMCJX+SYnmVJFxiAwHSKGjmXkl5+sWJCEy8pDBCNlfV/0yPYcmNETBVBHsL4SmCUxdJ2dbWKZBkiTYlkHesdGEwLXVw2YZBrqmqQdTaERxwtALiOMExzaZrRa482CPZnvAOIiollwWjTKWaTAOQobeWKWREop5h5xjIQDLNNht9en0RpiGjmHozFYK6vtAbTsOY8IoZugFRLFqY0RRzJ0H+/hBSKXkcqqQQxMwDiKGfkA+ZxMnqn70x6FKLGKJpok0Wk+jc7c/gkIOIQSWeTxbH8efXDJRAkZ/naR9naR7C+nvI2Jf1URJNBEtygjHUKJF5CuV0CohDAeYRBvDRRgFJAKErmqhUJ9EprKS5iGV0YVuqnzfLiPDPkIz0eyaeoQCdR7NKSN0SymDMkKOeyThCJkEyNiHkYTWJyRGHs1wEa496YP9ZaOsEIpkUkq8ccB+u89ao0l/6LO+fYCu6ZTyDsVCDts0sEwdyzAwdEU2x7bIuw6aJojjhDCKVHqma6niaJk6tmXgWCbVUl4pkJNU1xsH6LqGZegUcjYzlTyObSABQ9fpj8ZYpoFl6FimgWmoui6IIg46A0Z+wFy1yFytSKXoUsw72JaBP47I2T6WqWpd09QmNZ76vOzJsfTJfdiWgWkaWc31ZyEJIeyS9D5Fdm/CaAsin6nDQsYhMonRNAORm0HaJQg9iHyEXUKYRQSxEjV0B+HUSCaNZWEWQTcQRgFhVVSzWHcQkYdMlAVKaAbCzCPjQPW63Hlk5KnCPc4hjKrqpekm0u+S0EPGYWoYlkEHerfBriOtKsKuAu6XJtHHicQbR7R7Ixr7HboDj/32AAQYho4QSqDQdQ3TVA+llJIgjBiMxiSJxLYMKgUXxzaxDB0JmKaBbZk4loltGRRdm3zORghBlMS4XWvycJu4jjWJbKbq6UtJzjKwJw//lBCmoVPK59g76HPQGXB3c59EShbrZUqFHLZlAEKpnKZOFCsRxZ9EUdS3ThTHCAGWZWCZasA4jjj25JLRANn9VLkuBg+QkYfQDBC6Uu1kiIyGJOEA3Z1Dy1XAkTDugJFXPSyjoLbVbZUaoqnIZTjIuIQwcgizAEmMkJHqc4U9tY1QIyi6A2YBzSiSePuq0aybk5QRZDgkiX0l3yfhRLzQEEmE9FvQu420Ssj8EiK38KWRSxNgGjquY1EpuuRzNkkiWd86YKfZ495mk6LrMA4jkkTijUMOugMSKblxr5FGkAurc8yU85imQRBGh86hoqSKaAAieXqUMHRFTOKEp6kLjmVyYXWOJEm4u7nP1TtbbOy0WV2q8dL5EyzWK2o3CUEY0e173NcOMA2dfM6ePBCSB9st2r0RM5XCU5XN44LjTa54DH4TujfAa0DUR8hJw1QzEYY9cV8YEI2RQQ9hFtCcqnK0y0Slg1ZZqYhmEWG4oLsgDIRmAglCs5TCOImGIgmRek4RGCaiRw0hDGQ8UjWaYavfC5DjLjIcQKSaz8IsQBwAvkpbZQT+LnKwhhysg+6o830J6qGmaeRsk1opz4m5CrZpUCm6dPsevaHP2laTE3NlgiBWnxtKtg6jiP32AF0T6GWNYj6HbZpp+jXFdDbOF826Pm8zw9CYq5VIEoljW6xvH3DQGbCx08LQNQSCUt55eCxNoGta+qMg0TXVRjhuAsbjONbkkmEfvAZycA/CDsqGZKqaRdOVAmgW1IM6IRhJBJqpRIckBDRlttUsMIug59UxhAGotElMI9l0FJSJilRoQIwMNTShITUTxuLhtkIjGbfVOeNgItE7gEDKBGKhHkxNV41mbxvZv4ew60o5/AvJJaV6vAxdI5+zqJXylAs5HNvk2p0crd6QdnfIYDROe0W6ruFYSjofOgEjL8CfqHWJfDIKpH3hpwaILx414jghjhMsU2d+pkTOsSgVHK7dbbDX6vGg0WK2WlQkEkoRdSyTUiFHteRScB+SrpjPYVsmmhAcZw/KsSYX/p7yCo73EDJGGJOJijKZRBWpVEC7pMQLTVcPejRGuDmEXk0nPArdRRh5hFFQKdnnudeFrlJPeHiuJJ+63oWczBMLe6r+SyKEnkM4AoI+chyraDW5PnRjUiwMoX8HWViB3Jyq+f5MyMmfcZIQx5I4UY4HTRPYphIhbNNQkUlTdZYQYlL3OCzPV1mqV3j/2jq7rT4PdlqUCrmJpD05h3x4rsdpJOVhR8Yfgx+EdPoeSZLg2Bb1aoG5WhEhBDfuaWztdRiMxniFUDWqDZ2CrjNXK7I8X6WUz6XHure5z/1tG10Xxzp4HU9yyURNWhw1kIMHEPRVXmIUSLQcmqEraVsIJTgIQ6VaVhFhFUC3lABhlhFmZSKT2w9TsS+UUkztAdrDyCgEoBrFMuhC0FUueKsECIQfp9FEswpgupOnMCaJQxUZvB3wdhDuSbDrjxz3iyOOE7xxSLs/wptEnd1mjwc7B/SGHiNfyd+z1SKVYo5S3qHTH+H5AUEQ4Y9DABbqJWarBXYPemzudpipFNTHD/jjAH8coAkY+YGKbIkFwMgL6A99xkGI54eMfBX9TFNHIAijGM8PGPkB3lj9PfKVutjujTB0jZxtkXctgiDCdSwW6yXKhRy6LhTJxuFECQ0JwphESjQh8IOQ8aQnNvIChiN1btexsybyF4KMkGEPOdomHu4Q+kNGsYsnHXwKFIt5iq6Fa2vKZqQ7gImpq8gkdBfQVL/KLKgp+tOZxn/ysiFiUltpCKGpSBgNlFtEM5UJOIkgDpXAYTggJBplZTmKIjzPo+/5BMEYS+9TcPfIuU2M/HJa//0piGUyMexKyoUcfhASJwndgZcaeguuzWy1SL1WoFTI4Y1D7EmaZZkGpq5TLDicmK8ipVRE8AOG3hjD0LFNAzdnY1sGcqIATtPGIIrSc+ccE01ThDIM9dnGsVJjLdNQThBDQ9M0pATPD5TC6YdEcYxEHadWzlOvFDAMJePnbBOJSg+n9yp0CIIIy9DVuS1F9jBKUEPC8WLX8SRXHIC3i/R2CEYtuv2AtZ7L1kinFVqsLhU4e6LCSsnF0BKiMCQJIWcb2FoOzAKYeVX/aNbEmfGXYlJr6TpShmC4ytUhE+XcEIBhoekzyvYkDJJoTDAYsD3qcndboz+U1KyA0/YB84Vd9PJgIqR89tfwlDIIKcHQNEqFHM+dXmQchuRsC8PQSSa9qtWlGaoll0rRRdME4zBiKYzI52yqJZe8q+xPp5fqFF2H/VYf17GUs14IlmYrlPI5dF2jkLMPyd2aEBTzNhdPLeA6FtWimyaHcvJRFfM2S7NligVHRdAJEYeeIrqY3EfOsSm6TnqtUaw8h6uLqp9Yq+Qx9cNN4nqlyIUV5XMsus6xi1hTHEtyxdGYca/B/v6AzU24t5PnWtNhvWvQHsec2vZ5vjniwrKOphuEoYaha5xdNlkyLKp5F9OeU41l3frcc0mp6gF/HEwap0baLP0sCN0BU6mRMgmItDw+NcYU0EWIJQKIBjRbAfe2Az5ag2sbJp2hy2xO8O0w4EWtx/nykLxexnjMYCClnLgbxpMUT07UsYeO+ChOcB2L588ups3a6TQTJrXX9P8QsDBTplpyiaIE01DNYdsyFNFyFgv1EtbEbaEJgZuzJs4K8Yj9SF1DMe9gmQb1ihIgrIkVa/p7xzI5MVelXi0SxfGkiW1MbFsmSaKoOO25CQSmqRrXUpqcNAzqFeVksUyDnG0qNVFA3rU5fWKGxdkyAnAcC8fKmshfGP44ZHOnxfX1kBtrNrd2TNY7DrtDg2Eo2R+O2e0PuLsXk6ATxgLXNnnFL/FtXeNcPkelWMTQnEmf6kkkUhJFCf2Rz06zS7Pdw7FUoT1TKVDI2U84u1MIAzSHRCswiAo0+0P2miN6wwSTAFcbw7jP+s6Aaw98Lt+XrDV1Br5NydLoJZKx41NcHnMin5C3HyY08aRp2u6N6PRV/fTQZa4sRO3+CJlIKqU8J+erVMsujmUSJwlRnBBHCYlUIkcSRpiGjmMbuI5JnEiiOCaJJf44TB3pBVc1iJNEiSSOrUggUM3oR13zoBTKgmuja+oziqKYIJEITTnt8zmLgvswY1ACiNo5nsw/M3QVaZMkIYwSomjSZhFiYixW7gwhVLM8imLiOMHQNUp5B8NQzo1Hv6Op15LJFBbtayTdsSRX34/55L7Hb25r/OFenrW2hh9pxJPm5YNmwF434tr9AUEsiRNBKZ/jwHeJrTmskoFZ0skbAlN7Ui9Ipg6Foc/dzX2u3dnk7sY+rmNxfnWeb51ZZHm+hutY6svVxBPTHqJE4EUGWz2LW1saN+6O2T/oYMkuea2HCDrc3Qm5sS25d6DjhYIo0dlDpxsKKMSc+VZAZTbGzcv0AfGDkIPOkLWtfYaeWu+j4NpYloE2IVdv4OMHId44pFxwyOcsTENnHER4vnKiR7EimK6pB9V11DZBGDEcqW3iJMF1TNzJ73VNPfgjP2Aw8pWRVgiKeSfdP06UP9HzA4IwJudYGIZGHMd44ygl3XT7KaaukE7fI4giNCEouA5hHOP7AYPRGG2ibGq6NvFOmrjTewujyXlVW8G2jIkkb2DoD7/gOFGDxnRqzNfpOzyW5Op68MF9wScNg/sdAz+ERB5mSBAlRIlI5x91Bz6Xb2wAgtFYMhwLzpycY7ZWxLGUvDwdPbv9EY1ml7sbu7x/5R5/uL3BeqOJoes8d2qR+40VXjy3rHxvpTyVkkvesbFMA00TDL2A/VaP+9v7XL6+xsc373PjboNOf4SQAaaIEFIyHOv0ffBC0oEBoDOS7HQjdtoeZ7yAahRjmQZxkrDb6nPz3jabu21ma0XOnJhlcbaMbRqqCyFhaa5Cp+8xGCnxwRuHeOOA/nBMEE5mJ0s10oeRah5XSy7lQg5D19ludtlv9/HGIcvzFRbq5dRVnkwezrWtJoPRGNsyOLM8i2kYGLpOnEi6A49mu8/QD5itFsnnLKIoYb3RJI4TZmtFVhdnKBVyaa02DiKanQE31hrEiaRSdDm9NIMXhOwe9Lm7sUfBtSnlHUr5HENvjGnolIs5Zmsl4jjmoDPkwXYLw9CYrRSxLPMQecIoptMf0djrpLXlVAH9OnAsyRXE0BxAeyQYjJ8e1hMJSfyw2g9kTLMz4A+fbuEFEQMv5Lv9Ed86s8SJuQpCCIIwojfwWNtscv1egz/c3uDanU0e7LRo94YIBP2hr0ywm00WZ8sszlZYXZrhxFwtFQc2d9vcWt/mk5sPuHp3i7XNfXaaXfxAycfapP2SyCn5DyOMYeDHHPQ8Rl5AGMWYE5Js7ra5ub6Doat+1Hy9RLXkpukRKPNqwXXo9j1s06A38Nhv94kTST5nUy7m1Gg/jmj3R2xst2i2B9SrBZbnq/SGHnutHv3RmGrJnVyzOriuCQxdY789oNv3KBdzxNPFeYRI1Tt/rGT4JJlOjhS0eyNa3SEH3SGOrSJOMe+k5uLdgx6f3N4i71icW5nDNAyiOGEchDzYbjFfL1HI2ZQKDjvNLt2hj2MZaEKlrkEYsbXXxrFMcrb1iFNDwfMDdppd/nB7k9lakVNLdSolVzWbv4b08FiSS5k/H501+wV2kZIolmzutun2R7Q6Q3oDD88PkHIVTRPKq9Zo8smtDT6+eZ8rd7ZodQcEYZTWEg+2D9hpdrl9f4fZSpET81XOr87z4rkTLNQVSa/f3eKjmw/44Noauwc9Rv44LdIB4i9w2WEY0R1MelKR6uP0hz6bu23WGwe8fGGZ2VqRmXL+ELEAHNtM/YTdvsdBZ8inD/aolvKUCjnmqkXcnIUfRAgBt9Z2aDQ7tPtDqiU37T0NRj5Jkih70STCGIaOY5uMPJWquY6FoamZx2rqh46ROue1tGEdJQkSSbs/YrfVY35G9a0KrppGMvU03nmwx0K9xOkTdfI5Wx1TCDr9EdWSMg/Pz5S5cW+HvYMeUZywUC8zXyuha5pqNzhTt4eRXjfAwAto7He5fm+b5aFPzrFYWaxhWwZ6Rq4vByM/5NMHu4zGATsHHfbbfXRdY7fZ5ZObG6w19tlv9elP1p94nMNhFHPQGdAdeGzstrhyZ5Mb97aZq5WIk4S7G3s09tocdIdqanvyxQeBKeJYqX7jICJKVBF+0BnS6Y2I4hjXsXBtK1XJHoc2Ud6anX229jv0h2NWFmeolfO4OUt5Di2T2VqRi6fm+fD6fR7stFiYKeP5IcZkSsnTRRs1f2o69UR7bBtD17AnM4MtUzXBwyhmoV5mMBpzb6vJfnvAwsyIeiWPNw4JI1WP2aYipzI5yvQ808xiMBrTm0zKtCwDS6rzTSOqZRqpwDK9IjUnVU4a36pB3h/5HHQGtLpD6tUCuvXVO+efSXJNi/Kt3Tb+OKTZGaIJQX/o0djv0Bsod8HTvHTwUAoPoxh/HNIf+kRRjOvYJFLS6Q0Z+UFaz/xZ1yilIlasVm+SUjKeuA+S5PAEwadBCNAQHHSHtLpDoskEyJxlpiZXoSkZfXFWTYDsD3wOusOUrNO5WU89/kTAEVOH0SMbqvRQkWI6p2wcRJTyOeqVIs228jO2ekN6gyL9kU8QRmpCZ85O66RHfTLJpJF90BmwtdfmoKcGrqLrKBvXhIDTFO/RzyWJE0ZjJfDousbibJn+aMxBZ0hjv0thcoyvOjV8Jsk1xcgPGO202Nxt/0kp5qOQUhJLye5B70u9NplI4pRY6v+mD3KSqDZBPCHdZ6+2pFLJ/kjNddInhHwUuq7WprAsVd94k37eH/08JtciD3WHH/21SOuwJFF1k2Op/tTSbJne0KfZHrBX6jMOQjX3y1Tqn6E/3tibfM5JotRML0hl9zCKCUI1CH3WNYexEjJGvrq3kws1bq7t0OoN2dprszxXoeDah1TFrwLHc5bZl4w/l1hHCjFdsUhFD00ISoUcbk6ti9H3fEZ+SBg9mbaCImAYRcgkIY5j/EB5DKc9pEOnmqzyZFlK8ftjbvLp9Sh3v0wja3ruCRFUBFG8C0Llq6yW8lxYnUcTgt2DHvc21bR+XVfT8TXx5FJuQijHSa2U5/SJWb7z3AqXzi+Tz9ncWt/h6t0Gjf3OU1N4UJao3YMenf4IKSW1kouuCQZDn+39Lp3+iHEQPbnjEeOvglzHEZqYLFGmawhNoGkaM+UCS7MV6pUCnd6I7WaXg84gnYI/hVoLY8xea6B8gJbJOAjpTuT56UMoJUSR8hwKIagWXWrlPI5tqnlojymZyaRRG0QxuqEhkRPxIySM4slag6pfFYSRSg8nZI1i9ft8zmJ5voqbs+gNPdYbTYIoxrFN8q49iayThvQjP9NpJtNZz6cmLgxNE3QHHr2BPxloDnv04yQhnExnKeQcFmbKnF6e5cKpBerVIr2hx26rR2/gHf2X+hiOLbmmroTp9HDL1NM1Ex7/mVqWjMnaCtNa5fgZYhQEoOt6Oq1+qsSVCg6rizOcW5kjjGJ2ml02dtv0hn5an0VxMmkXDGjsd3BsK5XqO32PVnc4sUzFRLGqGfdafTRNsFAvs1BXc6mYRB91zDhNGXsjn8HIx7ZMdF1j4AV0+kOG3pggihlPXPVBGKMLbSK4iPTaDF2nUnKplVwsQ08dJpZppnOwpkiSSVRMZJoWxkmCBAo5h0pRzeOaTpmZpsnTfmUycc2P/AABlAoO8zMlFutlLp6aZ2m2kt5/Z7Ls21eJY1lzKV+cgWsrC42ma+hCpLKtmCxPJlEfdJKokStOlIUmjOOJvE2azx8nCE1gmzrFvI3jWGmjVdeU4VbTBO9+cJt2d8jt+zs4lqHW7nOUT7Kx32HnoEe377GyWMPQZ/CDiL43ZuegN3m48whN0B2M2NxrY0/8fstzNQajMdGkvvEnQoA3DjnoDBiMfLxxSNG1aVsmewd9tvYUiTVdI55EzShWvTld04jjiDCMU0EGJCcXaggh6I98inm1EE4QJukbZZJJzRlFSWrHCsIIzw8ZjMb0R/5EJHFYnC1TLeWV7C4e1mdhFKv1GDtq2YKcY00MyRrzMyV2ml2khIPOkN7A/8q/52NJLtexOLsyh22bBEFEIW+na9NNexsCkdqYRn7AYOjTH/l0+x6dgUenN2Loj9WIPxEHpgSMp6PlV3hP03UoDF2jUnBZnq+yujhDpZjDfMRl4Doqrfrh9y7Q7AwYjtT6fwfdIaahJngOvTFCwIm5Cov1ErquM1sr0uwMCMOIxl6Hdm+oZk9LyXytRKmg5nUJAaauk3dsgkAtfba125mkXp66vqLLfK1EpejS2Osw8gMebB9M1jFUEXexXmauVlJzrMYhcZzQG/rK/pRT011KeWVvKhVyapXgoc9ctZiaiqfzthCC5YUqrmMxGPncebBLIiHvWLz64ilmq2pSZbc/olxUU2aQ0O4pVXIw9PGCUC3pFoTkbJMwjLEtk+X5KjnbPPQZf1U4luQqFXJ8991zhRUAABaJSURBVPlVLk4K40Je+eccy8AyzbRPkiSSIIrShmd/OCXXiHZvlD4w/aEaCftDlfIMRmP8IEwVqGmKMZ1Z+2UEOjHRrzUxFRR08q7NbKXI2ZOqaL94aoFq0T3kwTP0yVSSnE2rN2S/rXo1j66t7joqoi/MlKmU1JT32WqBaslNH7ipcGCZBguT6f+mqeP5ATOVPELAbLWYptVIta3rWNTKeWbKhdQytb3fUSSQKrpWii6z1WI6l8wyDWYqecI4mfS/oFLMoev5ieqoIphjm1w4tQBAIaccFqahU68UeOnCMkgwJ2mmbeoUXJtK0cV1LEZ+gJSSsyfn0DVF4KnLvljIYYcmjv2wDaHrGvVKgRfOLoGAWukvXy/yT8WxfbPk01M5cegvtWH6x6F/Sgn9oVpmbGtPuR7ubx+w3jhgc7etUiBPFf9RHKdrPMSP5PR/CaZ9KmNiQi3mc5xcqPHKt1b421fO88LZJebr5aeqZ4c/h8P3d+jTeMqOT27/5PE/f3r+4e3lwx2+4DE/+34On/dRI/TTrkek7YDP2l/1Ch650sfq7EPbfw01+LEl15eBMIoJgghvHDL0A0aT+VH9oU+7N6LZGbB70GXnoMdOs8duq0e7N1I1xcSSJB8j2xOPgJj2fES6spKuK9WrXimwNFfh9NIMZ0/OcepEneW5KnPVwmSdPvPPnOgn1VII01Hkrxnpy9+Pn3z1TJPrsxDHysHR6Y/Ybw/Yb/fZbw/Ya/dpdQa0+yP6Q5/haKymOYyDdC3zaCJzi4l0bJr6ZPFLU03fcGwKrjLPzlaLLM2WOTlf5eRibeL5s//yOUaxr5YaCHrIJAD55ztFvvEwy2rpPLPAcSPYXyW5PgvTBVE6k9VrG3tddg667Lf6dAajSa2m7EmqKWpSyNmUCw61cp7ZWpHFepnF2TJztaLyBj4+zfjLwPgARlvI3j21/FwSfPnn+CZAgCicUm/zzJ8kXWfymCAj12NQcv6knxNEBEFEEEWPvMVRppFLExq6rprB5mQt9kd7b4/Pkv3SkIST6OUhZTRJEf8KIVCrbxnuZJGiLHJlyPBXgWPr0MiQ4ZuOjFwZMhwRMnJlyHBEyMiVIcMRISNXhgxHhIxcGTIcETJyZchwRMjIlSHDESEjV4YMR4SMXBkyHBEycmXIcETIyJUhwxEhI1eGDEeEY7mGxpcJmc4mfmj+f3Q55K9yiePHr+NxfB3XBNMXxqnVf6efjaZ9xov/vsCx/tJ7fPQY07+/ru/sL8EzSS4pJXEcMxqNaDabbGxs0G638X0fIQS1Wo2FhQWWlpbI5/NYlnpxwVGi3+9zcHDA1tYWvu8TRWoFWE3TsG2bQqFAvV6nXC7jui6G8dWsbZ4kCffu3ePdd9/l8uXLlEol3njjDV599VVmZ2cxjC/+iPR6PZrNJnt7ewyHw0P36DgOhUKBWq1GpVJ54h4f/c46nQ5bW1scHBwwHA6xLItqtcr8/Dzz8/MUCgUs6/Nfx3sc8MyRS0qJ7/vs7Oxw/fp1bt26xfr6Ov1+nyBQM3aLxSKLi4ucPn2al19+meXlZSqVyl80WsPnj6jdbpdbt27x29/+NiW6pqm33Jumieu6zM7Ocv78eZ577jkWFxfJ5XLoj6+r/gXP90X3kVLS6/W4efMm7733HvV6naWlJV544QWSpyyN/Xlot9vcvHmTy5cvs7e3d+geLctK7/HcuXOcP3+e1dVVbFu92jWKIhqNBnfv3uXatWtsbm7SarXwPA/TNKlWqywvL/Pyyy/zrW99ixMnTvxJ1/Z14JkjV5IktFotfv/73/Pzn/+cDz/8kOFwiG3b6Sg8Go0wDIPFxUX++Z//mb/9278ll8vhOA5CiDQtOfQmjUcetCkJ02XZJr97lJyP7i+EoNPpcOvWLX75y1+yvb3NeDzGcRx0XSeKIoIgwHEc3nzzTX7605/y5ptvMj8/n5Lr0fT28VTp8bd+TPFZ+/ypg8jTzvm0bTqdDjdv3uS//uu/WFtbIwgCbNtO7zGOY2zb5vXXX+fHP/4xlUqFWq0GqKj30Ucf8T//8z+88847jEZqhVzLskiSBMMwqNfr9Pt9yuVyRq6vA51Oh2vXrvEv//Iv3LhxA13Xee2113jhhReYnZ0lSRIuX77M7du32d3d5d/+7d/QNI16vc7c3By6rhOGIUEQYBgGuq7eCDJNcyzLIp/Po+t6msaMx2PiOCaXy2GaJpqmEUURuq5jmiamaR6qQ8rlMrOzs1y6dIlCoUCz2eTmzZtsbm7y4MEDLl++zOrqKoVCAcdxSJKEKIoYj8d4npdGYNu2yeVyWJaFaZqHHvo4jgnDkPF4zGg0Iooi9c6uySBiWdZTo+KjkFKm552meNP7+by0VdM0arUa9XqdCxcuUKvVaDab3L17l7t377K5ucn169e5ePEihmEgpeTKlSv86le/4qOPPkJKycsvv5xGt+FwyGg0QgjBpUuXmJmZ+Usfk68Ezxy5tra2+MMf/sCtW7eIoogLFy7w05/+lIsXLzIzM0OSJKysrPCrX/2K//zP/2RtbY0bN27w3e9+l2KxyHA4ZH19nRs3brCwsEC5XKbT6bCxsYEQgjNnznDx4kWEEGxsbHD79m2azSZRFDEzM0O5XMYwDJrNJouLi5w5c4ZTp04Rxw9XaMrn86ysrPD6668zPz/P7u4uuVyO0WhEGIZprRFFEWEY0uv1uHfvHvfu3WNzcxPPUy8VyOVynDp1Kj1HoVDAMAzCMGR7e5t79+6xtrbG/v4+QRCg6zqVSoWzZ89y5swZlpeXP7OmklKmdeLNmzdptVoYhsGFCxc4deoU9Xr9M8kphCCfz7O6usqrr77KqVOn2N7eJp/P02q1iKKITqdDv99nOBzieR43b97k9u3bDAYDzp49y9tvv82lS5dYXFxMB5U4jpmdnc3I9XVhY2OD69ev0+v1WF5e5tvf/jY/+clPmJmZwXHU+3lXV1eJoohPPvmEu3fv0mg0WFtbY2VlhUajwW9/+1t+/vOfc+7cORYXF9nY2ODTTz8ln8/z9ttvY9s24/GYd999l/fee4/t7W2EECwuLlKtVhFCsLa2xne/+11+/OMfU6/XD5HLMIy07lteXiaXy9FoNCiXy4zHYwzDQJu8fGA0GnH37l3eeecdfvvb33L37l2CQK0+q+s6ly5d4q233uLtt99mdXUVx3Ho9Xp88sknvPvuu/zud79jf3+fMAwxDINCocBrr73GD37wA2zbplarPaHuJUnCeDxOB6pf/vKX7O7uUqvV+Md//Mc0nfu8yGdZFsVikfn5eVZWVrBtm52dHSqVinpVrK6jaRqe57G3t8fa2hoHBwfkcjleeeUVfvSjH3Hx4sW0Jvsm4pkjV7vdZmdnhyAIWFhY4PTp04eEASEEuVyOer3OyZMn2d3dZTQasbOzk0aOOI4JgoDLly+n6Z9t28zPz7O4uMjBwQF37tzhN7/5DTs7O1SrVU6fPo1pmuzv76fF+HA4JJ68WudRjEYjNjY2+N3vfsft27fZ2dnho48+Ymtri+XlZU6fPp1Ghu3tbX7xi1/wm9/8hu3tbRYWFtL0dnNzk5s3b6a1jWEY5HI57t+/zzvvvMPHH39Mt9vl3Llz5PN5wjBM087hcIjrurzyyiuHrk9KSRiGbG1tcf/+fd577z1u377NmTNn+MEPfsAbb7zB0tLS56qIUkoGgwEbGxt8+OGHbG5usrOzw7Vr12g0Gpw8eZITJ06wtLQEQKvVYm9vD8MwmJ2dZXl5mXK5/I1QBD8Pzxy5PM+j3+8TxzH5fJ5yuYyu64fqg6k0XCqVsCyLMAzp9/uEYZi+6G1aZ9VqNd566y1Onz7NmTNnOHfuHNeuXWNjY4Nms8nc3ByvvPIKr7/+Ovl8nsuXL/Puu+/S7Xaf2mMDGAwG3L17l/F4jG3b9Pt9dnd30+h3+vRpqtUqnudx//59Pv30U3q9HvV6nb/7u7/j/PnzJEnClStX+H//7//R6XS4cuUKZ8+exXEcbt26xe3bt4njmOeee46/+Zu/YWlpieFwyK9//WuuX7+eprTLy8v4/sM3gIzHY/b39/nggw/SVPTEiRO8+uqrfP/7309VzD/Wp+r1eul15/N5+v0+7XYbTdNYXFxkZWWFarVKr9djNBoxHA7RNI18Pk+xWHyihvwm4pkjVzJ506KUEsMwPrPwnkrg0/QreuwFcwCO47C6uso//dM/8eKLL6bq3R/+8AeazSZBEHDq1CleffVV3n777TT13NjYYHt7+zPTpqlgsrOzg2mahGFIGIbk83ls206vqdvtsrW1xf7+PoZhcOrUKd566y1eeuklkiShWq2yu7vLnTt3WF9fZ3d3F8uyePDgAXt7e9TrdS5dusQPf/hDTp06Rb/fp9/vs729TavVYnNzk4ODg0M9vn6/z7179/B9n2azSRiGvPTSS7z66qs899xzuK77R3uC0+gXBIF6qYJtp/92HCcVfuI4TlXEKFIv0zMMI/1evul45shlmmb6gAZBgO/7T7x2FFRfxfO8VNWbyuKPErFer6eFf7FYTMkyGo0YjUbEcUy1WqVarabnzOfz1Gq1z+xRAVSrVVZWVnjzzTep1Wq0Wi2uXbvG1atX+fjjjxmPx5TLZTRNo9/v4/s+juNQrVZxXRdd1zEMg1qtRqlUQghBr9djOBymUdjzPAzDoFqtUiwWU0WxXC5TKpXo9XoMBoO0STtFs9nk8uXLJElCsVhMI/b8/Dy5XO4LPfRT9fXkyZN8+9vfZnFxkWazya1bt/jkk0+4cuUKcRxTKpWoVCrpIPgoKf/UHttxxDNHrlKpRL1exzRNWq0W29vbeJ6H4zhpnRAEAZ1Oh52dnfR3MzMzKUGmmBJ1KltPe1uP9pY+z171WWlNLpdjYWGBS5cuceLECQaDAbVajXa7zfr6elrcTwk2Pc6jKev039OHcNq/mv48us+j+z3676dd53S7qeo4ldBXVlaYn58/NMh8FqZ17eLiIi+88ALnz5+n0+lQKpXSmrjRaLC9vU2xWKRQKFAul9nc3KTb7dJsNlN1cPp9fJZ97TjjmSPX7OwsKysrfPLJJ+zt7fHpp59y//59QBFPSkmj0eDevXtsb28TRRGVSoUTJ06kUWGK6YP6OKapjaZp9Ho9Op0Onudh2zbD4ZDBYPC5o++05iuXy9RqNRzHoV6v47puqhBO+2zFYpFcLsdwOKTX66VRSUrJwcEBg8FAvYs4n8dxnNRmlMvlUsm71+tRLpcZDod0u11GI/Vibtd1cRzn0D1O2wTTeqjdbnPlyhVmZ2eZnZ1N67o/FsGm2UCpVEqVxVqtRj6v3pPl+z6+76fWprm5OW7cuEGr1WJtbY3NzU1KpRLFYjHt88VxjGEY6YB33PHMkWt5eZkXXniB9957j52dHT788EOWl5d5/fXXWV5eJkkS3nnnHd577z329vawLIulpSXOnj1LqVT6Ql66Wq1GrVbDMAw2NjZYX19nb2+PKIrY3t5mc3MzFUiehiiKGAwG7O3tIYRgb2+PDz74gM3NTaIool6vY9s21WoVKSXVapX9/X02Nja4f/8+9XqdKIq4ceMGjUaDOI7TNoDruiwuLjIzM4Pnedy9e5f19fU0xVxbW6PZbAIwNzdHrVZLm9IAS0tLvP3227z44ousr6/z61//Om1DVKtV6vU6hmH80Yd7eo/7+/sUCoVULVxfX8f3fWZnZ8nn81QqFXRdZ3V1lXw+z8bGBh999FGqiJ4/fz491mg0SuX9qbPjOOOZI9f8/DwvvfQSP/jBD3j//fdpNpv8x3/8Bx988EEaGRqNBs1mE9d1efPNN3nttdeYm5tLC2lN09B1Pe3FPJqCCCE4ffo0Fy5c4JNPPqHZbPLf//3frK+v4zgOjUaDBw8eHHpgp9A0DcMwaLVafPDBB2nz2PM8Dg4O0sbz9773PVZXVzlx4gSlUokXX3yRbrfL9vY2//qv/8p7771HkiQ0Gg3a7TYnT57kO9/5TtpItiyLO3fucPXqVa5fv06/36dYLBIEAWtrawCcO3eOb33rW8zOztJqtdJ7tm2bYrHIqVOnDkW7vb093n//febn53nxxRdZXFx8IjV71Fp1cHDA+++/z/379ykUCvi+T6vVotlscuLECZ5//vm0sa9pGi+99BLr6+tpi+EXv/gFH3zwQdoXM02TmZkZXn31VRzHycj1daBQKHDmzBl+/OMf47ouV65cYXt7m9u3b6cWnlwux9zcHCsrK/z93/89L7/8chq1bNtO08RSqUS1Wn1CvVpaWkpH9qtXr9Ltdrl+/Trlchnf95FSpg/Z9MeyLEqlEktLSwgh0j6QelmejmVZnD9/nkuXLvHGG2+wsrLCzMwM+Xye1157jTAM+fjjj2k0Guzu7gIq9VpZWeGVV17hu9/9LktLS2mq98YbbyCE4OrVq2xtbRGGIUIIHMfhwoULfO973+P5559nZmYG3/ep1WqpgblWqzEzM0OtViMMQ9rtNg8ePEjVy+Xl5bRGnWJ6j+VymYWFBXzfZzgcpg32aZp4/vx5XnrpJV577TXOnDlDqVQCFNnfeustTNPk97//PZ1Ohzt37hDHMbquU6/XEUIcasYfdzxz5AKYmZnhJz/5CefPn+fq1at8+OGHNBoNBoMBQoiUHK+++ionT56kUCiktVahUEhtO67rcubMmSdUskqlwiuvvEK5XOa9997j3r17jMdjnn/+eQ4ODrh69Sqj0eiQ+lgoFDh58iTf+973aLVaaW9p+sBXq1Wef/55zp8/z8mTJ9O6xrZtfvSjH7G0tMSFCxf48MMP07SuVqvx/e9/nxdffJHTp0+ngozjOPzkJz/h1KlTfPzxx1y9epVer4dt26yurqbEmhK91+tx7tw5giAgn8+nrpFSqUShUEDTNK5evUqr1UprwtFohGVZh6LX9B5feeWVQ/0zIQSu61Kr1bhw4QIXLlxgeXkZ13XT/efn5/nRj37E2bNneemll7hy5QqNRiNtdi8vL3Px4kWef/75b0TUgmf8FUJTEaDT6eD7fjrqTQvtSqVCLpc71AvzPI9er0e320XX9bTWeDR6TWX8fr+fTouYNq3/93//l3//93/nypUr/PCHP+RnP/sZf/M3f4Nt2wRBQLvdTl0gU0wNvlPlbErmRx32g8EgvZfxeAyQigGlUintP00VzGmd0u126fV6qXHXdV0qlQrFYhHHcQAlLrTbbfr9Prqup3K9aZqHfIBBEOC6LuVymXw+j2mahz5vz/PSc47H40OCzjQ6FwqF9B4fVx2nn2uv16PX66Xf2TTqFYtFyuUyjuM8ce7jiGeaXEeFZrNJo9Gg0WikxNB1ndFoxG9+8xveffdd9vb2+Id/+Ad+9rOf8Z3vfCd10mf468EzmRYeNXZ2dvi///s/3nnnHXRdx3VdbNum2WyytbVFp9Nhfn6e1dVVlpaWPrehnOHZRUauPwPTRnWtVqPRaLC3t5emedVqlRdffJHvf//7fOc732FhYSEj1l8pMnL9GahUKjz33HOAShEHg0Ha4JyqZRcvXkx7Oc+CTy7Dn46s5sqQ4YiQDakZMhwRMnJlyHBEyMiVIcMRISNXhgxHhIxcGTIcETJyZchwRMjIlSHDESEjV4YMR4SMXBkyHBEycmXIcETIyJUhwxEhI1eGDEeEjFwZMhwRMnJlyHBEyMiVIcMRISNXhgxHhIxcGTIcEf4/k4Iipv4D/zoAAAAASUVORK5CYII=;" parent="wXUvmhFlW6K3RGWHzzFr-47" vertex="1">
          <mxGeometry x="30" y="16.740000000000066" width="175" height="96.05" as="geometry" />
        </mxCell>
        <UserObject label="https://bcdigitaltrust.info/tools/aries-vcr-orgbook/ &lt;br&gt;what if anything can use from the Digital Trust work ??&amp;nbsp;" link="https://bcdigitaltrust.info/tools/aries-vcr-orgbook/" id="wXUvmhFlW6K3RGWHzzFr-44">
          <mxCell style="text;html=1;align=center;verticalAlign=middle;resizable=0;points=[];autosize=1;strokeColor=none;fillColor=none;fontSize=12;fontColor=#10739E;" parent="wXUvmhFlW6K3RGWHzzFr-47" vertex="1">
            <mxGeometry x="-20" y="-5" width="310" height="30" as="geometry" />
          </mxCell>
        </UserObject>
        <mxCell id="wXUvmhFlW6K3RGWHzzFr-48" value="OpenID Connect" style="shape=image;verticalLabelPosition=bottom;labelBackgroundColor=default;verticalAlign=top;aspect=fixed;imageAspect=0;image=data:image/png,iVBORw0KGgoAAAANSUhEUgAAAGgAAAB/CAYAAAADz4eCAAAQXElEQVR4nO2dW2xUZ37Af+c6M2fuN+PLgI1ZFmJYExLSdClEsLdusm202op9yL5sK+2+JFIrrVRp+9an9qUPKyWq1KrV9oFGVaq0jRq0aVaFFroLSiDcycUYcIxvM56rZ87MOXPO6cN4BhsMAduxj+H8pJHs8fj7vpnf+b7zXf8jOI7j4OFaxPUugMeD8QS5HE+Qy/EEuRxPkMuRH+ZFtm1Tq9WoVqvUajUMw8C2bWzb/rLL53pEUUSWZRRFIRAIEAwG0TQNUVyda/+hBNVqNT766CPOnDnDuXPnmJiYoFwuYxjGqhRiI6NpGvF4nN7eXoaHh9m3bx979+4lFAqtSvrC/cZBjuNgGAZXrlzh/PnzTE9Pe0IeAlVV2bRpE08//TS7du1CVVUEQVh2evetQY1Gg7GxMU6fPs2ZM2dIJBLs2bOHvXv30tfXRzgcxufzLTvjx4VarUahUGBiYoKLFy9y+fJlPv74Y+r1OqFQiC1btuD3+5ed/n1r0O3bt3njjTdQFIVdu3YxPDxMOp1G0zQURUGSpBVdGY8Ltm1jWRaGYaDrOrlcjosXL3LlyhVM0+TVV1+lr69v2ekvWYPGx8e5cOEC5XKZ3bt389xzz9Hb2+vVmCUQRRFRFFEUhWAw2GlZcrkcly5d4tKlSwiCQG9v7/LSX+rJkZERPvjgA9LpNDt37mTr1q2enIfE5/OxdetWduzYQTKZ5OzZs1y/fn3Z6S0p6ObNm1y9epWhoSEGBgaWnfiTzODgIMPDw1y8eJHR0dFlp7NIkOM4WJZFLpdjenqavr4+UqnUigv7JJJOp8lkMkxNTZHNZmk2m8tK5x5BjUaDarWKruvE4/FV688/aYRCIeLxOLquU61Wqdfry0pnkSDLsqhUKgCEw2EkSVp5SZ9gJEkiHA4DUCwWl5XGPfegdlX0utErRxCEzkW+Kk2ch/vwBLkcT5DL8QS5HE+Qy/EEuRxPkMvxBLkcT5DLeag9CRsCu9l6CCKIEgiPxzTVYyPIqedx9DyCEkTwx0ANr3eRVoUNLcgxKlDLYheu42Qv4+h5pP5DkHoKwRO0jthNHKOCUxjFzl7EHv8N9tRZaDYQY1sRolvXu4SrxoYU5BgV7NH3sW68jz1xGowymDpCqBtEBVZp06Ab2JCCaNaxC59hz36CUx4HUUKAVgdBEIHHZ5lkYwqyLRw9D2YVAEH2gW3zOIlpszHbAkFAkJT57vTjVWPuZmMKAlpSHl8xbTawoCcDT5DL2TCdhPaePccBLAtobcq4e2O54zg0LQvHNJHmt+Vu5M0vrhXU3pTePijWbDZpNBqIooxiGPicu+5A8784jo2u16nbFRRJQJZlZFlGFEUkSerspd4ouFJQ+0Tf3Nwcc3NzrZN9uk6tphOOxklrFr20Nq63JQnzPzUti5lcntu1GqLVQFVkNE0jGAwSCoUIhUL4/f4NI8k1gmzb7uzCrFarHTGNRoNGo4FhGNTrDQRJIaYoOI6zRB9OAAcahkGlbGI1qsiSgKqqqKraOaLYFqVpGoIgdI51JpNJFEVZh3d/f9Zd0MLmq1AokMvlKBQK6LqOYRgtEYLQeciSPL8ZcOn7Sus1ErIsYjUcDMOk0WjgOA6iKKKqKsFgkGQySTweRxAECoUC9XqdcDjsCbqbRqNBsVhkYmKCYrFIrVbDcZzOAWVJkvD5fAQCATRNI5FKE1dNxGkB23FwaKlyAEEASZZIhGLYoTCVUoDqXIVarYZpmkBre3O5XEbXdaanpxEEgUajgaqqmKaJbduuav7WTZBlWVSrVXK5HNlslmKxSKPRwJrvoamqiqZphMPhTnPk8/nwBzR8zTzgsPhwoAPztS0U1FB8aeLRII16HV3XKRaLVCqVzgVgGMYiaZIkeYLa2LZNvV4nm80yMTFBLpcD7uxllmWZSCRCMpkklUoRDocXnfN0KmVMWCxo/kcBAb9PJRANQzSMZVnouo4oihiGQbVavafb3f692WxiWRayvO4NS4d1KUn7LOetW7eoVquLrlhVVent7aWrq4tYLNbpIt/Nww5t6vU6hUKBfD7P3NwczWZzUVe7LefOOMtdwb/WVJDjtJqlUqnE1NQU1WoVy7IQRRHbtgmHw6RSKbq7u4lEIis6Hd1GEAQURSESiSCKIrqu02w2O4/2OKt9EHi5pxC+LNZcULtTkMvlsG27cwVLkkQikSCTyRCNRletmVEUhVAohKIoxGIx6vP3pHq9Tr1e73TjJUnqXEBuYk0FWZZFqVSiUqlgGEbnQxEEgWg0SiKRIBqNrurBsXYT6ff7O73DhbMT9XqdWq1Gs9kkEom46v4DayzItu3OccD2ldoen0QiEYLB4Kp/QAsPUS2kXVsCgQChUAjLslAU5ckeB7V7b3e384IgEAwGUVV1zcrSHvi2Zxncypp3+Ns1Z2FXt32Vu2n84RbW9BMRBKFzT1h4M253HtoDR487rKkgURQJBAL3tPO2bTM3N9eZM/O4w5oKkiSJaDS6KOCdIAjYtk2hUKBcLmOapidpAWtegzRNIxqNEolEgDv3pHq9Ti6XY2JiAl3XvWiO88jtmdy1WBZu95pisVhnrae9pNCuRbZtI8sysVgMv9//xMdrECcmJtY8kmIkEiGTyZBKpVBVtTM/ZlkWxWKRkZERxsbGKJVKndntJxV5Pa5QWZYJhUJkMhkURSGbzXbGR7ZtU6lUcBwHXdeJxWJomkYgEED1+VBkBbFzj1pYbgccu/W4ZyvJxkVej5g87aauu7sbWW6tkM7MzHQktWtSqVQin88TiUSIRCKt/QQBDZ+pI5sWQnvZ27HmxTA/zf34NIlye5Z3PRAEgXg8jt/vJxqNks1myefz1Go1bNvGcZzO1NDs7CyKoqL4NTSnQm+xRNQ08GFhm7XWiTpJAdkPorvm01aCvN4RrWRZJhgMIklSR1SlUumERGsvAbT2LRigG9TtEolqiVDTQFCDiKHNEB9E7BpGSO4AX2Rd39Nq4opLrd391jSNZDJJuVymVCpRLpc7NaglyqJpt/Yi2IIMWhei1ofT/TsIvc8jdu1pnRGS3Du39qi4QtBCFs5sd3V1YZrm4jWchonTCBNKvYAa1hCTmyHSD/4Ygqy1DnA9RrhOUHviVJIkVFXFtu3OkoDZbNI0mzjNJJodR/FrCMF468DwY3Kq+25cJ+hu2nvZ7l0SWF6Y442GN7/vcjxBLscT5HI8QS7HE+RyPEEuxxPkcjxBLscT5HI8QS7HE+Ry1m0uzrEMmpUZZks1ZucWbFgUZVBjJBMRkvEAMvNHHOdfX7L81KUIXWGwynnK+VmKBjQXbgIKRPGFE2yO+/HJi69Bu9mgXvicfKVBSZ9/UgmhalF6usIEVAk3Tbuum6BmZYbcydf55bsfcvTU1J0/+FMw8H1+9Mo3+PEPhkkByoLX/6q0g0+i3+S1g5A/fpT//uej/PtNyC38ep6hP2DboSP8zZGn+EpaW5RvvfA51976GW+duM5/Xp1/svsAW/Z9j5+/dpDhTIzol/zeH4V1EZT/9ASfffhrfnW2zGxwD985cpDgfGEa9RpTN/+X0TMN/gE4cng7W+IBJMvELI2Tm00yjoFpQa1Qo1qUSD9zmO3xOBmtCVQZn5pl9vQ/8ffmdzn0wjD792YIAaVPT/Dx2f/irdEk1pZ+juxKtgrUtBACI/z22k4kfOzPBNbjY1mStRXkWNCs8Pm5E5z8j3/jXfnHfO+Pfp+fLqgpteynXHvrVf7x5GneHomye6iHaCRAYskEI4QSX+PAj/6U57+2ld9NmECOi2//He+9+Ta/fLNJTVDp+2oP2+VWvr85doz/2/znvPKdA/zZoS2tZMZOMD5ygdezOlN5A55YQc0K5E5y7aLF+dFv8cO/fpGDz2wjtaAg/niap478hP2f/xb92HnGJl6kv4f7CLobGUix/fB3EcMi4z/7VxpXtnH80j660/P5fnKIH/70WQ483X3n37qfpSs+xGtmmGDAXcvla9uLaxqQu8Gk4XAjuo2tm7vIxAMo3NkoJcp+tPRT9HRJ9IZGmCk0KMw9bAYCoBCIb6dn2z6e3anjV2a4PpalMTHSyjcyyNZNcXrCC0SoYdRwF5lEgHjATV2EtRZkNaFYoKxAtjuBpkjc25hIQBQtYhBJT1GumlRrj5pRAp9/C1t3qYSTJnOVMlZh9gvydSeuX/JeKZFwEDudQpFlwF0nuB+Gta1BkgyxOBET0lN5aqaFfs+LLKBEraxSznYTCSoEtXuTejB5GvVJblxJYFQSbNoUQEkmviBfd7K2gmQFUhm6RJtMbpTRyQKTlYUb9y0so0Jx/CrjMzBpPEVfwk/qEb/K1aiMkvv8I8592kNV7yLTo6D0PCBfS8fQ84zPVChU1vYgwRexxoICkBoiM6DTFz3B0XfOcursgkEqc1RmrnHy9b/lvZuzXD7wbZ7pj7D9EQVNnT3F2XeOciLahz6QYag7QKD7AfnOfcbMZ+/z+psfcHxRedaftb0HCQooPWz7+kEOmwa5s+9x5V9O85f/Mz9gpIZp6uTLw3Tve57fe/ZpBtMaAQmWvq7LzOUvcf7oL7gcj/PefFM4W5llznqBl458i4Nf30aPqqDwgHxrFrYUQRweJNLrrm9eXuNOQquHltn7TULpNEz+Fe9+eJa3Tt55hT+1hYHv/5xXvjHMD4bvTLoIkoISzZAiRSaqokigxTWCMYvsuV9zbYmpnr9YNNXzoHyH6Nl2iJ/8yQBf/crDjbjWinXqxYUId+3l4Gu/YLhmsHiuVEWN9ZCILO4Iy+EuUgdf4w8tP9+enyxNHv5jNu15mRcfMFn6cPkGUHxh0pvjBL+Ed7sS1kmQhKSGiGW2E3vI/xAkFSWWIbXwyXg3gXg3m77EfNcbbz3I5XiCXI4nyOV4glyOJ8jleIJcjifI5XiCXM4iQYIg4PP5ADAMwwtotEJs2+6E2VluBONFgtrx3NpR2A3DeOJj5SyXdphn0zSRJIlgcHmTSEsKCofDBAIBZmdnKZfLq1LgJ41yuczs7Gzn89S0R151BJa4B4miSE9PD/39/Vy/fp3JyckVF/ZJZHJykuvXr9Pf309PT8+y4yEt2UkYGBhg9+7djIyMcOPGDer1unc/ekjakY1v3LjByMgIu3fvZmBgYNnpLSlo586d7N+/n8nJSa5evcqtW7fWPKbcRsUwDG7dusXVq1eZnJxk//797Ny5c9npCc4SAUJt2yabzXLs2DFu376Noijs2bOHgYEBNm3aRCQSWfMQZm6m2WxSLBaZmZlhbGyMCxcuYJomfX19vPTSS6TT6WVHFFtSUDvTfD7PO++8w/HjxxkcHGTbtm309/eTSCRcF0J/PTFNk2w2y9jYGDdv3mR0dJTDhw/z8ssvr/izuq+g9te1zM7OMjo6yqlTpzrNXT6fd923hKwniqKQTqfZsmULO3bs4MCBAwwODpJMJlccc/W+attByNPpdGeQtXnzZqanp6lUKt74aAGyLBONRunq6mLz5s0MDQ0RDodXJVDifWuQhzvw5uJcjifI5XiCXI4nyOV4glyOJ8jleIJcjifI5XiCXI4nyOV4glyOJ8jleIJcjifI5XiCXM7/A6zqLtG49XuhAAAAAElFTkSuQmCC;" parent="1" vertex="1">
          <mxGeometry x="510" y="275.01" width="104" height="127" as="geometry" />
        </mxCell>
        <mxCell id="wXUvmhFlW6K3RGWHzzFr-50" value="FOM &#xa;NROGS&#xa;etc.&#xa;" style="shape=image;verticalLabelPosition=bottom;labelBackgroundColor=default;verticalAlign=top;aspect=fixed;imageAspect=0;image=data:image/png,iVBORw0KGgoAAAANSUhEUgAAAMoAAACXCAYAAABUdcSBAAAZ/0lEQVR4nO3dWYwbd4Lf8S+LRbKKN9kk+z4ttVunRzPWWNZ4YWs9mJm1Z2NMgARIkIcNEATJPCUPQV6CvGTfgrwGecn5sEFmkwftYCazWtjrGTtaa8eSJcu6WlZ3qy/1we7mWawq1pGHJmnJaknsbrKbrf5/AAG2SbHKRf7qf9b/73Fd10UQhOeS9vsEBOEgEEERhCaIoAhCE0RQBKEJIiiC0AQRFEFoggiKIDRBBEUQmiDv5cGWlpZYWFhA0zQWFhYa/2zb9l6ehvAS8ng8+P1+BgcHGRgYAGBkZISRkZHWfH67RuZt26ZQKDA9Pc3XX3/N8vIyxWKRarXaeI+YFCC0msfjeeKfVVWlu7u7EZqenh78fv+2P7flJYrjOJRKJdbW1pibm+PGjRvcuHGDmZkZZFkmGo2iqiqZTIZMJoOiKEiSqAEKu2dZFo8ePWJ5eRnYrMHkcjlGRkY4fvw4a2trTExM0N3dTTQaxev1PhGs52lpieI4DpVKhcuXL/Phhx9y9+5dhoaGeO211xgZGSGVShGJRPB4PPh8PmRZFiERWqparTZqLbquk8vlmJmZ4fbt28zMzKAoChcuXODdd98lmUwiy82VFS0Liq7rLC8v88knn7C4uIhpmkQiEUZHRzly5Ag9PT2Ew+EdFXuCsBOO46DrOktLS8zMzDAzM8Py8jK2bdPV1cX58+cZHh4mHo+/8LN2XfVyXRfTNFlYWODmzZv87ne/o7e3lzfffJM333yTWCy220MIwo5IkkQwGGRsbIyxsTE0TePu3bt8+OGHXLlyBb/fj+u6jI+Pv7AJsOugmKbJ4uIiv/71r7l27RrvvfceJ06coL+/n3A4vNuPF4SWURSFiYkJUqkU9+/f55e//CWlUgnHcZiYmCAYDD7z7+4qKKZpsrS0xG9+8xuKxSLnzp3jO9/5Dv39/c89qCDsh3oJ09fXRyAQaPTKfvzxx/h8PoaHh4lGo1v/3d0ceHV1lVu3bnHt2jXS6TQ/+9nPGB0dFSEROposy2QyGd5//30GBwd58OAB165dY25uDtu2txy22FWJcvnyZS5dusRbb73F66+/TjKZxOv17uYjBWFP1Htez58/TygU4he/+AWmadLX19foOn7cjkoUwzC4f/8+c3NzOI7DsWPHGBwcRJblpvulBWG/eTwe0uk0R48epbe3l9XVVT7//HPK5fJT791RiVIqlfjss88oFouMj48zNDT0zLqd0Fqu6+K6Lo7rwiGe2eDxeJ74s1N+v590Os25c+e4efMmn376KePj44RCoSdKlR0FJZfLcfHiRU6dOsUHH3zQVD+0sHuu62JZFqZpYprmZlgOKdnrxefz4fP58Hq9uxq4DofDnD9/npmZGS5fvszs7CzRaJREIvHN8bb7oblcjoWFBSqVCrFYjKGhoR0PIjqO0/jSq9UqtuN0/PwvyePBK8sE/H4CgcC2pkHslG3bWJaFpmkYtWtlWVbHX6t2kiQJ2ettfBeKoux4OpTX6yWZTNLd3U0kEmFqaop0Or27oCwvLzM9PU06naanp2fHPVyO41CtVikWi2iahm4YVKvVjv/yJUnC7/cTDoUIh8OoqtrWsNQHdMuaRj6fxzAMMdv6MR6PB1VRGmN29ZvXdj/D6/XS19fH8PAwDx48YHBwkImJicZ7th2/ubk5JicnGR8fZ3BwcLt/vcGsVimWSuTyecqadiBCAt+Ugrl8nuzaGoZh4DhOW45VD0m+UCCbzaLretuOdVC5rotuGOTyeVazWUql0o5/Rz09PYyMjDAzM8PS0tITr207KOvr6ywvL9Pd3f1E0bRdpmmi1QLyrL7rTuU4TqOtoOs6lmW1/Bj19kihWKRcLlOtVnEOQNV0P9RrJ5qmUS6XqVQqO7qhJJNJenp6WFpaYn19/YnXtl31KpVKbGxskEgkiEQi2z6ZOsuyMAyjqS9ekqTGn7ZyXVw2L3wzP0rHcTBrQW+1eslVLBbRdf2p1+u9PYdx9nWj5++xMNRvLFqlgizL+Hy+bV+bSCRCMpkkl8tRLBZxXbdRpd52UMrlMoVCgWg0uqsReLfJH6MkSaiKQjAYJBAI7Ph4zbIdB03TqFQqTVUH619aq1mWRUXXN8/hW3dHj8eDLMsEAoFDORvbcRwMw9iy2msYBkWPh2gshm+bn+uvddDYtt2Yru/z+Tav93ZPslKpUCqVGg3ZnXJ58ROO9YZzLBZDVdWmnx3YDcd1kWUZryRRKBZfWK1ya6VQq1m1L8txnCc+vz6iHI/FCCjKnlyTTuPWgqLVfouPl+iO42Bb1uaPXJa31bCvX1tVVXFdl3K53Bil3/ZVNk2TSqWCqqptv8NLkoTf5yMSiezpndMrSXiA0hYjtHvFsW2sLUo0ryQRCASIx+N7UsJ2KkVR8Pl8VCqVp6q+rututn39/m33gNUnTgJomkY4HN4cp9nuCdq2jW3bux7kado+TInZ7WhvK9SL/28Hxef3E1RVpEM+p06WZfx+/5bfkwvYltXSHsIdldv1Rk67f0z13oxybaWWvZpwaRgGmqbta1fss9o+kiRtjtvswzl1Eo/Hg6dW8m+l1W3Hjq7gPt7zUzVNfL7tNs+2zwX0SmXfg/JcYuLpnuvooMA3q7pomrYn1aHHux47NijCnuv4oLiu22gXCcJ+OXyjVYKwAyIogtCEjqp6SbUxAqU2kLbfXbQA1Nor1WoVXdcxTHO/z0jYBx0TlPq0jHA4TCwWI+D3d8Q8pvocIl3XyeXzVFvcPy8cDPv/S6yRJIlQMEgoGOyYkMA3AQ4GgwRVtaPOTdg7HfON1+fZ7NmI/zbUH+yRZRmvLB/6wb7DqGN+ka1YKKDdGtPaO/gchfbomKAIQicTQRGEJoigCEITRFAEoQkiKILQBBEUQWiCCIogNEEERRCaIIIiCE0QQRGEJoigCEITRFAEoQkiKILQBBEUQWiCCIogNEEERRCaIIIiCE0QQRGEJoigCEITRFA6lOu62I4DYs/Gbatfu1auZi+C0qFs26Zqmjjf+rLbtRXegfSM3c5c18U0jJZuQiuC0qF0XadUKj212F591crDHpbn7TZg2zbFUmnLTWJ3qmNWihSeVF/C1R8IPLHOWbVaRa9UKGsayrdeO0xM06SsaThb7HJQ3wFh33fcEtrPtu0ttxe3bZuKriPXNlc6lJudui66rqNVKpvtuG+95rpuy9t2h+8qHxCWZWGa5pZVLMdxKBaLlMvljl4wsC1q7ZJnbfZk2zaWZbV8G0MRlA4le714vV4K+TyhUAi1tlMtiM2VnqeQz1MulxkaGmrpVoaHs4J7AAQCAZRAgGw2Sy6fx7KsQ9+Afx6ntvf82toaqysrKIqCqqot+3xRonQoNRgkGAqxeucOFU3DJ8vEE4lD2SZ5Edd1MQyDhYUFVlZWkL1ewuEwiqK07BjiqneocDhMOp0mEolQKpWYnp4mmc8TjcUIh0LIHbry/16xLIuqaWJZFoVCgfX1ddbX1lBVlYGBAYLBYMuujWVZIiidSlVV0uk0Q0NDTE5OsriwQD6XI5VKkezqIqAo+Hw+5BY3Wg8KwzDQKxUMw2BlZYVsNoskSfQPDHB0fJxAILDrY9i2zfr6OoVCQQSlk6mqyvETJzCrVQqFAuVyGU3TWFxcRJKkzR6vw9brVePWerxc16VarSLLMsPDwxw5coT+/n78fv+uj5HP5/niiy/49NNPRVA6mdfrJR6Pc/ToUfw+H4uLi6ysrJDL5Ro/ksNMkiQURaGnt5fe3l5GRkbo6+trSWkC4PP5yGQyRKNREZROVt+FbGhoiHQ6zczMDNNTUywsLGCaZstHnw8Sr9eL3+8nGo0yMjrK6Ogo6XS6pV3Cqqpy8uRJDMMQQTkIJElCVVXGxsYY6O9HNww0TaNSq6MfRuFwmEgkgs/nIxAIEAgEWt4j6PV6SSaTvP322yIoB0U9LKqqEnVdTNOkWq1SrVb3+9T2haIoBNo8161eogeDQRGUg6A+f8l13c1p966LR5Lw+/0tabQeVPXZCfW9PxsdHG0ggnIA2I5D1TTRDQOzNnYgHuh6bLdmnw+fz4eqKMiy3JawdExQXMfBrFY7ev6SZdt7+iyI4zjohkFF06joOtXa9Wlco0MelnopItW2Ntf8foLBIEFVxev1tjQwHRMUpzYNQTeMzWcwOmh8oD5T1ajd0fciKK7rYlkWxWKRYrFIpVJp+zEPsnporGoVyeNBrYWlVTonKI6Druub83Z0ve0Nte2cl23b6IaBoet7Nn5RrVYpaxrFYvHQ9mxtR/1mVtY0XMDv97+cQYFvZoDWf5gd8axF7QuoWha2be9Ztav+JGO1Wj20YyXbVR+lNwwDwzCQJKllXcYdFRTYDItpmpimuavPqfeE1H/YB20U27Is9FoJdhA02guShGfzP7TnQC94cKteZTVNE7/f//IGpRU8Hg+yLCPLMo7jYNVKg4PEtm2qB+QZlHrvU6MhLcu0sy5Qn1ZfqVSoPONm0uoq8ksVFFmW8fv9qKqKvzYN/fHiuKxpe1p92o36HfMgkCSJUChEOBwmqKp70rYMBAL4/X7sWg1kq5JFBGULHo+HgN9PJBIhFovh8/kabRzLsqhUKjiuS6VSael6T+3S+VH+hiRJBFWVoKq29GGp56lXqwrF4p7MTtj/bqUWqFe1wuEw8Xj8iZDA5pwdVVVJJBIEH3v2XGiNdiwP9CL13kjbsvbkuC9FieLxeBrTObaaPdqoQ6sq5XK5pcdux9I4AB7ojF6/JjiOQ6lcbvRa7gXbtjFMc8/acS9NUHy1NsmL3iPXRmxbcXHr7Yh2fFH1JVUPQhXMcRw0TcM0TXx7tISSVVuWaKvSpB3fy/4FpcWNrWY+q9U/6HpHgdWGHrV8Ps+jR4/oSqVa+oxFO+1l9et5jfX6wKOiKC2rau9bUFqZevexaeeO42zZ6+I4DoZpYrZwrlY9KO3oei4Wi6wsLxMKhw/MIhKdsIC4ruubi0HI8suxmr3Twu7PelDqs2u/3QVcX9i6VCq1tA7dzqAYuk4+n6eQz1OpVA5Mt/Z+qQ9U53M51rJZcN2W3lz2Lyi2jdWiu3u9dCqVSqytr2MYxhMhNAyDQqFAPp9vbVAcB0PXsdrQPRkIBPD5fExPTzM/P4+maQdmXGWv1W+Uq8vLzD58yOLiYuNR4VbZt6pXpVIhl8sRrj3OudsJbPW7e7m2VYJPlvHU7iiPz/9p1Y/NMAx0XcfQdZLJZEs+83GRaJRUKsXU1BSL8/OUS6W2PfJ6kNm1Rx8Mw6BULGKaJrF4nFAw2NK23b5dcV3XyeVyVC0LVVUJ+P14WvCEWgUoFIutOckt1EuvQqFAqVjE4/Hsel7aVhKJBP0DAzx69Ii1tbXGulWKouzZoF6nc12XqmVhGAZWtYrX6yWTydDX20soHG7pDWXfglL/gS3cu4evNliotHB1v3axbZtyqUQhn8eybYaHh1u+cjpAPB5nbGyMcrnM5L17LCwsNB5FaEcwDyK3PkHScRpLO42Pj3Py1KmWDyzvW1Ci0SjpdJr5uTkKhkGpVMLn93f8IJvjOJi1ToNQKERPTw+xWKzlx5FlmVg0yvj4OOFwmP6BAcrlcuPuKXwzQzygKETCYVLpNAP9/SQSiZdn24dEIsHQ0BCzDx+SzWYxTfPAPMXnlWVC4TA93d0MDQ62JSgAPr+f/v5+UqkU5XKZ9fV1yi3uuTvQPB68krQ5dSmRIJlMtm3Mad+CoigKfX19vP3228wvLPDo0SOKhULHT1iUfT7i8TgDAwMMDg7S1dXV9pVQ6k/rhUIh0U38LR5Aqu0l085Ojn0LSr1h2tvbSzAYJJPJYOj6U1uNdRqvJKEGgyQSCWKxWNtW/Xjc48/XCPtjX6+8JEkoqoqiqnT39OznqQjCc3V2F5MgdAgRFEFoggiKIDRBBEUQmiCCIghNEEERhCaIoAhCE8QIVtuZwBKTH3/OjSuzTI29xRuvjfHOeOun5gvtI4LSZq6tYRWvc/Pj/82f/Zcv+ewk/NN/rPL98SQKokg/KMT31GZWsUD2k79iwTbYOPka/V9NU51a4A6g7/fJCU0TJUpbVTC0db6+msUK9DN+YRRW/i+UTnBrFkZ6IOiHb6pnCzy4ukz0tTzTS+s8eFAAIPrK9xk+fZ4LR8Mk1DzF1Udc/fMFnOg6Tk+eGzeylEoWcjhJ6rU/4vsT/ZwZUPfzf/ylI4LSTnaeSmmZW/cDSK9P8Ob5Y8gP/oxJlrl+W+NCTKHLL7EZlIfc++0n/OV/uk7yT+Dewiq3ri0DOqHxDSZW0rySPIbSu0Zx5Ut++x//mtJgDvcNg8sfzlPYKCJH0sSmu3D/+Dyj3SNEZPB29uM9B4YISjuVHqFlZ7huvcqR0ARnx4ZJ/dFbPJgM8tlXdyifOQaxx5/Em0bjHrP8Ky78vVf5t/8a4C7/7398xY3/8z/5m+/+CzwRSFECPmOOt1AH/iF/+h+idIcWyD68zV/8u79iJenjk9Mj/EEK4gdjSbCOJ4LSRpWVeTbm7pMfPIvSO8hgLEb4zBn67szS9ftPuPvuAOFokG9qSXGU4BEmTp/g1JkJTgx4gW4Kr0xSuH2VR7kK2ZKHFH5ggJ6BVxn5/ilOHA3TrQ6wpvp4OHiROc8801l4Iw6IoLTEthvzkiTh9Xr3fFHmg8UBNNYeTjN9/SsKPp2N0irz96e4W/RgzT0kfuMTfj+1wYP842uC9RFUT/P66W6GB1TADwyR6pUZenWJslmlrAGowHGGB8b43ukYIdULJAkovYyeWCcYL7CRA+tgbQnT0bZdogQCAYLBIJqmoeu6WB1+Szpwh3s3bvGX/+1vuMk9rgcV/pfqAXSKK0UsXx9Hby9yfKwXelq/OIXQWtsOiqIohEIhyuWyCMqzmBVYusWDnI/bmXf58YWjJBNBGldq7R4buRx//XCOh/OD5M/0EgZgEa0yxedfLpOMJTjaC5Tu83CqwPV7PQTe8hEK1j6f2zycH8TzZZ7xo2HCPKK8fIerX8ZYPRmlJw6yyN+22bZNsbbcVTQabawKtO2gqKr6RIkiPM2paOi3r7NgR8m/+Yf8g395ge8NJ2gsQTF7ibtXPuRv/+s0q3MjPKr2MiID5NC1r5n/8ha9YYvebBWyv+P6ZIV7xdd5JxEkFa5AzgTmWZq/R/5vb3Jaj5K1brF09yq/Xxyn5/QwoynwixbottSXZdU0DUmSiEQijdd2VPV6vEQRnqbrZe589RlVzxsc+c5x+oJqrcSo6eknNDbGuaXfoswc5Xb2e3SnAEYJkuc7/AWf/fkq//nqElhF+s79CWf++T/j3WMZRsMP2SAMnGOQLO78v+ff/Pd5CtkcarybsZ/+Kd/74Rn+IAUREZRt0XUdTdMIBoMEAoEnXtv2pUwmk/T09LC0tMT6+jpjY2MtO9GXhRzsIv36P+IPnVFeT/XSHfbxRC3I30t86Bx/55/EcEZfJRUERQJQ8QX7GDh9hNSJKsdf2Rxw7D31NuOvDzAYB9ULG3iBKPGBAXrf6iYZyVItWSixNGNvneK1sYToFt6B9fV1lpaW6OnpeWqZ3G0Hpbu7e3M9rtlZlpeXW3aSLxN/JM3QOz9n6JnvSBJJJ3nn56/V/r3UeMWrJoif/rucOdHH0RccJzhwhqM//GP+/g95ssQSdmRlZYW5uTkGBwfJZDJPvLbt7uGhoSFeffVV7t27x9zcXMtOUhD229LSEg8fPmR4eJieb60KtO0SJRaL0d/fTyQSIZfLMT09TV9f31N1OmE7/MAwr74tE0gb9GcidD3zvV1EMid4++dxAsdH6K/9bWHn6ms6z8/PMz8/z4ULFxgYGHjiPTvqHk6n00xMTGAYBlevXiUej4ug7MrmwOL4O0OMv/Oi99arbSf24LwOB9M0mZ2dZWVlBYAjR47Q3d39xHt2NM0+Go3yox/9CIBLly5RKBR2eaqCsH9yuRwXL17Etm1++tOf0tXV9dSuCjsKiqIojI+PMzg4iCRJXL9+ndnZ2ZactCDspWw2y+TkJLOzs3R1dfHGG28QiUSeWiZ3Rz3tsiyTSqU4fvw4GxsbfPHFFyiKQiqVQlGUjt/jRBDq29lNTU3x5ZdfoqoqY2NjHD26dV/jrn7Rp06d4t1332VtbY2bN29y9+5dMQgpHAimabK4uMiVK1e4fv067733HmfPnn3m+z3uLvcQ2NjY4KOPPmJ6ehrbtvnud7/LsWPHnuo1EIROkc1mmZqa4sqVK5TLZbq7u/nxj39MJpN55o4Bu57kEIvF+MlPfsKvfvUrPvroI6rVKqZp4rou8XgcRVHatrmLIDTLtm1M0ySXyzE5OcnNmze5ceMGP/jBD3j//fdJJpPP3VZj1yUKbPZD5/N5pqenuXTpEjMzM/j9fj744ANOnjz5VFebIOy1YrHI1NQUFy9eZHFxkXA4zHvvvcfExASZTAav1/vcfW5aEpS6UqnEjRs3uHPnDgsLCwBEIhEymUxjd6pEIkEmkxGljNA21WqV9fV18vk8GxsbLC4u8ujRI9bX17Ftm66uLsbGxjh79iyJRKKpDZpaGpS65eVlvvrqKy5evMjS0hI+n4/x8XH6+vro7u5mYGBADFAKbWOaZmPb8ZWVFR48eEA2m0VVVd5//33Onj3L6Ojotj6zLUGpVquNfeTn5+eZnp5mcnKSxcVFlpeXmZ+fFxt2Cm3j9/vp7e2lq6uLTCbDK6+8wpEjRxgeHiaVShEKhbZ9o25LUB5XKBRYXV1lbm6ObDbLxsYGq6urVMUW0EKbyLJMV1cX0WiURCJBX19fIziSJO1oz822B0UQXgZiCF0QmiCCIghNEEERhCaIoAhCE0RQBKEJIiiC0AQRFEFoggiKIDRBBEUQmiCCIghNEEERhCaIoAhCE0RQBKEJ/x+AUpI24uJ/UAAAAABJRU5ErkJggg==;" parent="1" vertex="1">
          <mxGeometry x="59" y="485.9" width="162" height="121.1" as="geometry" />
        </mxCell>
        <mxCell id="PTJRQVvbIerqqaXg6TyO-5" value="Users" style="strokeColor=#dddddd;shadow=1;strokeWidth=1;rounded=1;absoluteArcSize=1;arcSize=2;labelPosition=center;verticalLabelPosition=middle;align=center;verticalAlign=bottom;spacingLeft=0;fontColor=#999999;fontSize=12;whiteSpace=wrap;spacingBottom=2;" parent="1" vertex="1">
          <mxGeometry x="50" y="426.21" width="70" height="85" as="geometry" />
        </mxCell>
        <mxCell id="PTJRQVvbIerqqaXg6TyO-6" value="" style="sketch=0;dashed=0;connectable=0;html=1;fillColor=#757575;strokeColor=none;shape=mxgraph.gcp2.users;part=1;" parent="PTJRQVvbIerqqaXg6TyO-5" vertex="1">
          <mxGeometry x="0.5" width="50" height="31.5" relative="1" as="geometry">
            <mxPoint x="-25" y="19.25" as="offset" />
          </mxGeometry>
        </mxCell>
        <mxCell id="wXUvmhFlW6K3RGWHzzFr-57" value="" style="edgeStyle=orthogonalEdgeStyle;rounded=0;orthogonalLoop=1;jettySize=auto;html=1;fontSize=12;fontColor=#10739E;startArrow=classic;startFill=0;" parent="1" source="wXUvmhFlW6K3RGWHzzFr-56" target="wXUvmhFlW6K3RGWHzzFr-2" edge="1">
          <mxGeometry relative="1" as="geometry" />
        </mxCell>
        <mxCell id="wXUvmhFlW6K3RGWHzzFr-56" value="Forest Access Management &lt;br&gt;(FAM) GUI" style="verticalLabelPosition=bottom;html=1;verticalAlign=top;strokeWidth=1;align=center;outlineConnect=0;dashed=0;outlineConnect=0;shape=mxgraph.aws3d.application;fillColor=#4286c5;strokeColor=#57A2D8;aspect=fixed;labelBackgroundColor=none;fontSize=12;fontColor=#10739E;" parent="1" vertex="1">
          <mxGeometry x="810" y="211.2" width="62" height="68.8" as="geometry" />
        </mxCell>
        <mxCell id="wXUvmhFlW6K3RGWHzzFr-62" value="" style="shape=image;verticalLabelPosition=bottom;labelBackgroundColor=default;verticalAlign=top;aspect=fixed;imageAspect=0;image=data:image/png,iVBORw0KGgoAAAANSUhEUgAAAz0AAAFjCAYAAAAXc2XbAAAgAElEQVR4nOx9eZxVxbXuV7X36dNMzdiMDaINAo0aQY0MRjFGxSRgBockDrlRkxeJuS/gezeK98aYvDjkRjG5EZM43Ax4E8UkinGOikYB4wCoNKi0At2M3TI00N2nz9lV74+qVVV7n32aBkEIqe/3a+g+Zw81rm+tVatWMSmlhIeHh4eHh4eHh4eHx2EKfrAL4OHh4eHh4eHh4eHhcSDhjR4PDw8PDw8PDw8Pj8Ma3ujx8PDw8PDw8PDw8Dis4Y0eDw8PDw8PDw8PD4/DGt7o8fDw8PDw8PDw8PA4rOGNHg8PDw8PDw8PDw+Pwxre6PHw8PDw8PDw8PDwOKzhjR4PDw8PDw8PDw8Pj8Ma3ujx8PDw8PDw8PDw8Dis4Y0eDw8PDw8PDw8PD4/DGt7o8fDw8PDw8PDw8PA4rOGNHg8PDw8PDw8PDw+Pwxre6PHw8PDw8PDw8PDwOKzhjR4PDw8PDw8PDw8Pj8Ma3ujx8PDw8PDw8PDw8DisEXbmos03DjvQ5fDw8PDwOAwxYPY687vnEg8PDw+PfYHLJfsKv9Lj4eHh4eHh4eHh4XFYwxs9Hh4eHh4eHh4eHh6HNbzR4+Hh4eHh4eHh4eFxWMMbPR4eHh4eHh4eHh4ehzW80ePh4eHh4eHh4eHhcVjDGz0eHh4eHh4eHh4eHoc1vNHj4eHh4eHh4eHh4XFYwxs9Hh4eHh4eHh4eHh6HNbzR4+Hh4eHh4eHh4eFxWMMbPR4eHh4eHh4eHh4ehzW80ePh4eHh4eHh4eHhcVjDGz0eHh4eHh4eHh4eHoc1vNHj4eHh4eHh4eHh4XFYwxs9Hh4eHh4eHh4eHh6HNbzR4+Hh4eHh4eHh4eFxWMMbPR4eHh4eHh4eHh4ehzW80ePh4eHh4eHh4eHhcVjDGz0eHh4eHh4eHh4eHoc1vNHj4eHh4eHh4eHh4XFYwxs9Hh4eHh4eHh4eHh6HNbzR4+Hh4eHh4eHh4eFxWCM82AXw+OeC7OhDFv+YFV3o8VEhrZ8Opf5IHUcpOJTK7OHxz4y9kf0lPjqk8Y8sk0r2zSHYL56bPD4MvNFzCKJo0pSaRf9ARoJM+aNUPakeksX//ijQWYHVWRzKfULo7HiLfcxSfz3gkEW/FBeXOb90oFN5eBxy6LTsB/4x5X8nZT/N3UNR9ifL9I8skzrbL8DB4WXPTR77G97oOUSQNApk4nOZmD2MqS8ZDq6R0Bm4wkDqv5P1ccGoHpr10shvf9exMwIr7b17uuZQ7RMgnfBKjTcXjOm+garXR1HHUmVNK6c7fpgu2EetQHl47A32di4m5+ChrETtjfxnTJf/YMh+54+Syiri8m6v63aQZFJakVLH3Ifg5f1ZF89NHgcK3ug5BFBKcKr/WcmlZwaA6xnOGMBp0rFDcBKl1E3I9FJyXWOOEgJ2PxL83gisvQGRd0eG28FER2OO+oX+BmzZDXEzqernEPkBJ5hOjiEm1byQADg7dPvAw6MjpVmUkv0oPQcPtXHu1k9gz7zGII0jj+9B9gP7V/53ytCEVaqFY/XsibMZFK991DIpzaBLXiBZ8bhL3saZtGMMtvyx6/bTCovnJo8DCW/0HGRI/Y87YYjshNR/O9cQsSmDB5BgRqAKRyh/WMMnnZA+3HPc+gkZFxCAXb2SjIExCYG4YHAF7n5d3doLg6yzKz2GvBOC91AQbElSEU6dhYyPO5f8GdOGKAM4Y+BMjTuqZ6qSsh/LS30k3DGUUFaofBIMnEkIGR9DHh6HCjqah9L9LKngmXkYn4P7U4naX/KfHlaK22IGDAO4lrucSSUvU2S/KcuHrGda+wOljU1X1gEAE5Z/SCZJafvR7TOXqwF5wGWSTPzilsf9XjpfCsmUzNefubwstXIRaDIjwxRwfpfxfgH2vnqemzwONLzRcxDhCpfk5I4EECVIgsC10Am4Ep4BTSRIM/kBNemK5tKeJleatE98lbQHmPtliToKZkkvkoAcdCF6j5+MMGxD+/u/QdPSFTEBxcjwkUzVhwSt9uKYdpDWU8ViL+243o6TrlMCiwQ7c56TvIau49rCYQwIqE9Kteu+9AeLf536iGShEl8xGa9zJNV4i4T9m8aclI6XU483ziQCDgQOwUiXXDox9ozhuoc605/CKa8Q6neaI+aZumxqXjCtbEhFOGntVKJMHh4HEq5yRwqcO+/U2I4r0YCVL3aMk5NIj3NSotLQgQyMF6p0mWXaczqS/UiTrWPR/ZNfRXlFOUTzS9j21/vRDitfOICIMWvIOY6tpBcfSDi+Oin73UKm8a9xNtJ7AQgtT5iWJxKOISddeVRaJnEGBGAd99We5Pue+skRrFRGuo1WoQwHaCIgPSMY/nX0Ov5YBNiBtqW/wtb36lX7MyCQqg3cfnJ5mer6YVYdpfnn4HITfeS56fCDN3oOEpIGDwnbgjF4GAqu4SOtAOHa4xJINXFCLhFyJdC4WVZA0ax19wGVLBPiHpTk9+YZzjWipPbqCAWhBa4EIjkUlZ//MXr2019+7ATw9z+F9Vu1MQeAaYlKhpz15FihK+k7zU6uMZb0AlG9TVGZI/jhCNgSAouew/Q76R0SLPYuCS10HYUkYHoVTiDutXT6x31Tsuvo+W48sCETGTf6UrvO6XP6PyakJVAQQEEw/b8af9QWdCMHNJlIBJwhI4GIS4RaiAdMIiIi78TYc8kZiV9jY1ATlfpR5SoA6H/VWvSiMYTV2Hrdp9CgyxIyCcl1H3D1Lrf9Y/Hp1C4srlx6eBxQOAYPzbdIqnlISl6k5yeBFKeAMYQciJiS/YFUMjMiJTCh3JWcf4m515Hsp+cw4cibPch+BidSQSoeYOf+DJXjRuirzkV5t8V490/1al5yiQDMyFqSO+7qFmOOFx9W3ggqUydkv1tGVw6Sgk2ca58jtUKt5Isg55tkiKDqVZAMPf/lDQw8skLf1Yxdjx2H9xepcoccCJnmD665wmknt7zmvdQvybYtZfg4/Ez9KcDM7zFHnVQ3mJAxXIEBF/47upWrR/UYNQKF//cVbIVqZNcQBRltRp4yo7wz5jj69sLwcYfSweQmGtfURsk+KMVNYi+4CZqT0riJyuS56cDAGz0HAdL5P+bNEEBeT+5w3P9B1Qnnosfg/gjLsuZekWtGfuNr2FF7N7a8uAh5TlqvBOcqPIAxCe7OIOfFJJSAYkVbCUYtAGXRrdbASLqn9NK3kSeOkk6CQ0KaFSwhxyModx/QE7wKyDeqUnEtsZUQJZJTDw9cj5leDXLrImWKSJBkLEpTLhOXjbjBU5BAZZrAAikczvMn/Q9GnzMJgf4zeu9HWHHvXeBgiJhaiQuY8lpyEFk4gk1bXWS8UJdJSQpJIszCtKu0AlFLZLqH6TZICkjykLpES95JRSY/xpE/uBB2pCVQaEZ74+toeuFWrHntLYQcKAQSGcEgtNGtPKFS9xqKBlhs7NFYghm+6veU0BIp3LliFUORuDAqMLQzgHOJiDNkpITgAJdckaFLwE55yAg6VPdFeBxeIJmYNHjyWrnL956Evp+4Cn2PPgbZHhXgtHRfyKGwux4tdU9g6+JbsX2DRIYxSKkMfClIdpaefyRvjMyBqwTbuZd05MQcNEwaDzt5vKQju4C47Kd5SgZF9y49Y+3Bu45HXqgVBRZxFLRCTXKE6wIrJVsbH8QLJE8kINNmbIl5TqBwLitXfowjbnDkYOP9WH77d8EZQ6hliwDAODP1jQBEwjopXUSCobUAhAwQXEIEDJIpw44zCaHrEWtsKq8rhMiwS+63cXlA/028Qk45IZVRJqDGmlHireWjrx0AXuY8vKwnuADaVS+pfT36XdT+pl9I/2BKB+Ha0cedOuxJnrr2yP7iJskVBxA3mTHbATcB8f3R5DxIC3vcV24SUnEmS+Mm4B9mz94/IrzRc7AgLdm4Bk97dDoGfP3HGDC8MvU2nq1Advjp6D/8dPTofSRqFzAgkJACCCWD4HaCkCePJouZQHrSM3IH6SlEBoBbNl3UmKeM6Ycxfb0rl4smJCnwYBCC4nIXoPHN/4UuJ49FwIFCw+PY+CpDDgxqLwwD2IUYdd3N6NkDQOP9WHrbdwG9ZB1AGxTcCl8lzLQAgkNsjAweJbSSXkIlsOwSeimBlTOkaxMtCBG/DpKhLc/AtccplMys+JD3y5Au9YdDekxKQ9wkTJNClu4B9WXiHvI8xa7Xg4GbjpFa4SJDjyEvbDhHKsIKlA2agsEXTkTvUTdi+e9+hzYBiICEvUSGM10facaf2w9cF5qTwaO/lMKOP1IGXYWMlAsBuxqaj5SykeynViaRCRSpSM4RajIWDIionZ0xwRJjwsdYexxIuDI1afDkBQNO/AVGf2YqsmnMHGYR9hyBivFXoWLkWKz50WXYbrRKacOvtGBLzj8lC5hzIrklCrNPQn8s7BXqPkdmKYvGkotMzNU02JUUiaZXHkef4ZeiSzmA1hXY+vIC5PTkpNDt8umP4thJYwE0Y+ejx2H1S9rRxZX859qhRMo4FUAkjJrYSoQzz6EVcumUraD7ISlzc5GSuCFXMj103iEhjcGTFwz5xM0iYmjLA2EgUQYGAQlwxTcBj3OzKTMcXpBOB+o9RC5HJ0HyXgqmDR7tbJRfwrB/uwU9HD5VaoDTl/gdmt6eiiFjhoIjh9yqh7E+UrysIi4YcOK9GHfe6cgAaHttOGofhHEGhgJmpY7zRLg9Kz02XKOPQ2rD0XJT+4fkpqAT3ERjhEE7BXWyATVRmXm/CTV129/lJj2GOsNNFOK4L9zkKWrf4Y2egwTrzVACkAyeQd/5BSorS/o0LMQKbHueIS/0JOYcgkuwiDz5zLwHcAwewPHYWNWfBGmE+CZaOPdbRb3Y0KE/3JAJ4x3UF9u4Z4bWBZ/Bpj/bzYlGByYJeNJUdOlhn9tSUAIgZJZ8AinNpkUiByFZbOXACAtmV4kCJ0TCKNrShhQmBWwUMbTBxgpz6HCBBEFKCbRFDFxIBIwjw6XZd8UZj3nviNxdbw49OdYXiU5UbS8tmRsTzAppYcwiBTeenDH6XprY6EgA7UkpXRJZdDn+aox8fx6W/w2IhIQIgVByCKE9tMx6E20ZnLIAynutvY52A7HqA2rLJKlL2DCS9ghFxmkhAnJQ8ykTMERShTeEUpEytTO1vQlDpFDKxOZS8l57eOxXJJVtLf+lXjnuDCm3r38SGwSQgRqsQjBtBLCYx5xg5h8polreGNlP5QGKwqCU19nhADKqtByRWgtLyn5p3kCyGYgER1R7PZZff73Z+6Dkrd3kz9gRqBo+1pRdCIaWAowDKeQqtDtkVC7VBlIUy36qK811d5N7pPvChrWxYqNHMrTmGUIureHG9T4R0CoKQ04A+YihPWn0CIbWSKJMqhU5wRlkoMLcCsJxeNENjML4iMHNDt2YfHf3tLjtHehraRwo/YKhMG4qyhN8Sq3OqINlPdb996lYK5ViTn1MHc8ADDzmGGTcfslDO/m0I1Jw9b9UdxD3FNUTzt/M9pXQI5dCPaNIObg6hzg3CSkhAsVNUro8G1+xsTqCVO3HbESHzcin+JjGi5kbzjVCqGvao+IVv0IE5FicmyIBtdrTATdxBhUiz33ig/0Fb/R8xHC9BG7SgrwAsp+/LmHwNKN52Ty889wDeP+dBvQ57mJUTboAw0fXILP+CbzTCJRxoMAYpKBVF7tRMRkqRMKek9KvJ5ibLIEmrolThSY9bo0diumVjOmwAkUARlF1lHQS4DDfa2VbqDCGQkSfK1Ig4T34uLEwK+2SYbdeQQkZkOFAJlArWxzKky+lJXABVmT0UKyvIU2eUP4FjLcufaVHxdEHWvBITXbxzmVozQMBV4K/IICQc7OszsC0Fym9L6D7gjytKiQh0YeAWTHijJk0qFKq34zCwhxPG2NGuSfDj/orkkogF630bJqPe66bjYJg6PuxK3HCV2bgyP40NivQ96TZaH3uRkSBKnMmlAiZXU0y48BRljiFdXCACVV30qoi3e6R0wbOMDIPIwWlPWLF3rSIoY0BGShjLBMAEeNo54rMyOvIuCpLqOPsBZRxBK5I2nOKx4EEKVEk+wuCIR99HUdNiRs80falWPf8HVj9xEJsr5yIYSdOR/XJZ6Nf5Q5sW/gAIqGVVgCCScUDUA+Xjtww80976wNHySQFMBJWsROy2KHDtFJI3merWFtZ6+47JSXXri4zx2mh6iy1wafKzLQk42D9rkD3gU47REq5Vg4v9ZPhQIFReJuVEG4IEsl+ziRCV/YzQOqVCJtEAmbPSLKzcpHihQwHwgAIhWpHclrmhTKWcgWGtkL89ihS4W0ikBCSQ4QSAhJ5Zh1TzPxDRpw0G92dHrDJFkTcOKX7DN+aDzSfS6CPY6wAik/V9XZ1UOkC6gqh+QRS7V9SDqrz0XuwjUARgmF3XrVxGAChVs5DzkySDRsdAcsFsVrZa5h2iKm6MhSE1Cug+8hNun8ygeJi7jh5oZ2jtgzSOEMDple1nDYmPnadwu4gIV3L6BCJehpukoAQElGouIkLabPOwXIT7dkL9J49CNW2nps+PLzRcxCQSnri2xh+7Ajnqhy2PXUxHv/jSgBqoG99Yx52vDUP7wZV6Nl/nQn5iYTUE3gY+p45G4NOmoQusVjwZrSseQIbH70Gm9fDCbnS/qM+n0PV9KvQd9hQZLq4+4dyRWVveW0Mlv9ZAhf8FZNPUuUVa+/Ai//1BAZ9+WYcUTMCZfSMQjPaNy7Euj/+b2xqYE6YGzDyu+9hcH966mrUf/tsLAcDKqdjzJevxpEjnfC+ARfgrNsvMH/u/vtRePUBIKMNGURD0fes2Rh0Ynq9Nz16DbZs0MYS1x46kFcnnnknfaVHeWnUhmEyGpylbupXCeQEAxdAyBkKfCyGfekGHDFmLMq6ZOOx+c0rsHPlE9j00l3YtdU1esai77SrMeiYE2Lx/KK1EW1rH0b9Qzei8QMd5seVr3X41e+jshIAmrHj0Y/hrYVDMehLd6KqZizKugBoXYQNP/wKtkoV20z3CUgUJNPhbUkDDmgtMBQEw7pXf4F19f1xyY8vQiVtYOpVg8EFhgbBIEP1nPCIi3H0Zy9Bv6qhCLNZGkQo7FyN7X+/C+ueehit3N2PpV4kJUd24s0YPvEcdO9dAU5SqdCM9o2LsfmFG7Fm6TrdV8rjmi9a6WEQeYYcV6ECYQB0/cTtqJkyBT0qnGeKHETrFuyufw7b/3Y3tq5Zh4xUsd8AAK6918x6yz3JeOwPpDq8tMwpv+BSVHRxLv7gSbx8+7ewZosafXzLYjQ8sRibnroGmQFD0WsrIAPlOWZCeYtRdSmO/PQl6FNi/q196mHkuTKUAmYdTF0m3o6jPnE6uvWM7x8SSa/C7sV4/8bLsOHUeZg4XRtoW5/E8ht/hMz0H2D4CRPRtZvz3qbF2PT09ViztF4rvEr2Ruc/hdM+brlu15JqvPA/yhFTceocjPvMdHQ3MXgV6PO593Dm5/SfrYux+rqLsTGQqg5g6H7KzRg24Rz06FMsO7b87UY0LFuHMFCyP5IMGS4RSkBoQa7Cy5kyxqLiFea2iCEEQxRIZKREng1D1VfmYhjJVwBi12psfnkuXtnaiONQYe4V2hiSkkEGSnaFo67AEVMvQd+hQxE6cqmwfQW2Pn893ln0VsxgwCn34YTP6r2j257AWzfeiGDaD3BEqfZetg7k/hR9z8Xw867GkBEOn/aP8+muJdV48fcAY5fjxJtmoy+Nw9bFqP23i1EHhi4nXIvjp12CfrZq6H7yezj7ZPprNdZ/5x6U//Am9KUVJTRi2/0n453XKQJAydLseU/j2BNs/+ff+S5W/fZ+s0eXIiki4qaoeG9rZ7hpvV5dK0gg7H8uhn/m6xhQ7egnAMTu1Wh+63dY88ffogW0amWz9AkwyCGXYtjUS9B76FC7v9qZV+89+TDaYPWIvE5EYmG5SXAgCoAex87GqDPPRc/KSjsGoHg+t2ERti29C1uWvoUM1yzEoRwOxE3SRyLsK7zRc5BAqzFEevkpp6Obu8jT+CRefXAlClIN7ECTgPLI1KOtSSnWQrt6or7n4uiv3oL+A1NC48IKdB1xAapnnI6eT5yHNxfW6wxpEuj7DRw7YzZ6dSu+jWeLn8UC5XVz46Z5//E4esYlGHhURfzisAJlQ6djxNcrIeZcjLUf2ICIIoVVMOQhMe6KORg+eA9tJzhyBYmIA0Gf6RjztY7rfZSu98oX6hFpzz4pukzHsxeEXe2JGz0MImLIM+jNh8xsOkwuYQOK4DgDInkaxs2ei2ED0sqVRdhnPHpPHotg591Y9lftsex3KUZfPhv9+hXfw7tUouvoKzDq6ino/uuzsGql9djaclSgbMjpqPzG7ThqpNMXgqE9YsgDJpCdQ2eGojCClFj2toIO95MMbH0DWnIAulKBAFlgaAuUt7Tvp+fhpKkTkeWJh/Aswp5j0e/M29Gr5gSs+Mn12BFYD6yUx6Lqm/fiiOqUPWxhBcqGno2hF01Er6HfweI/Pa+8kdCbhhOXR0KFlwguUXnxUzh5YjWSxQHPgncbih6jL0W3bCM2/uLnkKH2gEsJkxcEPozA48DADR8uCIb2aDIGVg11rsih6cWrsHqTNnhoEzb0vGmqR2ugwjYBiQIYup8xDzVnTkLZHubfWz+5Htu1YgcG9L7gKYw5aUTxPAmz1oAgiCzyeaDFdZD0qcagi+5Dv3FD48/gWYT9p6DqgnvAWs/CyhUATabkSroEQ7uQkKfNw4TzJjorEunIF4A2AQT8GBw5414cOaK07Kj6ykT0HPodLHt4IaIAKNOKsaRQJu00jPTKfaEoeQxDrsBQ4EpZisQwVH97AUaMjHMd7z4Cg864CafWNSACTHIbIRhyEVSyCTD0PXc+jj99XLqc7DMe/T//CHrW3IhXf3E32piOsBBOmXqPwICL7kPf4zto75azUbtCAoyj5qu3Y8igjttT6nBhzos36keCISduwmn/cj4qUu8mMESFB7D6nRnoewKN5Up0O2Y6Wv++wFltHIqqoa5ztxG7lz6A9khlNQsCvSKo303clESnuEnrGWXjb8f4L09Ht5SBxbuNQK+Tb8Bxo05H3dzLsGGrXmWDBGMcXToxr3rWnIA3fvx9NGkjKT2hBZCH0teyZ8zDhM+nj3PepRJdqs9Fl54MO17538gFSmdiTHETOVw9Le07imSdxwGG4+mjOOKCZOhdFRdiu+rmYL2TlpGWi2mfSMBpb46EkMMw6Is/KFb884mVmkwl+k29B9WjGFoKDC3tHAMvuNoxeJqx/aXb8PKvZ+GNZQ0xpTK/4UnUPXwF/v47oLXA0eoKoi4TrcEjcojyiTp3m4gjvnABWvXyf65QvPwr9LJw85Y6NG9oQLt7Qa4R29fXYcf6OjRvqENzkwo5aI+GYeB5nat336n34MhRymuXK6jNkXlhc+qTZymZqtSWzWbosakz49dJ7eVpF0D756+OGzz5ZuzeUIfmbc1WiDcvxtrHVPhDa+EIDP5S3OCJmnV9NzXavsiMwJAL70W/vPJ2tRSUh9J0xajbUZ0gZOyuR32khbEmighW8SKPc5LsCzpOPS+A/DFj0bOr833LTmzRYXHtY+dgfIrBkxwH4ZBLUDPj6xB5ZTi35Dm6XTi32OARuQTRVaDHqbdj/JShdgxFxWGIUvdTTlyLMSc7Bo/IIf+Base8KVMjti65A+2CmXSotMdJpowBD4/9ARpWbnrkSExBlz7ORS2vY81frFxi0KFCOjQrTMT7izG3Y3SKYpY2/8bO+DqQV2FJrUfdjmrH4IkaF2LlA7Ow5P55aNrl3Cga8cGLc/HaL6/FSi377fQYgf5k8KTJ/swIDJn6A/ACQy5SP8l9L1JqObO7Qcm7bXH53b6lzsr/9Q3YHTHkIo4eX55bbPCkyY5P3I6xpw5Da4EhV1ChsSYtOIUuwYa4Jae+2m8LtBcYgs/NxcikfDXIold1tTF4VN2Uw6ldMOTG3oFjznAMHqE5YUMddrU4Txl1NY6ZNgwtBYbWdobWKN7elcfvob3PuQGswNBWYNi5ZTV2bmhAvgSf7lhfhx1NmtNSVrlUMoEG7NhQhx1bmuPfbauL83LEsGnRUjhVQdnQz6G35qmWPMOunt9C9/7OBU2Lse4V1b6UubagnXECMHt79pabGoXaC9Te5wqMPb/Y4Em2G+81BdWX34xueY6WvC7vqNsxqhPzKjPkEhz3rSvAIoebEu0oIhWdkBfTcdwZcYMnv13pPHknsmbnylvRFDHTJvZw1rTwOo+9gV/p+QhBA9WNgaYQt6Asvpdn59oGs3GNDJ4wUHsPyhi00QMVczvyagwe4QjiXC3enTcDL7+8HlLWYNSMO/DxcVXqu8wIDPnkt/DqsrkI2OXoNch5b/18/OU3d6pJ9rcmVNzyWwzXqZszshlLHnte57xXS61xNKPx6e9j4R8eQTOqMOKKu3HKREsA2cpJCArz0UZhXIm7RaQ8IW/MnYpl8nKc+dNrMIgE2daFuP+668C5RFZ767IckKNmYejI9HoLWYPRiXoPOv0qrHjrDhNzzmjJQ9rzMEQK6UnJEEEnIdC7danv4hcqIcwZcNQAl4ybsenhE/DUk6TE1ODoL8xAVdl9eDfSWW9Gz8LAI2xftL99Mxb85z3Yoff19Jj6W3zhgglqn1PFRFSdxVD3uApRia14dKlQbd5Shy2rVqC9AAQ7ltrD3RiKDmdLrQvovJAxGPH5i3DGpz+LXs53LRueR4NkKBPA2DPPRleHGNpWzsGzc+7AB5Kh28evwZSLLkcf3ZeZkZegesQ9eO1tgOFbOOFYx8MtGrH5L5fj6b+shEQVjjz/Dnz8zBq9t6sC/SbPQsWTs7CFypworxAMEZeQk6tR7pSn/d05+P1/3gNA9U3lKTNx7LFZ1C9myIWkSAIRZwgg7TyF96h57H9I0JxTinehT3+zkg8AaG7Am9cDr+wAACAASURBVOTsgs1UqfYyqhh/FS6k9hJUnX52bLy3rbwNz90+F02SoftJ1+C05PwbeQ9eXQWwcTWwEXWN2PyXr+OVRUAkHsFbXcfia9PGKVnCs2ivn4NVK3VYatHG8hx2vX4znrljHpoA9Jv2W5zzuYl2T2afavSLGFZD7+9McgettC+ajccXAfKrT+CSydXUGGh85hw8+pSqd5mW/yFmoPq4zsuOPhNnodszM7Fbl0GVQO0vpAMlSymTeUFn81RhZE1NzDnZvmou/vqbOVi7kaH3GT/HOV86Cz0djVbqvSkcDMeeNQXGvyga8N4dp+O5pRT1MQWfvPkuVPcHgCx6Hns1ejw4E00AeNFKRw67lt6MZ35eur0rI4Z3ALz5i6lYJq/AlNuuwUCHTx+47jowLs3+2Ayzqwhuv0QRUJBz8dz1cyE+9Vt85UL7nua3zsH99+p+0eMzrL0Nmxqm4yhNu6gYiwHjGVa/rJ7d7VMnoLvzipa1D2BzBJTp0C3aO0xz5MNxk8SAaZeg0gkbjernYckvv4/3NjPI4Rdjyjevx7C+6js+4FwcdeZsrH9cgnOOkVPORpfOzqujL8Gokfdg8Uo4yTnctmQoSAkpxqOr2wBbFuCR667GTq3r9RxzGY49ewRaH2hALoTJWBgKpftJT0ofGn6l5yCBJjP9dKlI9x4xRhsxoYW+VMRnNtwBvSaMgxsOvuO1GVi0eD3aIqAtWollP7sT63bY74Ohp2NUBOwujEDWubF9dyNaC0z/LEGL69HoXYWjtZesPVLZamJY9wieuu8vaCww5KL1WPHLp9DU5nzfrR8GkqcvSsa8AlLoFJWihLfNGIgMkWDIS4Zek8bDdfDseHUGXly8Hm0FW+96p9686nQcGQFtkfX2FSK7QTR2cFusbFpB0Sslatmd2U24DqiMq7a5XrEKDDx3ET79tcvRtw9Da2ElVjx4FZ79w2K0FYDWiKFHrC45tOTG4riv3YZTLr8Nn7j8VowbArSZ/sii67DpyEVchV4kl9I3zccz/zoVT//yaiz59Sy8tuAB49FMnmVB9S1a2Rh8Hv79/lX4/vw/4+KvnIdBLqvk67Dmyfl6f81MDB7qGM4ti/HGT+Zig/Y0Ni26BU8tqnVurkLvSZPQVmBoO+d0VDi3tr9zDx59eJVqk8J61P7PVVi9zrm1cjyOGmXHYLFxqvvnhUZ9toRC2aiZOP/fb8PRI9VK0YYX5mDhL27GhgLT3kK12kpz0a/yeBwoqLlmk80IyRCN6V/kfXQ3qNMG/IxWUkMGsy9PYhb6Do7Pv7duuxMb9fxrLDH/WgscR/R2Xe7N2PUi0Kq93G07c7B78ivQZShDe0FleWxPyr0dS/Dqz+7DBi3f1z90JxqanO+79ke3AlOr7KkrPSrVMzlmkvJMJTxg+keHg3/6dPR0Zce79+CxBSs7lB1VI63soJUed76bvxN9QSv9BXExerlNlluK5bfcjvc3qNX9DU9+G4tXNMXupdDpvJyJIa6c3NmIwniS77fhE5dPR2G3wxl9q1FZANqFCuUrau+f7rm9qa75lBWcgnbwKYNPrfzT6n+s/DoNd6FEvxAX2kNdG/Da0qWOI64SPY+frlZP8kMx4shq+wBRi02PLNH9gdiKBkXEuD8GneUmTMIIY30BQB3eu/MGrNqg5kbb6vvw5MPPOytTWfSsmYWWiKE1PwuVVfF59eatd2J9QR1LkTav+k6epNpbFHOTXdmtQ4u7FNZ/Oj77g7txwsSxaC0wNK24Fy/+dDZqqe8EQyGyq8Kx9vA8tU/wRs9BgrvqIySQay1OGgDYTDicSYSgJARqMzqg9pl06+Ye9taMlrXr0UbGSQS0i/n4wFH+ka1Et6MZclEtdjthDGVdh6KsAOQKQFthIjIuE+9swmppD/BMOvuaNz2JrZoclKBtji+pg6n0k0IJ8jShEFM8E61gBCysYVHR3TUUm7F77XpjVLWXqHfXo0mYqOV8ARkjuzQ5YpRpLXiIeNP29BCRyMfnY6MbIpKpRL9J1+Czt7yDf/nhz/GxE4eaULtcgaFHV7cuWfQ6bhqOnjwNoyZPw+jJ0zBq8gRUOB7EINtf921yKb0B6+bNxvsUgifiApKR2cOsJy12RseekG/Cmj9+Hc+vIM9gJWKLlNsasFTYsZeLgKb3GmMhD116T1Ck06siFgrSsvlefY9SsHJRA9Z/0OhcUYnyakXihdSVNsqyMxdvr3KNziy6Dp+Gid99Ft/42eOYcu50lEUUIkkKjc1glUq0Hh77Ca6jQUpAbmpGPnEBjT0Ou9IfaEcX504iY9kfYWL+LdNziOZfY8r8y0XA8s3u3KpAdiJDq1ak27pknbnZjN3rS8u9qKkWbwhtEEUM+ehltCZCgCIdbpQXKDZ64OzfSPWSw4QhKznMUOidIjsKVvanyY6yo5iZ73knnJXC21IhYZT6gnASPQDA5qX4uzGIlOK+7L16FOK360NB+yHj9lPPcUa+Gxl/pMMBPIuA9mKmtPebe2hvMtTyEqnOuUjqTH26jFJn00te6LZ5MpMoZeSzWeQ0fz/6ADY74rfL8OmoioDWPlcgZmevfx0rNtHGf5sJMFmMtJWeVGhuemGFTgAha0yiCQDAri3YspHF5kbu+TrsdpSZoGIE+hYY2qLKonn1esTQXuiY1/I67C6tzEq3mYe3ltXF9KeyQafhmMsfwjfufBafvvRi9ND92q6zAhaMQUlZdf1Sz4eBN3oOMmhu5Npco6cCXZzNh5Ro0Zw6yuw3UjKUd3MV5kbseIoOSyNhzLBzV3zlITMYyEfzsLbe+XzYNEz7xgyMmHwxJv7fH+FIJ0Kr+f35aHYmXtLoKbS9HJuY6R4ztbJC6Ylj7eBkMyol43SyL00kEl27x+vd/LStd75EvcOB8T05qpyswxVjCXuOg3tv2vEBRqHZcg8ev/debGgqNmazVWfhxCsfx5e+fRmyWhno0aPjbaJpLyIyjq9M5ND2ljWE7OF8bmrQxDDqBAq7m/DBsvvw9A8n4bHHG5DhUh1Ad2ol3EO8c811xitY0GSW/1sj3EW/oEsl2gXDkRUJo3W9E9et712xM268lPXW9U7xpgFktDTgjR9fjTdWNRRvgu1RjaOm34ov3HI3ju6nPb56lVGkEYu3fDwOEIyseHtHXOnuUYUa508TjuvMXXpCdHJ8lah9Z51RwGkOFVLmXz5iyL/yOrabF1diyBd+i9POnIYRn/0RLvnUOPvctjo0PGYddEVnkLTvMOF6JhwpqTzreVYQxanmkVhlTZ3XziOlBI5KkR12v2W67Mj0QofznRT4tHcLwRCdURWLLMjt3qKPOGDWYbIrh0LyfskgPjU0dm9nIEX6CkuhfUes7KntrWWkECg+RNsE99n7JJMl695R26jnSJOJUz15PtascQzOnmNx1MkMZWeMQz+jceaw5dUbsEMUr7DvrUpP3PTXH07C4080IBPoPc+8Sh2AS9jZgGXGiNBzQzQipnp1rUBPwdB+SjGv5SNHp0qbV10rzQpikT9O95GUwLp7r8DLi+ri+5YBoLwKA0+7Hp/7r4cx/hh9ALcgfckmeHD7wtPT3sPv6TnIoAlev6keo0fZA9l6Db8e3XEDWuEuZ1LKXnUNeal272oGTG6VSvQ4AxBPWaEIAF27xUmiZakSNkt/PReDvjsTR/TJAqhAn1O+g8+eEi9joeFBPH/nyzqhvf6wA8uklNAi44Gn3C71v3TwXTIIi4w+bs6iAHbtLF1voYpSVO/W5c6BqPrHLQ9nQCHGWhXoOgEQi6EamzGT3UsO7B8XjDtrY03Elt+Ex5fdhIrJszD+k+fhiCMrnQmXRcW4mfjktHvx8CPA1uZmYAiVtQFv33gGHlhujUPOVIruTKjip7NasJcmInsGQqBDI8lbTGdbMH0eQaoBtOFB3Djr3yGlPoeBS2QDibIQKA9V/DZnEnipEe2XwoRXZntUG0IWup/kKZVwnWa57XWIBFC7vRmngizrCnQZbFfKCKO7x1cxd69nZgx1VG+whXj5xwux6IgLcMJnL0LNcTWxzaxBv9Nw/L/MwHu33WGMdUVWsvOrXh4eHwJ2lC9CS/MFMD6c7iNQdQqw6iX1p+tNl1LtywPNsUVbkL8AZn6V9ag249kcYJk2/yTA3rwOLz0zFp86swZZAGGfCRh36QSMcwsZNaH+z1fjFcBuvi4SFiz2a6r8FyqVPJMqgWQRpL43ua9EP1Oda6b3e0hg9Y5mTHRkR9fBZJBZZ0hSdrRs1IdCOvM9gOVXMi7TigYG4OkGtHwFRuZnu/Yv2nPCSmhU8ql6tFw8wfRDYfWduPm6nxpln2k5ndFyNhNoGZv6tE60t9SGDNK+lyYlM9dWNO2jSa08K8EzzsHaxDVkmK99djGOO2663r9TiV7HT8HxAx1Tvq0WaxcwiNAaW65hTxyfqK1CB9yU1e0WcIChAa1tsEkOegzFMQCWxozrSsSS1O5sxGoBRAsb0fbVOK/Rvl9zHlXKvBJFuku8HRU3NWDl3VPx5sMTMfacGaj5+ASzNwgA0LUGoy+8DRu/NxMtCV3FE9OHh1/pOcgwB02++Dp2uJb/sOk4ZWqVIbpIZ9wycc/GW8Wwabsbw1WBrkdUxZaqpbwM/d199W2N2LFZe1c23YvFzy1FS1H+3xzaPqjD2md/gN9fcx3WAjrlpF01iNdD2kNAGZ2hkI7U5WpHwKXdx8077bF79Yl9M6be9Eh5mT6/RiPXiF1brNCKER2zhLdzezwsoufxU3T8PZ2eDhREFU4cXu0+HK2blphD1txzFra+eBseu34yfvYfP8DK+rj3sfeYyyAk0BhbkarCgNMmxtrEtrvrVUtvY3cfgNoLJs0hZ2T8cOen1MpPhkuUBRLZUKI8lCgPlbFVHtrPM3w12tw1/j5DMQ6OJ0oCPWuq4GZEz+2sVUJ8QyNcJ1u3/pdZby4AIaswbGA/54pm5HScfuoKP4PaCOsoSGzNfLz8s8/hl1/7PJ75W13sfcGQCRjpEAr1MZyye3jsb9Bcs8riAmxpiMucwVNvxBDt1HIzvRWkXaVQoWCr0dbq3Np7KI53PM0dzj8JvP/0PVjdkBJanW/G9lVPY/GdF+KPjzUUlTkOaZRPI/s7cNenTitHBqUpJdw5I4ExABu3xPbtdU3IDpkiO9rXFYdOUVKXjlYXGIUXsJ3xw0t7VWNs4trhR1WhPHYv8UsTcs6yQFg1Aackr4NzmKcrn4tK1Pn2Jt4o+tw82/Jp8WXM/Osane631pGWKPOq27C+3l7bc8iV6D/A/r377QfxqstvmtsoNXsAZ7yltEEaN5WHEl1C9Vk2kAiDJ5Db7dzUvRKV/dUbjSNhag16OnGS0c4G7JCASO696TMU47HneVVqpZLxRKQFA9iWJVj+35fit984A48+tgS73RDF/jUY5nKTY2x5Xvpw8EbPQYIRcNCCY+v12LQmHuI2+IsP4/OXz8CQo4ciEkCm+mz0++QNGHPlU5gw+14M0QbQrr8vhTu3e0+4C1MnVWlJUYMJ116OYY4nIdq4FC/TH5+4C9O/OAFdAwBr78PcL43GDy8YjR9++WP4yYzP4Pd33YctVF5d8FIkkeH2xOyQF18T8wYlv3OFffLePiMwYSCdU1GDQaOrwADsXvI63G0zpt4oVe/XsRxIVfIDqJORAyax+Y0VMeW4x4m34ovfmoVRHxuLSFRhwAkzMOm7D+Do2NEatah/yCGBz96Gs786A0ccZTPt8ffn4S9znodrogJKiDUsXArX7On18f/AF06pihFJwICBp83Ep6/4pn2mY6wRuDZ26DDWDGXW4VITi94IzSyxBEUdIlWWvFCiPFBk0jWU6K6JpWtGIsslsvxuNG1wWqvrBJx07ZUYoJ/Xa9L3MP3jrnHYhMalS1RfPr4Y2x1FIFszA+d9TnkDGapQ87X/wmj3zKattXi/trRiRMYOZzMw5f/eiPHH1xii5qwWS3/xDby3ufg+TyYeHxWY87+S/WpObnh+cWx/QDDofJxxy29x0ulTUCGBghiL3idciuHn3YuPzV6GcefRivU9aEzMvxOvvRK0daLU/FOowuSrbsTYqiyAJtT9chR+dOFo/OCC0fjhRR/H3O9/Gy8uaoiFx5LymwTJPZI7xedjWTlVylFDq9Jxh1oFKkaeZrijYsxE9AGAJ5dgh1Pt7JgZ+KIjO8YkZce2WqxbWSz3TZkc/om9nln5yLAQO9yEAT1Pw4TvXIQBumy9J/8EZ57gbpzXqykAOOZg7TqnwOXjMOF738RgXWf1I8EHTsAJl/0ckybHjYgk9tTeaeHMBn1G4OQBtEpTg0Gjqky7xEWgdGSqNPuICRWDZ6IX8cnwiRjY344Pzhrw99edhAb9ajDAWINN2PLyg7FxFRinqXXsBUyaPW3xyqVzUzftkOuqjZ5yXo+1axucG6sxatatGE11P+pKnD9tgrNak8PWd+boOtyLDevj8+rj114Jstt6TfoepiXmVdOyJaa9krCG3TSc+u07cOJpE03bcd6AVfd9Fa+821x0l8tNfqFn/8CHt32EIKHiWvuuQvv+fbehz8xrUUkpDXkFek6ciVMnzix+WGsjBO2NWTUTdSun4LgxOj4iU42jr3wWR1+RQ3z3JAA0YO3DNxsPkBzlxCmXV+CIsVX44K2GWFpjI3MYwCFjXjfzFVPKNVCa3DhXqTtT20ZnJVLf1qJtF+xhY9lxGH/TW/hYHgiyWbS/fRP++M49wMpZeGflFIx36j3qymcxqkS9Gx652XiTuPGQSQScae+SRCAZwlevx3snPoIxJh12BXqNvxKTx1+Jyamlz2H7K3PxJtNZ9QKA96/BwInTMPATMxHlmtHS1Ii8zKLboKrYknjzunsVOdXOwYqVp2GiU5ex//pXjPpaA3ZszyHsVYVuXbMIAwAb5+NvnIg4rZ0pyx+swRNoouTqeynjq3ZpHsVsqEgnE2gSCexzOVNSuCAZVj/5MIYecYFJtJAdMxNf+d1MFPJAmDwfoW4+lixW5WHyTrz68nRMPY1Sm1dg6Hl/xqzP51CArqvTxptfvBnvMTtOilcbydiuQt/R5+Oo0edjfD6H9h0N2N0GBD2rUdHDuaGpFquAWApVwBOLx4EFhZVyHa4bcCB89zt4c0kNTpwwwmzQD/pNxOgvT8ToLxc/YzdT8f5SAm8/vgBD/tf5nZt/q+dj8SLoA5bPQqU5F6wM5QNPwwC8gA2wChbNBeb8pM27TGATpCglPw4OJwFDkRJr5zRjAG9qjh3wWXHSXfjmXTlEQRYBr8Pqb0zFEszFsr9Pxyc/YWVH1RcfwszPpcuOLS/ehHUM6JrgXFfZT1/FUvJTSglgMZYuq8Xws2ps2U78Hi757XdRENmittYVRxhIcEgse3wBjj7yfPTW15WP/Q6umHcZdjc2og090b1PD2TLswCasXGz4hKbXnsv21uf6aTae898+qfb7jEOzdi7OBCQMrC+CTnY8L6g+kp86VeXIUIWQaYZWx4cj5ees04p/tgD2DBlHIb2BFCetcpm4+t47QWAZ4iTpAnBpn6RUHtmTcREolxp3JQNpY5kUG1TkAw7fvM7NI62OlUwaBqm/mQazswDQbK/mp7HKw/o0Dgm8caCBRj5r+ejF82rmu/gonnfKclrixdpfk3pDxao8cxZf3QfeRZGfOwsHHex5qbdgOxahT59HM1gRz02eyY6IPArPR81HINAncHgpCPddhdevu9ufJA0+EtAOpbJez+fiXcbEjcmFf+oEev/dBWeXq4Vc24JBgAwYBo+8x9/xX/cvwrfe2AV/v3+Vbjm92/jX3/1Ei74xlfQ16lCGvGVBTDn6JQFycGlSC/DpV5xiN/PnZSsZcFivPlGbXzDK88icIJvufaOvfPTWXinfs/13vDQt/DCm+pMAvKOkaeMNmKG9MPrUX/HTLy3rjMdkcPOV2/GM79ZqOodSpRxiYwjsIJsBXoMqUafqipk3aX0hgfx6h8olrsBtT+5GrVr4u8Me1Sh79Bq9OzhEDmjFRz1U0R4gfKEUQgAja+QiFB7mKyXDfFzQvQ7uoQSXTLKc9YlA3TJSHTLKM9al1CiPKNCCsrfvRYvP7rQSamty54khoZH8Pyv5qAtoH6WaPrdFXh9eWO8r4NipWXbotlY+FCDrXeQXu9QG99meGWyKOtXjd5VCYMnX4d3F9xcFJqhq+7hcUDgGg60skGOie1/uAIrXm9ITZCShA1KAvjb12LRXzo3/xbeNQctgZLFAatF6076tgJDzv0VrtCy/3sPrMJ1f1iFf/vdG/jmLXdh4slVRilOUxrM+Wkk+5PyXe9FDFmxp5UxNZ8zXMvOx+PZvwAAmayRUSSrm+67Ass6ITu2L5qNFxc0GBkY6gO+yfHFtaIcgPaCJNqREWdItD44B6uTfBOQwZND49+XxFbsOCPOA8remI2nH1qInW4/ZSrQbXA1+g7upw0eW8eMlpOZNKU/sD+p7U0OKg5k+GK89WbHfErhV8kXhdpoy3CJzNu3oqE+efB31hgPdnVJr2BgPtaua0QSO969DxvokPVE2LWJlIB10IWd4KauGRV9QJ+Xh0B5IFEe3o0l983D9tb4I4oMnh1L8Mrcq7DRjEOgbNVsPPvwwqLMeHvitUwJ/SYMEtzEsyjrrbgpZvCIRmx8+gbUuw7JEg5Oj72HN3oOAhTp2T0wIVfKeBkHsitvwqLrpmHpi4vRvK25KPtUlGtGy7rFqH/6DmyGWqEIORDw5/HmTdOx5LEnsTVxX5RrxvaV8/HS/5uEJx6tVcKQqckdPHI1Xn6tY6INu/ZD5eTrce73r0F3BjCwlOV0iq21S87JiR9qZbwsRWENSIhroyH/5xl49ZmFaN7lCFmRQ7SrDlvrak0oXVmwEMtvnI5Fj5ao96r5WHzjJDzzWC3KA/VsIoNAC9qMJlEyypSx8BzevnUcnps/H5s3NKI9mYI114yd7z6CV34yFQ/9ch7aA2lIKhtIZN9cgE119bFTlqkO7dvqsOH5G7Dge7OxKVDtVRYIlIfP4fUbz8VTD87HhvXp79y1eiHefX5ejPCSoWmBfmaWyCpwyMRRXJghGaUIJAVq11AZOd0yEt1C9WOIRpNKVr9LLLwMT8z5Pt5/uw7tuXiftW+rxZpHZuGP18/Cug8UIXUJhR4v9Vg9dyKe/MN8bNrUHD/tOt+MljVPYdkvp+LhexegXb9P1T1tDElkQyATPIn6ZUuxe1fydHYgamnE9lXzseSWqXj1TWnGkWv8eGbxOJBwN36bM3gCiTK+Dg2/Pg1//e+5aFjdEJ9HAJDPIb99NbYtn4v3X1TecNrTkXv2cvzltu+jroP5N/97s7CmSTscuETIF+PZP9+Hxp0ojSCL7ODTcPyV9+OsU0qshjA1L7to2V8eylg6aUDNTZK9ZUUOM61khsQP87H4zu9j3drGeIarfDPa1r6ObUaBrEfdLybi6Q5kx/JfTcUj/70A+UC/O7Bh2CT/A9gVhzBlZYXCqMoCoDx4Dst+dDFeWVKLVse6iXbV4d37LsQf75yPJid+mTH13vJAJYDJ//XreOjHs7H89aXYuSudGzYvmYe1b+k9K/q9sfbi5HTaU3srri3jEu1/Ks2nHzh8GpOpTCnrWU4GVgNW3HUt3l5RF+emfA75Ta9j20YbpkZhaaufXoL48KpD/R+XGENHOSFVuyfDrzvLTd1D4iT9f6C5SesS2ZXfwwv/ORMrl9WitaW4/huevwEPz7oEtfV2xYj2rhaeuQIP/ecNWN0JXssGyglIq1AuOPF1+AQ2vroYO7en63Y7330Ky+++AM893WActO7+YFoN9dh3MCn3HMm++cZhH0VZ/ilAWUncFMh5wfTZOOoAtzadCz4f2QPUYgqqVmJDpjw0kNJJp8zMuSMFwRKb9lU4BaO/jrsGZ3zpYgzqZ70MBTd/YybpNavDu9dNxStNMKsGtLlemUIy5i03+yQYVNpLqUhA1YculCqjD4sTqjm8FQxCqpPHwQAmaRncbt6M6Pwgk07aZi6i2GAyRpIbHtVhf6qQAhKFiKFN90erPkNH5cy3z0bi2QGD8eJQVjMGQDJmkk60O+kuqT+TscyqnZxDWJ16c9i+p8MJQ24z/7j1pUxvZcbbpZUJHUbAdXrSSNKZFvqwNj3uKO0moMpFIW3l2rCjsBBK7EBt1FZQh9bmInWgWoH6XI8HTmEMuvxKgOsU6NKelZPsP+X1k2ZFitrMbL+VMpZ9D1CZ6YSw8yyvU7cK4yggJcbxEIbKaCrTbRvoVTRPMh8OA2bbUyL/2bmEZGKk53he0Jk6DK15mLO72nXa6UhYuRhoWZXRXnmux6c9R8ZN+a4zmTns7nqLJYZg5NfuwbiTq1FGGlo+hwJ5v4LicK32VTfj/lvv0SslOjyM6ZBlLQcBVTaTOQ6ULIBBQh8OwChczAlpc8vG7Lk8BckgdSpOZeQR33QsOySsUWk2vQdx2V+m5zjAIIRUPCx0+xfUeUIUQk7ZQOksmeQ73aMDYjKLMyOviBPp7JuCYA43W7mmVoaYkT/EC9JpT9On+n0moxij0GXVJy4PJ/lUgngFeh+terCgF+qbXeelKT+NLabuc51qgOWF1sK1+PQvL7epqtfeh9/8xw1oD4HuGYHuZRI9yiS6lymeygZatus2ov7oiJtof0+GW26S0PfruZUrwByO6+pG1IiBDk0Pdeh2QGlkdV0ozXnk1J3GK+MSoT47kZJK0CEYEkq/oWRJnLhJ90fBma/ETYHes1TuGHLKwIWO3LB6R1pI4uEMl0v2FX5Pz0GCUtrU5JJMQgRK6TbzUAsRmmSAFi6O0hgyO5kCqL8LHAgT59C4aRRpL4ZkE3DShZdjkE5wk6u7F8/ccQuWb7QCgQEYfN4fcPEFx+t9KJXo/jGAPytNaBjXwoJzmWr0QFKKVQkSwVIyMEZMptMmMyvgAehze6Q95DswJAAAIABJREFUPE5LqABWQDMt4QUkBKdTtrWyq99tiE97vsiLk9HCI2NCvXQq8ECqmOVApQdnuq8CrVAowrB9RFl0KPwhZG6omETBIYNQ9wndb2L6dYgF9RH1WyRkkfFGig+RqX2TI4SZk8BA1zMkDxyzseBMupthJWSgFImCsHWkNKplgX6WHnuQSonhUqkz9EweqWfmOTPlp/1rAWTMw6rmgNBOAGbOpEj2H9XdhkCovpeQMYPHjDqmbpZcnVNRkOpeIbTixSyxxFbDKB5cjweqk4fH/oQ7T0kpFxKQoRq/HGoeFRgQcWh5aUNwlXLFlNLDgRASkQBCzpARQh32KBgKjqyi+U7pgMU5c3DiRL0fJt+A1X/4Nv70eC3anYMV+aDP4gvX/gQ1A9XfZT2rjXFjymGUervpnRRvxTP6f2gF0PxPDMHAYTmA5rDgKjNpQc9vqb3isf2HmkMiodopSpEdZERQhAGt2FBWS5MRlNM+EiUHIYFAMkRc6hT6qmwSAtIxMt1Mek5TK2NCr0ZTKB3TjS9AxpI0x0oo5dmVkdLIOeboBdKUxb4Lzke2BW06aYnSfMolA9PcTccXSKN+U5u7PEMGnkr97eoV9jgJCSYZGAOG/MuU2Nk8m5bdgLYA6GKiPmAcj3ZVQ5eeqzTpYi+5iVos0oYLaU/QHGj6jcoOJe9Do1sBnAk9jvWhuUIaR0Kk55XZlw03dJwMP6H7Sxv8mnOg+1JCcVPIJAqcDCmtb+h6lWtDPaMdndzlcM9L+wxv9HzEYFBEwLTAoLjuUBsDCMnzz5DnUnmoSVEmxZfZyUnGgvKOqQlpPFCwHp64qAQicRp69qK/mtH06s14ewszm/CEJpb2vHv8ViN2P63is01YhkMeZq+Ic4ebwtH+rz5k5LGDVAKJmBlKqEotYFyvIclP5elUpKfqKNUZDHTonL6BhBB59t3wNldQQa+CSQlkyFoD014fZbBkRPxgPhJQ5H0lJYBrxVpKIOAMoZDaEFX1IQTQm3u5Dk/QDUeeQAEJKdxNttJ45UJGCSUcZUHCCHYi9YyzMkKCkkONDXe1KRNohYvDHLQHRylTsd36vQDAlfDmgry3ErwArYxJlDlGN+AYLkyFMhpy08aT8X5K5z5pvaa0Mdd4mCFBp1CoMSbNe5Qhpc+04nGiIqUgMPvHNLHoOpZK6uDhsT9BMgdcnWelNoer0UnOjbyAPphQmnu4cXwIcJ0MAWCQXMs+DoTa2WAOX3bmICndA4ZV2ZCobUux6K8rjAOGfP58887YRGjfVgsOpldspVbGpNnDQCtP7spD7AgBQBkqkoHWTqzsJ6VbKIVQz1djUGhDxE0ApIwqJSOjhFJP11LYWhmnTe/kLXechtDV5GSOKS4oRNLUQZXWls2sxkOaVSmX50i+EV+7KynS6ZviFSIbyaH6W8syJk27kQwjGCMTiH/nrFa4fGrSH9MYlNBJJqwVw6QE09nauDG71PvpDCgBmFU4aOeXAEOkTaY+p9+Bj7sZznSG0zITaqj3cHG7esFh9SLVjnvJTQxgTJWRmwFDji6GjNapSE+gZqI5p5xr1hCXUsRWUtP6zERrmNVPGptanaExT+0NBiEFBGOIOENGjyfDTa6+Ejjtw+Mrov9sqzz7C97oOYgg4pNgOvOZzuoDaVYGMo5ApYEewE5QbtaeJSR3zm8Q9iRnQYIJWlBJhrx4C+2t0CfOVWDIF17CxWOWoKlZC8RMJfpV12BApT3cM6p7EitIUaaVBG1EkKLNoDxWVCpzJg957BA3wBgDuJRKJjDlIaI2Efqe5GnN8TSciojM8r10vG6O0RM4BppZAdFkFGhhLyERCgYWWA8bZwyhIyiTRo/yvmpFJKAUm5pooDyvBbPigJjibTPJOUqQpkYh1CGZQtjQCuZca5VzYYwOchkqI4E24LrKvHP4qyZYyZjeKKroPtCGgi2jFcJ2hYYYlulzcfSKFSQCocaBPfHcKha0WmMyJzHdf5JBQNgQAsAQs7tKxGNGiVZPGL0EeryQt1I1NB04GiXGEK2UhoFdFXMTPZTK5OTh8WGg9UOz6sKhQmPA406WwHGyuI4j871WUjkHKDCGnD5lxmnihJk5z4gkQ9PWRoAO9+w/DRfeXIn699QeGgmG8soxGDi8Gt1MmuEGbHxmnrMHiVZJ7byhJAA0311nGzkidGn0v9Io2maVXyqZRmFYxH2u8cRJkaXPAzIipDFQjIzT8jkMHNmfCM8DAEZePi1BKIJBUOMZtlH1ULJZmvOT3PZVZbR9xZhdlaf2sAdOSh1OBt0O1kiyCq6AE6gG0naT8smEm2ljkJHmXYJPiSPtKptVqBlXho8ZtxyAFDEnlYB1qlJ/y1PnYcr0ieACemwSctj+8hysiO3L1Cs9AeIOJ64eHJiBsWducjkOakggCgAmlDOVDJOkTkUItOMxCGD0L9fITRo8Lq9RP5MTgrhDUqfogSoZU32jTUjF8TbUDaZeNrmDTUbhuWl/wRs9BwEu8bnKboaIjDEEQjoxyjI+QZ0VFfKuAcqbQ0TnCiXrdWNmWTpgC7Bq4YXoPX2isnsylag8bhrcszxdtK+5D0vunYMclyjnMJvJM4b44nGmBBKsYEBy+5hRaukW0xbqfxIuElbxd7199jUkROy1kEnhaIkuzRBgur1CLsEELfkrIi84Ckjs9G2nD0Jobx4TJi23hIDgDBkhEWliNuXSirvdFwUjEN1+o9/pfbSKZNqNkZmkCM58x2x/JBMYgCsdS4DGn/qMMZWyO65g2D1H7soiAyCYRCgZuLRGSMBlrK2oDyQssZDXk+vYC0OiXCKCXeUxqoY2ekw7mTGjSINxUkic0SChCUt7OWOmdvF4oLDRpCfNw+OAwJX/XAKOzOFMrQ4XZFxBpTFpFGNnLkiSl4HyvptVfgBw5ahW3NiCn6C+5k4MHaACl7ODJmDEoBJlzTeg/tFv4W9vqgQmGQZkKSkB7TFk8T1wpJ67xCUR/4BmJMkkSGFDwLQQMocz6vZyDRPKuqlCxIRV6J3nu3KQwsbcKAlDOVwboo4cFFy3nSqJemNCRid5FnCcPFBhc3YVS5pKu/0h4XKhDak2/MKI4aghZUw2uZJNwhrUgHtfCp9K2yemfE67GUOMGfbVslS3SSKaJJJARIZAzOABWmvnYOG8xWZ/KR1wTatuxnDgtB/WRnXsKzcxcsrBpoiniIKicERm55QJRaT66nklnPrGeI1CO5kNKWS6b+2YhV6ts/NCcGbmrasZufoKhabbCAfPTR8W3ug5mEgYPgxqknKpJqDgjtB3b9MCIb4PRi8va7aJ9JR0FW1aVo+EmqS55y/CS9uvxtGTp6NfVX+UOSksEeUQ5ZrR3LAUa16ci+WLVyDLVfYu8j6YmFxaNXGMHpqTptzSOJ2Q/NZdfTANAxvWBgkIxhxZH683oA0qrgmQOftuYAnEZJYxhoDjNWHKOySkjguWDJyptlJ9YY3PmBFCBOfEtLsbSIVQK3ARedwcSavIyQ09s/QltNJOQtfcAzIY6CMr/chbR3Wh8pEwdjfT0t8gI0obL2Q4U2lY4jnuni0GTew0bolUuA4tc8Yt3cf1mOXGgxf3FLrtFFP0SCEwbUCqnvqciJgbA0cZndJtR6c+SaKjBA9uO9nR5eGx/2DmoP6FDB8jc6RExIDQ8aq797rOD+7IDTOPHGXKdZpETvgzCxfi7ZvPw/bzZ+OIMWPRrWdFPG19Pofcjjo0rViAN564B1s/gNlITXKfwoVVdkgrW905Q0o47eukbxmz+yIIagO7VSdJ1ioKI82RSEDqsCuAQr6kKJb9Sdll5ruOL+cSkNw+15WDJqOppP9cVRcmMQq1dbKPqZ/IUHV5j+omqK4OpzA4BhmYMYbiT9gb2VTMpxFj1pMopX6f80SS9fpFJvmRM67A1HNUeJ/SNfKyTUWW6LGU316LTU9dgyXP1QIhUM7VmKGsn67T1HAElK5A+y/3hZu4018xnUrGudxcz7RhpT8w0Rqu7hQwIMFrrgPOGqpOn+o2FDTWDDdJ64yTFK+i658yXtO2D3hu2jf47G0HETGDAFb5o+wg9FnSE+DuzbAxyTa0x3ie6Nl60kmhluXzEdCuM4qprCgqQ0pOf+7Gu6qNoDoRgJMBJ8t1BpyAmaVXN9tMkvhIeNLvdtMqVQq0nQeOuDKxx2aV2L2LyECvcJg2g/Ms5gg1kJBMKLfMkrO2EbX3ipk+SAuzYM7zXUPUhhmo9nbJG4ly0b176kP7QhjvkV3lcYwf5z9S7KkfY3WlsQHX6GCxcUZIerDc/jJjlO5PfOaWncYGrWrZ/VvqqcYr7d6X0laMXkxtbPWQ2DsNx0trcLt9xp3/XQPYvcbjw8Nnb0uHK//tyoGVOe5KjSsCpFaG3JUP9Z2Vl7GwNvN8hoJUewtzBSAX2WxxKmMcJWuBMUgoRJb2F1D65mwIZJ0wYdrXmQy9ccttw86UzCYl1aziAEaoJOUgSzwr+YHUglvEeARG7iQdQK6zi56TJgcNh8LKHaO4OnyR7CNqBN7JfjIyi2SSLqOUqsyuSZJgziJIfa87wNL4tNTDXE5y5TzxU7ytYPY3FaTKOJsTDO2RRHvETHYyaouA6SMdQpVJNavD3dzEEsx550fFTe4zDI+b5mPG2Cp5r9NmdkVPl1mXx+W12NzvgJtK6SvOf/9U8Nnb/sFhhJieFHQSMc0AmqyEpGfMXZ5n+hcJrVwmBLeUQMQkBO1Z0SWgjCEMyvueieJhXLRXJ+A6DtdJ/1nGgTIuzAGrnMUNMTjvj/3CqT42QxYJ6rislgAnIeO0A9XdJRMJSG4V6LS2tqlO48otFYkIh2liIANGeSCd9pQwzzGPYLLomdL0D0NasYru07VL68NY3aEEq/suN+TB8JXzd1Fd9d+00iihvJ9pLpBYe+n70u4nYS8chSZZXxM7zq1yIrl6b4B4OxeXQ8bSf6omsqRnCIU7ipKOk0hTFEwmOyQ81Kz4Wg+P/Q0zZJn2Au+FzAGgwuHcge2sdlP6aFLQSDnlJHNDGDWavNRhpLKluUaPSQRgksCo82bKdDZMChXuKIUu1SHQgk3qssbkV0yWKm4gg6WU7JckB3QbyBKzluSOq9gmeQcdyEGZKBugV6I74Bvz7gRHU92pHdLupy5Vey6pjra9OiObjHyGbf8kn8Z4mTn9IYvbxwwxzbWCA1IoOU97t8iqEHoAUx3ocFG1v8pZLeTS2atiDY79yU0BowUtq1OlcYzLTYANrZN6LKookHReAxLcZO513sLs+DfthY7HbEf6iuenfYc3eg4BMDiC1TF+JLSXx/EqmHtK/E4Ckyac643iTC+zCi0EALCQmRCrUECnT4yXjYwaynblCqxkCuKONtm5dQRgBTCVGYl7mSOwWZrEMxykQhSc62IrMo6gcIUjEH+fq4Qw/Sgqs9xDPyTL7UpVuQeBbeqt/0jrw+R9xvhJtGWyPkXl7aCuqqyJd6X84bajayhakuy4Dwx0nxXFPXd0b0r5jGLojC9SFoy/LqUNk3XxhOLxUaOjeVRK5gCO7GDx8UucAVjZDyiHlpBqvyJo3SBU2hdjDCGTyPPifYvm0E69mTobAmUsYfA4Dq9SSrkra8irU6Jqsbq4ctB9FnPnOjnR4CQ3cNqJ3pE2zzsrB4vqw+JlKyXf6T1p/UQV6Ei+Ux1LOW46LGPy+hQ+jfWBdHQRt+yJ55i6cJsYgTEAOrNaRteBaUOYEmBTcojQCYu0+kM8PI1++bDcpItp55Sue0fcFBsTjrG6J16L9XECSUNMmr5wJmnKMz037X94o+cQQXKimgHfkaRL+dyduHAmO6A9HppVJVMbUlmkNpQnUzkasmTFxEf58SnDiMlApl+8p+K6wounfO9Wm7kflKh3bNOje3Pay9P/TC8DS7RnKaR96XyWjORLXhcTtsl3lrqX2TLSnx2VsaMiSuePfX5GZ8ZtiT5wx0Nn7037yn0e/c470qw6OSY8PA40Ss6jPdzkzuEieenICLNRnmulSgslSoqQ5yhOMw/a72aVVfeYAve0eLsvsfOyhqdcl1YXIxOSD4NjLKbUO+36tPLtjRwsWbY9EEpn+int3phBVuKyUtgbPk3WncW/jt0SWwURzoVcO5mYdaTS/jIzlpjVH9xsoG64YbLcB4ubiI87e29nyuc+j5d6XonyeOwfeKPnEEPR4P4woz0huTi5OkiIckqxrA+olDoPPhySRFxYGQOI2c3fnTF49rZKe9MO+7XNDsRz9+K+vX3n/qjqAXnGAazzXj3Ps4XHPxD2dS7s6T6rpFsC4IHOFJqScZFC7GhPAWWBdFPXk8K6N5ur95kfSty4P2XH/i5bpy79COR7Z967r3U3oca0WYiRXqH2WlLig5gukaI/sBIvOKy5aT88z2Pv4Y2efwIwWIdCUcYuKINGER6DDIqzBbmZQ9yfIOGh8fDw8PA4BKGdXoLpc8k403smtOxPybgIuMk+4pkO6TNXYfUU8M8Jsns4i48rN/OZTfSTno2so1VCD4/9CW/0/DOBwWwOFFKn7eT/n737D26rvBP9/166Z9OrmCvTsdIbpRuTRvTuGe8evBUUOSRKE6Wg9KLNVJMbXSaCrWBL2JLvJemAu98405r9xtzWYetkC52aveBdUAaU4YoJzjYKGyWNQmMxRN1Uree0RSk4t5GXSAvxt0bfG87UfP+QHMv6Ycu/cGI+rxkGkI7Oec45j46fj57n+Tz5dJD5iXqFGRAfFvW6Fv1CM/pwKs6YMpY6Wh5YQghxtRn90as08Mn/HShJBzw6f4Kx539xY3W0cVtpcrX4GCppU1w3OmzyD8bPDStsKu0HMe8k6PmYKP7DV5zV5BNFWU1GJpi9eeWXHKj4B08eWEIIcXUqDXxGJ1KPZm6bMGsiFK0bU57psOhf4mOktE0xLosno6NKxm8P0n4Q80uCno+R0QdLtawm4zLFFX+u6MFU+seu5D+FEEJchcY1UqF6dsrSzxUFORLsiGIT1Skon6cv7Qcx3yTo+RgqDX6uBDNTyBQnDyohhLi2XHn2F/7nSjAz0bOf8vfk+S9GVatTxe9V+4wQHzUJej7Gyh488iQSQogFT579YrZJFRLXgmqp8oUQQgghhBBiQZCgRwghhBBCCLGgSdAjhBBCCCGEWNAk6BFCCCGEEEIsaBL0CCGEEEIIIRY0CXqEEEIIIYQQC5oEPUIIIYQQQogFTYIeIYQQQgghxIImQY8QQgghhBBiQZOgRwghhBBCCLGgSdAjhBBCCCGEWNAk6BFCCCGEEEIsaH/w4YcffjjfhRBCCCGEEEKIuSI9PUIIIYQQQogFTYIeIYQQQgghxIL2h7VsNDw8PNflEEIIsQDV1dVd+W/5WyKEEGI6iv+WTJf09AghhBBCCCEWNAl6hBBCCCGEEAuaBD1CCCGEEEKIBU2CHiGEEEIIIcSCJkGPEEIIIYQQYkGToEcIIYQQQgixoEnQI4QQQgghhFjQJOgRQgghxBVGLocxMt+lEGISIwa5y/NdCHEtkaBHCCGEEHl6kIceeogdL6Vq/0x/kEAgQLB/7ool5lE2SkcgQMexzHyXpMgQ0e88wEMPdhGfwZrH+nMBAoEg+uwVLO+9JKHOVh56IEAgEOCBHZ1EB2f7IGKq/nC+CyCEEEIsWNkoHY8GKQ0hFLMF25+swb3Zg9YwLyWrrL4Bq6KgWMzzXZIZyBDd00rwnEpgXyvOslMxSPzwAZ58XWPb93fiqLDQe+rgQ3QcyWHb2knbBkv5BpcTdD/4JHFtG0/tdGACGMmgHz9M79EzpLI5DECps1D/xytZs9aD61YrJvmpeUoyxzpoTXvpuVcteceE5dMKZC2YlXkpWnUjKUL/TxeR4UacW7Zhb4BM6gNsn57vggkJeoQQQoi51uRl54ZGIEcmleL8BZ0zPw3T9XoU+4NtbL+tQsN6Pix10/60e75LMTODCY6fA9A5ejqNc6O1ZAMFVdPgdZ3UADiaSneQRk/kAEid1RnaYKEsbvptiiRg+7OV+YDnsk5odxeRLJhusuNsXpzf7ndpzpyNE/53K/bbrPltRY0MzqdSVL5oCtr9T9PzURepFr+KE30P1Pt3ElhdqDnN81skkSdBjxBCCDHXltjQmgu/Vjc7AAi8F6f7W93EnwmTaN6GfdE8lm8BSf24l3SdG++qGOEfJ0hvtFIa9phsKo0k6etP4W+yjX8zq5O8CLaVNlL9CfRhZ1lvULo/QQ4LmpoPVtPHg0SyYNvaUdYz5AeGhnLlgZOY2EgK/afA6vkuyBSNgAFYb5A7frWRoEcIIYSYDzc48HwpTPzlBPpvwK7C6NCso1oHnXfVox/pJtibJH2Z8qFW2SThAyGi/WlyBih1VtT1PvybNCyjw6j6gzzwRJTGasO0RnSCD3YS/VyAfY84MReG41Fp+3HHUzAtU3FtuQ/vJyY4x9wAsYMhwnGdocv54V62VX4CvqIyFmTOhgkeiqG/PYQBsMhMo9rCmi+7cd1UYwPycoLoiRymDXY8fw6RVyOcetOD76aS7ZbYUOtgoD9FBhvFZ5r7dZIUNvwbNYaeDPMz3cBxa/EYqiH0X2RAcWFbWnglkwaceNZX7rEzm6fQx5NNEj4QJqYPMHQZWGTG8tmb8d0XwN4AU6kjQ8kwzx6Mol/IYaBgvtGO5y/vwXVjhfIMDxB7qehemVVaNvvw/ckEZa35/haXWSEZ6iF4OkVm2IBFZlSHF98WJ42FYqVPdvHUC0nSBnCik8CJ0f24aO3xo5Kfj9N5Yuz/rxTpQpxob4xT/YX9T3bepUZyDJwOETo0fpiirWkNLq8b+5Iq4+kuxOl5KcLP9AEAok8EiAJgw7+3DdfoMNaRDMlDQULHddLDBigmrE0ufFu95UNds1E6Hj2KtqcTj1mn95kgvWfTGKX7FDWRoEcIIYSYJ4rJDGSgJFta5tJ59GAnnacXozlcqAosXVF/5f1cf5BdT0TJNWi4tnhQGyCj93H0SBetp1y07vGjmgDVgasuSiSeJLPBRVmTXE8QM0B13DxxT8TFKB27g6Sua8SxKUDLsnouXejj+A8eRW/WKn82pxPc3Uk014hz8zbsDSYuvRXl8JEu2n7qZuceH2qhdytzooO25wao19z4H7ZRD1y6kCDRFyP5jhtXadBShfGLMyQMC57bbbAUnHURoj9O4L3Jzvimqg3tVoXICZ1zw24sV3pyDPRkEpZ4Ue0q2TqInk1i3Fr0+cspUm8Ct6nYxjXs02TeBWbQEB29r0OLGnGs8aLaTGT1JImzwPXjt52sjmSOddB2oHBNN9uov5whEQkRfCxB4qsdtK4tqg05neC3OokOW9DW+WlRLZDV6TvUwa5f2LGS770YX9ja7++VMr1zitA3o8RusOP2baex7hKpE4eJnOyhI23QsStfRxevcOF70EZkfxj9ytBQAHNZr11JoUge7KY3o+HadB9qgwmGU0TCvQQfO09uTweeZRN93kB/YRedx3I0rvVxX7MFEzkyqZ+ReO0UqSEP9iVVPlq3FPtaL/YVEbpe1lG/shP3cgCFpaP3bvSaDVvQ1vnwjF7noxG6Ho3heuRx/E2lgVmGod/qBP+uk9gnNVo2qCgspbGkPojJSdAjhBBCzBMjNwSYUD5Z8sZrz9JV56T1e4XgpVguwfP7owyt9NG5yz32i3qzA9cXI3TsCtF1QOWpr9lRrrNhX2Ui8mqcZNZV8suwQeJ0DAMNZ/NEIU+G6NPBfO/H37bhGm30NWs418bp/kZ3WaIGMEgc6CJqONn5vQCaaewzt3wuyK4nIgSPr6FjoxXIkPhxCqMpQNtO51gA1azh/C+BSa5gsSH6TsQxlvmwLwOwsebLViIHz5C81142fNCm2uFEHP034NAKL15OcuZ1MG1UsY4GRq/ppO63o45e55ROAtA09UogZGtyoJyIE3q6F9sOz5UeiykZva83FAWtALe58FbafqI6Mhhh34EUjXd30nbHWHCj3aqx/DttBA+ESThGh1Qa6C89SfQ9M65H2osa3RqO9Q7C32qnFxg/CHAq97fI6Qh961rZe696ZaqO1uzE8UobbS+HOX7OhW8lmJdraMsVkoBePDR0UiYcD/fgGBeMamgrFNp2h4n8JIVni63ah2FEJ35sCNMdbbTfXbRdswPX5kkObW5EawaUJKBjXamhjZsvliPxXBfR92z4vtuG+0rwpOFYv4bI422E9j+P+v3yoa6xZ7owrW5lX9F1E1MneUSEEEKI+TAYoedwBpZ5WLOy5D1DwfXXFRqzQOZ0hLhhwu1zlw0RY6kb7zoF43SMRCGVr+0LTkykOP5Gevy2l5OcecOA25zYK2QwuyKbJH4OlNXesYBnVJ0D17pKQ6USxE4bWL5051iDuMDUtB7XEkjHk4xLgvx/DD6YoBiTGuzjaD+o7pYrvQHW5jVYiRN9Y6hsc0W9GQ0488uikC2lk0ChpTDPR7U7UYw+kufGNkmfS2JgQ/vc2Ikp9nto3dgIb4Zp39FK18sxUhfL+kYmlL+vCo6tvor3vcwEdSR1qpc0DtxrS/r2rrPg/JIdjDjJXxVeG0mReC0HKz3cWdrLcF0jLneFgGM69xcAFe+m8oa71e7AQo7UW7OQFrtSy3aZHccSyKUGKK8JFRhGec/WTGX7iLxuYLrDVxTwFFxnxf0VF4oRJ1ZIojGuOItcbPdLwDNT0tMjhBBCzLVfRggeSFz53/cvnCGhD2EsUvH/d3f5kJ06J/YqQ7oGB1KAA9vyyu+X9WCsXIN7SYTwT5LjJvXnh4IpOG7VmCjrr/FWihTgUCv/Qt5o0+DV+PgXf6OTBFSyJM9mSz5xiSzA+SxZwIIFzW4l9HKQtsey3PdXHhzLpt68S589RVpx4L21qNdqaQt3NoXoifSRXl1yneuWY1sCyYROeosNK5Dq78NQ7Fw5VZuKnSixf03hu8kGZNCTGViyBnVcr5kNGtlyAAAgAElEQVQJ25Z29t0ep/efnif6Sg/JV3pQljrwPVDbXJLR+3rLn9aYg7lqHcmQ6s/Bkj/ifT1JsuxA+WZ/+mIGsMBgiqQBFk0tH/4ImFeoWEpXspnS/S2yRMVWqVNxkWmOEz0omK4HRpg4sL7OhnabQuxEF23DXgJb3CX3eQbS5/PfI1tj5fcLdS2up2CVNu4t0xp7yVBKMR0S9AghhBBzbTBZtDihgnmJDfvm+/DeoWGp1Mb9dEOVRmCGzCDAYkxVsr0ppny65CuNWqzYv2glfPAUyUE31qUABsmfJjAU+6SN7EtD+UbtYlPl7UaPN66UF/O9SvrLXTUt/Gj9izbaTc/y1MEI3bsjPLtUw73Jh7vWtW1GUpz6URpuaEB/afxik8YHJrhwnMQFN9Zx8zmsqHYTHElxfhisdYVU1Z+/BW302i5SuVmD+GhgNHyO5DlQ1tkqzi0xLXPg2+XAZ2TQTx4m9FKM4GMJjm7YSfvWiX6pn/y+lqlaR7JkzwPE6Nkfm3w/l4bIALYq97dSQDLV+3vF9aYJA+xZMZwmfvIofWd0Boff51IhGQEApT2qZUzYH9jLTnMXT74aovONMKabWvBuugtX08zSyo9es2rfIxaZWAwwmGH0mzvK+inJBDcbJOgRQggh5tq61goLLH50rM1rsB4McepsGvdSa35o22kDZZ1zTlNlux7pwV+2Dk4lJho3bKdz/RADb0QJH4rQ+8M2ekN2tv3NdhzVJo8XGP8aJToMDCeJHqu0RY5ILIXn7vG9VbamFpQj0XyGts8kiV8EbZNa1DA3od6qwjNxkoMerO+m0AF7lV6vKxQL6oYA7evvJPKddkLHnqTX8RS+SRvds2iln87dFZJXzKLa7+9HI9cfpH1/lEuLbLRs8uJqaKDBZqWeDNG97YRr2cl1ZrS723l6cz5wDR/qI/hEjNByN63f9GGTMWbXLAl6hBBCiGuGBctS4Nz75C4DFQIWI/c+ANYlRc3dpXbWrwwRLAxxsyTPEMeEu2XyQKze3ACkMH5fZYPfl89+GP1MZihHldUlK7vOTONtXnbe5iVzNshTP4jS/fcRlu+pMATwCoPkG3GMJV46vuupsJ1B4h8e4skTURJe2/ggrzCkKPHrFDlDJ42N9Z8bX17zn9ixESTxyyFsmT4MNG5Wa+yvuM6K+ytOwp3R/HyVldVCkHrqG5jwvtbOjHkJ8E6WIZg86Kk3YwGMkSrvj+TntyjjPjLN+zuXRnTC+6Nklnho/1svjeN6CKfRw1QIXNvW+xg4/ixdByJ0HrDlE4RMo3iWJVYgxfu50qtZcDnH+wBLLXMaqH6cyQhBIYQQ4hpiUzUggV6eMg2AlJ4ANNTPFr9q4ZYvqnDhFMlBg+TZRH5OSA09D4rVigU401/5gOm3ywc4KSts2AA9qVM+Lbs2lmY/vtXAhezEk8+H+oi+DtYv2qsERgr2VU4UI86ZZEmAtmg5tpVg/HqAmJ6EJVr5HI4GFW0JpH7VRyqVg5UaKydK/FDqj5R8E/cTfzTBRgrLbTYmuq+1s2JrUmA4iX6hhs0brKwEBpJ6xetsDAwwUFraWbi/s+7dNAMGWL7gKAl4gMvnGTg/zf1eZ6Jxgw/PSjDeucSl6ZbvsyoakKj+xc1nBZysF1FMmwQ9QgghxDXEZHfiUAyiL0fIlP46PxghfMJAWVWekc38Zw5U0iR+HkN/w6h9cvQyO+uXQe5EiOjFkvdySY7+S4WMWw0tuG9TMF5/nnCySrO4qOxGxVRZOYb+X6BOmfCX9fTpo+hYWdM8wQouqgNXHcRP9pU07C2omgXOx4mfB5NdrRA4Feb+vHWKU29XmvCfY2ioSq6vkSFih6PksGL/k4nnZVhudaEV7mu6Wq9LjVSXBytpev+pyr6KX1ukccsqBfrD9PaX3KuRDNGjJUkqYMr3d9oU4GKmtoxrhUVyM+nBksxrOVKHwlQ4i3IjRuUer5EcQ78DFi+mfAZbjersOFcpGCfCREq/RyNpIi9HMRQHTvtV0nO2AMnwNiGEEOJassjOPQ+7OLc/RNs3dVx3towtTnoiSeYGF61bKwzBMd+CU+uhuzdM2jDhtNf6i7IV9wNe4nvCBL/VzvnN7vxClBf6ON6bQFnlpPFE6YR5E/Z7d+I610W0awdJrYU1t9pprLvEQL+O/kYC464O2jZYAJ3QA13ozS047HYa64DLGfTTR4kmFWxb11O9pGkSP05DU4CWpROcwnU27GtMRI4cpW/QibtoW2uTHdPLEQbOK7iqrOFiszsxHYmQRsG1sjQsGqB3RyexOgu2Jg3r6KKRRgY9oZMeBtvWHeOOWZHZgf/uGG3PhWh/OIF9rYObbQqZfh39jSHsu1tL1lmawDIPO+7VaXsuRNvX4zg2rOFmmwWyKfT+BGf6VbY/7Sc/uFHBvmUbDv1JovvbyWy8C9eKenJZnb6jUQb+zIX9XLQk8JjK/Z0uG/bVJqIngnQ9Y+C2WyBrsHxDlR69G27BpYVIvd5Nh+LDbbdgKizI2qd48a0KEXpnkkO+G6NzVxg+78Lx5zYsi4DhAfqivcQvmnHdq81gMJ+CfetOXL/uIrS7FX3dnWOLwB6NksyacT1yz5zOsfu4k6BHCCGEuMaYmvx0Pq4RPhAierCbiAFKnRV1404e3aSVr9+T/xT21Q5Ixskt8ZavDTSR5R7aH28k9GyQ2MFuYoaCaZmK6+t78f7nFN1lQQ9gUvF/twPtUJDwyT7Cyfw2Sp0FW5MHt1Zf2NCKY2sL6X/5Gb1nY/lf6RUTFpuG52EvnuYJGs5vniJyEVTPzZOmPLbd7sZyJDyWzGHUCo0WJUIUJ/ZqU5xGtzGK0llfYcWx1U3mJwkGzkbRLxdeXmSmUXWzbbO75hTclnWt7FsRI3TwMGdeDRL/57H9NF4/6ccn3xcK5htVnFsc4wMHs51tf9uOLdhD79Eeui6DYlZp2dzGttUK0f5oeerrmu/vdCmo/ja2jfTw/Okg3a8pmBrc7Nxgr7K9GcfD7fBckBfjQbpfK3wn1m9n7yaND47FJw96rtdwb0zSezpK6PXefF1cZKZRdRH4tgdnDanHJ1R0zULHQ3S/aoBiwtrkZuc3vWizlR5bVPQHH3744YeTbTQ8PPxRlEWIeWXkcvBJE4oM+pyckSOHiWqZN4UYVVc3NsZK/pYIIYSYjuK/JdMlzbvZ0h8kEAgQ7C9+MUN0T4DAnmiFVYmvBld7+UpUvMazRA/y0EMPseOlGc8g/RjQCT70EA99I8S1ebVyDBzrpn3HAwQCAQIPPETrgeTsr74thBBCiKvGVTW8TX8uQOcJG/69bROMW9UJBjqJzvOaB9cS/bkHCFtnOrZ2dtV2r2vaU74+lLyq1Fmw2uys31Rjd3R9A1ZFQbHMwgJg2Sgdjw7i7RkdL31tql5vzDQsVVAWVVsY7+o2dLqbjgNJTKqHwFdt1A8PMPAfG+d+wTwhhBBCzJurKugRcyFNqt9gggUOFoYlTgJ326kHLl1Icv5/pzlzNkLP2SjH/6KVtq/YJm7ULnXT/rR7VopivJUiNf38LleJieqNFfdjTzM7V+ujNsSZHycx6txsf8RbyFyloc13sYQQQggxpyToWeiyOsnS1IgL0fXLUZu1fBrR5nwT1p8bIPy9dnpf6SHq6Jg8c84sya+R4fxoDjZXFmy9+SCfRvXTDZhlcK8QQgjxsbGggp7chTjR3hin+lNkhvMr3ppvtOP5y3twlQxx0p8L0JnbztMPqKSPP0/P4QQDQ6NZNFz47vWi3VDhINlkPltOf5rcaPaaLffh/cQUCzsyRPLQs4SO66SHjXx2kGYPAb8rn66z7JhhYvoAQ5dhNPtKy+0e3BtsVYYY5dAPdvHksVR+4bADrQQOFN5a6adzt2v8OgO5NPFDQV48qeePsciM6vDi2+KkscLosNzbMUIHw/TpQxgomBpsOLcG8E2UZadWs3WNTY147nTQ+4M4iV8O4V46wWCsbJSOR4OwtXPccK4p1ZMLMbqeCpIcNIAonYGxQXeuR3rwN40dbigZ5tmDUfQLOYxa6umDdjKv99AT7CM1bEDx8M6RDPrx40R+0of+9lB+5ew6C7ZVfgK+ylmc8vfvMGdSGXLG6HDA9fgfdGIcmqzeZIjuaSVIhXpEad0YzQDkw7eqEdO4suT3c1TroPMuhWSoh+Dpwnd3ovo33e/DkefpPZ4klQUI0hoI5t8qGSo7vfLXox/pJtibJH0ZbCX1aNTQa53seCaFY/tTbLNX6HscitG5o4fUulaeLh6+O+47MZqRyIe/LEvXxPemWj0XQgghFroFFPTkSB7spjej4dp0H2qDCYZTRMK9BB87T25PB55lJR8Z1An/oJtoWsV11314GyBzNkLoZC9dAzla/4cftThf+sUoHbuDpK5rxLEpQMuy+vw6BT94FL1Zq31+w0iG6HfaCL5dj7bRj29FPblsgshLQdrPJgjsacU5Os8lG6VjV5ABs4bbvxNbHTA8QCIRJ/bzNO4N1VYvUGj4Mw/bPp0g+I8xWBvA31xIH7loKeMSSRpJgrtDpBpa8AbcWBZdYiB+nN6TPXSkDTp2jW885fqD7HoiSu5GJ74H7VgWXSJ14jCR/W0k7thJx93q9OdHzNY1Hr0KpsIws99/MN0S1V5P6hpxbdmO7VgX4X4V78NuGgu7MH9mbHeZYx20HRigXnPj32yjvrCOQPCxBImvdtC6tqQxms2gH+vgyYNpGj/vxHU9mP6kaCLUW8d58mAM6+fd+Dc1Uk+OTCJC6NUu2oa2s+9B+7h1BfLHT0GDRssdd6L+pxypX+iceQdMixSUWutNBVf2faMDz/0t+TUb4sfpfaadvpifjr9xlQVhmXdOEfpmlNgNdty+7TTWFepTpfo3k+/DjS24t6okXughxthwSD41NoZvWuW/dB492Enn6cVoDheqAktXVL5S5ltdOJ7RSfw0iWEvX0cl88YpdEy4W4qCsNHvW4OGa4tnbD2WI120nnLRusePKmvZCSGEEBNaQEGPCcfDPTjGNUg0tBUKbbvDRH6SwlO66Nj5KNFFfjr2FDVkmh20NHWz4wdRIgkv6qrR1kSG6NNBUtjw/20briWj22s418bp/kZ3zZms0kf3EXyzEd9323CP7gcNh7acjt1Bgi8naPlavkGU+ekpUoZKYPdOnOaxbbXVHgITHkXBompYLJl8oPAZFa1aL8z5JAPrWtl7r3qlcaw1O7Fb22h7Oczxcy58o+s5XE7w/P4oxuqd7LtfK9r+FtTndtH5apDoF6c7lGz2rvEoI/c+ACbTDObY1FpPzI1ozaAkgX4rtmatPJHBYIR9B1I03t1J2x1j90O7VWP5d9oIHgiTcGwbvzjZ+TBPnm/Et+epsWtSbKWPp37oG5+LsVmj3tjBk6/HSPrtOEZ7Dy/0su9ACm4a34B3rPbgH/1srfWmVGHfyuqd7B1XN5y4HD08uj/IvqMqHRtLJgqdjtBXof45XimvfzP+PpAhcxigaDjkTMv/2rN01Tlp/V4NwUdh5fP46RiJu4vuS/7sSMZTUOfGPvp9y+W/b0MrfXTuco+rf64vRujYFaLrgMpTX6uwEKUQQgghrrgKR7Xnh1kFD1T7J4Je7aOVzmaZHccSyKUGSlYTBjDh+q/lv9yatFuwA8nUwNiL2STxc6Cs9pY3POscuNbV+lNrilM/SsNt7vL9LHHi/jwYp5PoI8VvGBhzmk9XxbtJLVtl2Gp3YCFH6q2xhNa5RIy4YcHtLl2V2ITqcmEhTfzn00yAPWvXuGA4SeiFOCgOnPaZ/BQ+hXoyidSpXtI4cJf25lxnwfklOxhxkr8q+ZBhYLt3e+WA58rny8us2e2ATup/j72qR3tJY8UbKD+fmcrvW8W3uXzFalPzXXhXQvpHpyoErrXXv7y5+T5Mu/yGguuva+1tUbB/0YWJJLGzJU+kwQTHz4HlS2sKCRYgczpC3DDh9rnL79dSN951CsbpGAlZ/kYIIYSY0FXY05Mj9Vp0Ftf/UDBdD4xA+QAnDdvyCh9ZZCrLvZXPyAWO8qWYAWi0afBqfPLiXEyhD4Plk++jny1b35j0MECazLtAA1ia7FgJE9zdTjbwAJ5brSXzCmbBEhVbpXFji0xlw8lSehJQIZMkWdoWHcoCMPBvWSifTTCpGV3jd+IcPjB45dduI6tzpj9NDguuh+8Z33MyZbXXk4llSPXnYMkf8b6eLF/dejDfCE5fzDD++mk4m6eeHDo/tM/IT9wvHH/gnAFLHGizntRhdN9V6hIWVM0CL+ukLoKtOICbQv2bu+/DDMpf58R+0xQOdZMdZ12ESPxnDK12XjnH9NlTpLHiu3WsJ2lwIAU4Ktc/wKba4UQc/TfgkBR0QgghRFVXYdBT4zo9ld4aThM/eZS+MzqDw+9zKZsbW3BwZaUPLMZUY2P4UqFBv7jKEvRKrcOnMlkGAE720HWyhu2XeWj7tolnnwoR+WEbkR4r2p0efF9yYJ354rR515tqHBqTITMIoBPeX7W/bdpmdI2HU8SOjYbKCqYGK7Z1ATxfdlZpxE5F7fVkYlmy5wFi9OyPTeFzFsyT3OtMf5RTpxLE38rywVCmMMG/yvFX1nq/p2LyfSsmM5AimwGKg4aa6x9z+H2YQfk/PdX1imys+bKVyMGj9A06C0NB0yR/koZlvqKAdPT7Vr3+jX4nygNlIYQQQhS7CoOe6cn1B2nfH+XSIhstm7y4GhposFmpJ0N0bzvh+S5giWrZnSox3ehi+14XQ+fjRF/uJfJKN22vvIj9a21sXzUfDR0XrVfbwpuVMtJdrWazrCMZot9rI9gP1mY3d93txvKppTR+ajH0P89DP6yh9/Eac/V9H6bOeut6bAeDnDqbxr3UCoNJTl0A9f6WBb+klhBCCDEfrsI5PdMwohPeHyWzxEPb/jYCGxxozTasdSZMdbPzq3a9Od/1ZPy+yga/r3GSQb0ZC5B+t3yG0WTMyx14H+7g6b07cS3PkfiHfUQGp7ybGainvgEgw9AczCGYtWt81TJjXgK8k60wv2x6MsefJtgPjgf30fGwF2ezhrrcgqnOhOk//FHl4/+uqAd01jTQsHzifRu5IaCRhlmKS2b3+/ARl7/hFtY0QfrHCdJA+o3jpFFx/Flxn5EFy1KA98lV7LkbS9RhXVJjoUaMObj3QgghxNVvYQQ976YZMMDyBQeNpWd0+TwD52d+CMVqxQKc6a882yj9do3DvZba0BTIJXXSI5NvXlGDhn+LE0iTfXea+5gWheU2G6DzMz03+3ufrWt81bJia1JgOIl+YXb2mE2nADu3NJfPoi+/XoXjX0yiZ2fn+GMs2JpME+w7g57MQJ06fj7MbJiV78NHXX4zLescKBdPkbiQJvGTDGhObikZJ2dTNSCBXmWSY34hXA31s6Ov/FH+qX5+kEqnkUvp1J52QwghhFg4FkbQU1i0MpMeLPkVM0fqUJhZGeCzzM76ZZA7ESJaulJ9LsnRf6kxY9l1KuvvssKFXnqOpStvUxwMVUlTlRu+BJhQPjnJ8QrXJp2Znb4Fyyo3DsUg/kKYZKXenhHGl38qZusaz7dPKECaSpdcdXmwkqb3nyKVg96pXrtPKMA50qUt3PdihA6XXy/1dhdmUoQPJclNdKxp1BvbGg/W0X2XvJc7e5jwObB+eQ3VVtKpyUy/DxP4SMpfRPnTW7ArGZLR4yQvgmO1vTxrnN2JQzGIvhwhU3q/BiOETxgoq5zYr8xnMtNoM4HRR/LNku1HUvS+VJ48RQghhPg4WBhzem64BZcWIvV6Nx2KD7fdgqmw4GOf4sW3KkTonZkexIr7AS/xPWGC32rn/GY39gZTfuHM3gTKKieNJ2qbnG69awf+X7cRfKGNB/ocuG+/GVsDZFI6ybNn0D+3/cpq7PoLD9D1S42W2+3Yl9UDufzChCeSKDf5Wb9ikoPdoOFYCcFXn6Tzk17cK+q5lFO4ZVV5iuCamOzc87CLc/ujdH0jibZqDfbmRuqHB0j+QufMWQPPnokSUUxk9q7xfLI1OzEdixL8Xg/Gl+1YyGB8xoV9GbDMw457ddqeC9H29TiODWu42WaBbAq9P8GZfpXtT9c+X0p1uDAfixD+u04MrxtbHVx6K8rhIwNomz00vtA7/gMrPWzbkKDrWBc7zhXqVYNBSk+SSFjwf79w7OnUm6VudtybpO25Lnb81oHHVbS45+sDcJOfHXfObMbKjL8PE/kIyj/OIjuudSY6Xo2C4sCtVRiIu2j0+xai7Zs6rjtbxhYnPZEkc4OL1q3j1+ixrfdiOxYksreV9Ma7cK2oJ5fV6TsaZaDZhf1EdNaGVwohhBDXioUR9GDG8XA7PBfkxXiQ7tdAqbOirt/O3k0aHxyLz0LQAyz30P54I6Fng8QOdhMzFEzLVFxf34v3P6forrVBfp0F1zf2YTsdInToDJED8XwP1SIzjaoTX8tYw8ra4qfl347ys94eYpchn5nMhrZpJ96NWg1rrVhw7Wgl90yQ3ld66ELBfKufm1dNPw2BqclP5+Ma4QNhYvEwyZNF5fK40a6f9q5n7xrPI6XJT9uDBj3BPoI/jKHUWXD/dxf2wvuWda3sWxEjdPAwZ14NEv9nAAXzjSrOLY6pTWRf6ePxVhPdByJEnunCQMGstuDdtQ3n8hQ9L5R+wIS6tZOOpjDBQzH6XkoSA5Q6Cza7k7FYdXr1ZuzcwvQ+k6/Xilml5f52fKsaZ5xeeubfh4nNdflL2ZxuLK+GubTaWTWt+tj3LUT0YDcRo/B827iTRzdVOOcGFzt3KYQOhul7pYfk6DlsbmPbahOxc1ESs3saQgghxFXvDz788MMPJ9toeFhWvhNCiNmWO93FQ/+Qwr3rKXxTWevnGlJXN5ZLXP6WTIORI4eJKpn8hRDiY6H4b8l0LZCeHiGEuNYMceZ0Eurc2CuuIyaETvChTqKL3LR93zdr88mEmBXZKB2PBmEKS3BMWX+QwBNRXI/04G+aiwNkiO5pJUiFpSRyA0Sf66H37ABDl/MjIpxf68BfaSjytOUYOPY8PYcTDAwZoJiwrN1Gx1ZtDtbTExL0CCHEPMj19xLuB+uWNdgWRkoZMevMNCxVUBZNdQFcIcTMDBHv7iCYNKH+RYD7VtRz6cIA9Y2zG4oMne6m40ASk+oh8FUb9cMDDPzHRgl45ogEPUII8RHJnUuQ/J3CB29FOXwkydANbrbPZnIEscBYcT/2NO75LoYQHzfvnSGaNDDdsZ3WrxT6WJu1WT7IEGd+nMSoc7P9EW/hxy+N2T6KGCNBjxBCfESM30Z59h91DBSst/lp97vK1xYTQggxvwqLpFstc9nH+kF+mYpPN2CWvwMfCQl6hBDiI2Je28rTa+e7FNee3IU40d4Yp/pTZIYN8tkO7Xj+8h5cN1ZIoj6SY6CQHTOVzWGgYGqwYlvvZ/tG29jQkZq3GyJ56FlCx3XSw0Y+02azh4DfRWPp3NpsMp/ZUs/PAxjNzNhyuwf3BtvYMLWatqs830B/LkBnbjtPP6CSPj5+PoC1yYXvXi/aDeWXJXM2RM+BWNG51rO4qLG13NPG9tXVGnn5shzVOui8qx79SDfB3iTpy2ArmdORezufAbFPHyocx4ZzawBfc8m8j7LrX8gk2bQGl9eNfcn4QT7j9zualdBXIbOiTjDQSXRdKz33Vsg4WXGeyFTP7zBnUhlyRr7MVtt6/A+6sRVlYZyr61DRSIbkoeBYHR2tC1u9aKVLSPQHCTzxPtt/uA11MMrz/9RL4u1CGZepuLbch1ebWmO/7FyX2fH+VZXv51SuTZEhPcKLB3pJXMhNWtYpPzNGDetEgr0c70+RATjQSuBA/q2a5hVlk/lMm/3pQt2woq734R+XaTOHfuR5eo8nSWUBgrQGgvm3qtVZYHr1mtqfSQC5AWIHQ4Tj+pV5TLZVfgK+kkyh2Sgdjx5F29OJx6zT+0yQ3rNpDGz49xaWLRkeIPZSiMOJsXtgarChfdGFd4MdS5WMpXNJgh4hhBBXsRzJg930ZjRcm+5DbTDBcIpIuJfgY+fJ7enAs6xo85EM0e+0EXwTLFoL7jtVGi6n0PvPMIipKJCZ4nZv16Nt9ONbUU8umyDyUpD2swkCe1pxjjYqs1E6dgUZMGu4/Tux1QHDAyQScWI/T+PeYJvadhMZ1An/oJtoWsV11314GyBzNkLoZC9dAzla/4cftahRkTnWQduBAawb/Oxco2I2zpE88iKhxBCmG934NqlYrJOv3pa5dB492Enn6cVoDheqAktX1I/drf4gu56IkrvRie9BO5ZFl0idOExkfxuJO3bScbdauLYG+gu76DyWo3Gtj/uaLZjIkUn9jMRrp0gNebAvKS1/Cm504Lm/aA2tZ9rpi/np+BvXjFPW13J+V8rRoNFyx52o/ylH6hc6Z94BU3HAM0fXoaKcTnB3J9FhC9o6Hx7VAlmdvqMRuh6N4XrkcfxNpfd2EP3Qk3QfH0Rd6+G+TRbIJoi8FKO369vkWvfiV2ubWWL8PMiug4M0rvNw3x2jx44SfEwntf0xttnHByW1X5sx6Ve7ePRXWdQ7fWzfPLb2WOWyTvGZUUxpoNHhxq8mCP5jDNYG8Dfn77/5MxNfhyvn1aDh2uIZW1PtSBetp1y07vGjmgAUGm5swb1VJfFCDzGcBO62Uw/wqVke7jyVZ81oPco14ty8Lb9O4ltRDh/pou2nbnbu8Y17pkCGod/qBP+uk9gnNVo2qCgspfF64LJO8Fuj+7oPf4MJLmdI/WuC2I9TDG20M0epLyYkQY8QQoirmAnHwz04xjVoNbQVCm27w0R+ksKzZewPd/rwPoJvgm1rR9Gv8w6c/8U/bq81b3d0H8E3G/F9tw33lcanhkNbTsfuIMGXE7R8Lb9AbOanp0gZKoHdO3Gax7bVVnsIFO2z1u0mdD5KdJGfjj1Fjf1mBy1N3ez4QZRIwou6ql8QdI0AACAASURBVNDQvZwgfDCF0RRg51Zn4ZddC9avLyX3f7fTa5ixNWu1rRH22rN01Tlp/d5oA67I5QTP749irN7Jvvu1KwsZa823oD63i85Xg0S/2IF7KTCiEz82hOmONtrvLmp4NTtwbS7Z74Ve9h1Ioazeyd5x+3XicvTw6P4g+46qdGychQbjROdXKAc3jQ+yHKs9jKs1c3UdKsqReK6L6Hu28jq6fg2Rx9sI7X8e9fvbStYCGyB6TMG/pwNX8WdWaXTveJJoJIFXddS0iPlAcqAksMofu/dbbYS7X+SW4mNP5doU0fVchbLaqpR1as+McRZZUJstkM3kvyefUdEm6H26Ipc/r6GVPjp3ucd9J11fjNCxK0TXAZWnvmZHQcGialjIkDkMsBy1WZuTIKD2Z41B4kAXUcPJzu8F0EYvZrPGLZ8LsuuJCMHja8q+Y7FnujCtbmXfvSULlyfjRN8z4d7VPm45Bu02F95ZPsepkFGEQgghrm6V/lIts+NYArnUAEOjr43oHD+chmVeAhOl0K11O1Kc+lEabnMXNbYKljhxfx6M00n0keI3DAyjhnOqebtqTLj+a3nvhkm7BTuQTA2MvfjbFEkDbM3q+KEs1zWiNgEXdM7XuoSSoeD66woBAZBLxIgbFtxuraSxbEJ1ubCQJv7zTMn+DCa7DHq0lzQqvs2l+wVT8114V0L6R6dI1XgKE5rg/PLlsOINTNyrNFfXoaJsH5HXDUx3+IoCnoLrrLi/4kIx4sQSubKPmtb5yuu1SeOWzwPJFANln6iiyYuntCfpOivuTQ4w4pxJjp3ZtK7NdMpa6zNjlmROR4gbJtw+d3ndWOrGu07BOB0jMS9LldXwrBlOEDttYPnSnWMBT4GpaT2uJZCOJym9M8YiF9v9atXg2PhgRg+5WSc9PUIIIa5BCqbrgRH4YPSl7AApAyxfmKTXotbtLqbQh8HyyffRzybL3k4PA6TJvAs0gKXJjpUwwd3tZAMP4LnVWjLXJK/W7SamYVte4eVFJhaXvvbBNBvUldQ5sVdZSDelJwEVMkmSpa2joSwAA/+WBSxwnQ3tNoXYiS7ahr0EtrhRS+eeAJBh4JwBS1RsFaeZWFA1C7ysk7oItsmGgk2m6vmNlsOBtrTS+2Pm5jpUkT5PCnDYGiu/b1OxEyWup2DV+LxgWsXPKJhq6d4pYlpurZhSXVlhw0acc4MZKHzTpnRtZr2sFZ4Zs2RwIAU4Kn8nAZtqhxNx9N+A4yNMz1bzs+Y3Ovk7kyV5Nlvy5iWyAOezlN4Z0xp75SUXbBoOJUZ0fxuXvhLAd6c6K8NPZ0qCHiGEEFe34TTxk0fpO6MzOPw+lwqTvQEoXtg1k2UAsJkmmYswxe042UPXyRrKucxD27dNPPtUiMgP24j0WNHu9OD7kgNr3TS2m9DicXNIJvTHNlSiJH95jtwGy9ivsiNpUr8Glqksr/W4n662ZlCGzCCATni/XsOOTNgf2MtOcxdPvhqi840wppta8G66C1dTcbMqS/Y8sNJUNs9jlGIyAymyGWCmQU/V85u8HHlzdR2qHO1iGoDF1eryaBA8mCHD+AZr1c9MkfVTVZIefHIxJiB1aYh80DPVazNmymWt9ZkxK0bPq/p3UjHlf4pIXyy9C3OsxmfNaD3SX+5iKnem6r032dn23Z3U//2TRA52knjZhG2VF+9drqkF9bNMgh4hhBBXrVx/kPb9US4tstGyyYuroYEGm5V6MkT3thP+CMpQmr1rIqYbXWzf62LofJzoy71EXumm7ZUXsX+tje2rLFPeblbUOfBsfJHkkWfpPACBOzUsxgCx/9VN+IIZ1yPO2ubz1MRFa4+favmnxrnOjHZ3O09vzqCfPEz4UB/BJ2KElrtp/aYP2xR7HK4uch2qm8K1mYar4ZlxNZnKs6amDHW1ukHD9+2n8V7Uif0oTPh0kM6TIRo3ttK6xVbTfLHZdhV0NgkhhBAVjOiE90fJLPHQtr+NwAYHWrMNa50JU12FX9zrzViAodwkg7mmuF363anPADAvd+B9uIOn9+7EtTxH4h/2ERmc/nYzZdv8GDvXmhg41k37ow/x0K4uIrmbCXy7Umav6ainvgEgw9BU5y0oFtQNAdr276N9qx3T+QidBxKFX+YbaFgO/C5XdYiekRsCGmmoNVb8/XQG+5kxL5m4HHlzdR0qsyzJh6vvV6vLl3O8D7DUMmf9C1W/H7lLDAGW+tHegBlcm1pN9ZkxKyxYlgK8T+5y5S2M3PsAWJfMYS/PJPV6omdNvTnf/ZIZKp/7NVPKEhXXV9t46nvt+O0mBo508nxifub6SNAjhBDi6vRumgEDLF9wlC/ievk8A+dLXltqQ1Mgk9TLJtzOZLtcUic9MtGGE2jQ8G9xAmmy787CdtOU03t59rQF/3d76Onpoafnafa1BnBOtGbJlCgst9kAnZ/p02w4XWeicYMPz0ow3rnEJQAs2JpMcDGJXjrVAIAMejIDder4+TwK8Nt0xQnrqV+emUbhrNialAnKMXbgubkOVXxWRQMSepU0DimdBKCpNaRBn6bc+crXeejXSQZQWLlstKE/C9dmMlN9ZswSm6oBCarfhgSgoX52hgeajXpd4VmTn38FelJnju4M1DXi+m8ebBhk35uwVs8ZCXqEEEJcnT6R/1cmPVjya3eO1KEw8dLtr1NxbDDDuTCHz07wp3sK262/ywoXeuk5lq68TXEwVCVFUm74EmBC+eQUt5tFA4koQ4usWOZwTIlllRuHYhB/IUyy0i/5I4xdrxEDo1IgOZJj6HfA4sVXEjLY1niwkiJ8KFnWIMudPUz4HFi/vIaxZn0jNhV4M8HPSluH78XoPTa9Zp16uwvzaDkmCILn6jpUVGfHuUrBOBEmcrF0H2kiL0cxFAdO+xze+P4wkTdLXsvp9IZ1qHPi/NOx/pUpXZvpmOozY5aY7E4cikH05QiZ0vIPRgifMFBWObHXPGevkmnU61qfNQ0tuG9TMF5/nnCyyvdjKvelWrq44SGGAJNpwlo9Z2ROjxBCiKvTDbfg0kKkXu+mQ/HhtlswXc6QiIToU7z4VoUIvTP+I7a7tuF6o4vo/h2kmltw2O1Y/k8KvT/BmQY/T21Vp7Sd9a4d+H/dRvCFNh7oc+C+/WZsDZBJ6STPnkH/3HaeLqyOrr/wAF2/1Gi53Y59WT2Qyy9OeCKJcpOf9SuY0nazyXa7l8bTYbr+r9j4NxaZaVSdeO/1ot0ww4OY7NzzsItz+6N0fSOJtmoN9uZG6ocHSP5C58xZA8+ewmrt78bo3BWGz7tw/Lktvzr78AB90V7iF8247i1KabzUzY57k7Q918WO3zrwuIoWJ319AG7ys+PO4llJJuxuF+ZklJ5vtnNuszu/0OKFPo73JlBWO2k8ESsr/qRWeti2IUHXsS52nCvcvwaDlJ4kkbDg/35hnspcXYeKFOxbd+L6dReh3a3o6+6kRR1bIDSZNeN65J6SNXpml33dLfTtbSVdOLZpOEX0UITke2Zcj3jHL2g5lWszHdN4ZsyKRaPnFaLtmzquO1vGFic9kSRzg4vWrfYZDq+ber2u/Vljwn7vTlznuoh27SCptbDmVnv+e9avo7+RwLiro+a5jZmTnbQdAvtaBzfb8slT8uWMk7nBRaB5fiaqSdAjhBDiKmXG8XA7PBfkxXiQ7tdAqbOirt/O3k0aHxyLlzdgTCr+73agHQoSPtlH+GwMUDA12LhldcPUt7vOgusb+7CdDhE6dIbIgXj+F+RCsOBrGWtsW1v8tPzbUX7W20PsMlf2p23aiXejdiVla63bzZr3koRDEdKKFc2hYilqeb1/4QyJs710DRi0PeGrnH52CkxNfjof1wgfCBOLh0mehCvn53GjXV/Y8HoN98YkvaejhF7vLbqmLgLf9pQNu7Osa2Xfihihg2F6n8nfA8Ws0nJ/O75VjWVpeBXVz2M7TTx7MErfgW5iKJiWqbi+vhfvnw7QM52gBxPq1k46msIED8XoeylJDFDqLNjsTorb6XN1HSoXa6wuh46H6H7VAMWEtcnNzm960eY0W5YN1ePnPmeU5/9nmGdfzWGgYFZbCDzkq1j+mq/NtEzjmTFLxs4rRPRgNxGjcOyNO3l00+x8r6dar6f0rCl9Jibz+1LqLNiaPLi1+prLWa+5cff3Ej8ZIv7P+V4fxdyIujZAu8dJ4zwl5/iDDz/88MPJNhoenpfVlIQQQlzj6urGxnPI35L5kCayu43QJ0tWii/e4pU22l7O4Gp9Gv9cpdQSQogZKP5bMl0yp0cIIYRYqLI6iQvQ+AV71V+aLUuXA8bM5lIIIcRVToIeIYQQYqEqLBCZ/s35ylmZRjLE/iUBioM5TPAlhBDzTub0CCGEEAtVnR33BjPJY920/39u7lpnY3Rk/qULfZyKJEgNm3Bs/29zOtldCCHmm8zpEUIIMWdkTs/VIEf69QihSAz97aFCKl8FU4MV2+fX4P6SC3VOJ7sLIcTMzMacHgl6hBBCzBkJeoQQQsyUJDIQQgghhBBCiElI0COEEEIIIYRY0CToEUIIIYQQQixoNc3pEUIIIYQQQohrlfT0CCGEEEIIIRY0CXqEEEIIIYQQC1pNi5NKmlEhhBDTISmrhRBCzJSkrBZCCCGEEEKISUjQI4QQQgghhFjQJOgRQgghhBBCLGgS9AghhBBCCCEWNAl6hBBCCCGEEAuaBD1CCCGEEEKIBU2CHiGEEEIIIcSCJkGPEEIIIYQQYkGToEcIIYQQH1/9QQKBAMH++S6IEGIu/eF8F0AIIYS45oxk0I8fpvfoGVLZHAag1Fmo/+OVrFnrwXWrFdPH9WfFEZ3gg2GWPt6Gq2G+C3ONyEbpeHQQb48fdb7LIq4amWMdtKa99NwrtWI2SNAjhBBCTMVlndDuLiJZMN1kx9m8OP/679KcORsn/O9W7LdZMc1vKefPYIqkAUvnuxzXEOOtFCkWz3cxxFXF4Hwqxcf3QTL7JOgRQgghpiB9PEgkC7atHbRtsIx7zw8MDeUwz0/RrgoZPUlmvgtxjUnpCcA538UQV5ORFPpPgdXzXZCFQ4IeIYQQYgqGMmnAiWe9peL7ZnPxT7MZontaCeKnc7eLsk9ko3Q8GoStneMCKP25AJ3/vo2nHtYYONJNMKKTHjZgkRl17X0EfBqWccPn8scJf66NpzabiD8X5MW4ztBlUOqs2Dc9wD3rGysPuRvJkDwUJHS8cAzFhLXJhW+rF610eFp/kMAT77P9h9uwvxunp+d5+t7MYeCi9ft2kn//JNE3cwAEHw0QLHzMNnp+IzkGTocIHRo/LNDWtAaX1419iTLBlc+f41Gtg8676tGPdBPsTZK+XLT//iCBJ6K4HunB31S+B/25AJ0nXLTWOIws93aM0MEwffoQBgqmBhvOrQF8zeX3PnM2TPBQDP3tIQyARWYa1RbWfNmN66YqYfCFGF1PBUkOGkCUzkD0ylul5zC+LKCYVVo2+/CtqnJfS2WjdDx6FG1PJy4jyvP/M0ziQg4DBbPq4r77fGgN5edsVlvwbvHhvLGky2Ekg378OJGf9F05Z6XOgm2Vv7x+ZqN0PBrGtvspfKY4Pc+/OHZNl9nx/tU9uEr3X5FOMNBJdF1r5SFf1e5/Nkn4QJiYPsDQZQAF840qLbd7cG+wjf+RIjdA7GCI8JXvz0TnlL+eHrNO7zNBes+mMbDh31sY2jk8QOylEIcTKTLDBhTqkPZFF94NdiyLKp9l+mQXT72QJG0AJzoJnBh9p6Tujn6fXupDH8rvv+r9EhL0CCGEEFOXJvMuMJdzVi6liQVfJPyWise3nca6SwzEj9P7ahdtP3Wzc48PtaTRlBtKEflOmOP/wYUn4MZCBv30UaIH2kmcDdDxiHN84JXTCe7uJDpsQVvnw6NaIKvTdzRC16MxXI88jr+ptPGUJfOrKB1PhkjfaMe5YTEsUmlQGtC+vI2lZ4P0nATnV/3YC61JxVoPGOgv7KLzWI7GtT7ua7ZgIkcm9TMSr50iNeTBvmTyy5K5dB492Enn6cVoDheqAktX1E//OleR6w+y64kouRud+B60Y1l0idSJw0T2t5G4Yycdd6uMhmiZEx20PTdAvebG/7CNeuDShQSJvhjJd9y4bqpykLpGXFu2YzvWRbhfxfuwm8bCW+bPFJ3zsQ7aDqTgRgee+1vG6sIz7fTF/HT8jaskCK4mw0A0yK7XkjRu9LF9cz2X3opy+EiErl2XCNy/mPAzfVhWebnvDgtkE0QOxuh5PI1ROkfrreM8eTCG9fNu/JsaqSdHJhEh9GoXbUPb2fegvWRkVo5Lv47Qceg4prWewv51+o5GCT6WIPHVDlrXVv4hYUayUTp2BRkwa7j9O7HV8f+zd//BTd13ovffS+4p3YPzyOlj0bXYi8JykrtnvD3xVrDIFNSAaBHZuEw1WbSZqNk6fRqyDfcG90ncHcTTOPfi3MZkY+iSbkwneG8Qk4onI4aIbUQWQRCpLSYoJep6Tncjmogu8hZpArp19JScWef5Qza29cOWjAk/8n3NdNrq/Pqe7/cc/P2c7y8YThGPx4j+Io1rjTIhiaPvQ96K476N2Brk0fyp9M5lyP2bjv9vu4l+VqNljYpEI9ZbgUs6/u+PneshvA0yXMqQ/Hmc6BtJcutspR9BRs1b5MTziEJ4ZxC9yU37mstPBZaxnUYyRH7gw/8uWJe10ma3Uj+cYiASou+pAU6UaYn+tBNBjyAIgiDUQGmyIx2LEdgdQtncivVqfVA9GyI410vX/zNeodWaHdiVLnz7wviPrqRrnWXyMf0Bwqs6ePpB9XKFU1vWgvbSFrqP+QnGW9hoG6uq54m/1EPkgoLnGR+uywGHhn31SsJP+wjs3Iv6dxuxTaropQjuSmHd0MXzRZUqc7OZhmwh0lnYpE1uKRpJEDuSQ/6qj877J1Q0m+0476shX97cQ0+dg47nvKhXK+8vxdm7M4Kxop0d39LG87J5CepLW+h+3U/k7i5cjQAZ4m8kMZra8LU7xlsNmjUcf9429XVMVrRmkBLAoAWlWSttgToXYse+JNKKdrZPSosDp72PJ3b62XFYLX0WKogfS+F5pnu8vJs17jJ3s/nFGH0vmHA+vn1CoKtht8o8+nSYw/1pnF+bcI3FHp5/wTN5HuBmjXpjM7tORkl4bdjrJl87tj9cFEhr2JdrhUBjX5C4vfhZu3KZt0+QNFTatrbjuFw4GtqKViaXjkF8Xw8Rw0H7c21oY0ls1lhyp58tz5Z/56Iv9iCv6GDHhHcOgESMyAUZ15ZOPBOCXm2ZE/c0aTYt1NAWSiQAfb6C1lzaqpU+tAP/uxKO9u20aeP5qS130tL3BD37dhBuGntGBRBTVguCIAhCTSTbN+hYZ4V3g3Ru7qDnQJTkeeMqXEnG+RelX/DNqz046yD9Rpx0yTEq7vVFlS9k1PVuVAxibyW4nNLsAOGTBvJXPRMCnlFzLLi+7kQyYkTj+aKNBsadXjbN9CuyYXBFuWVIOP/6KgY8QD4eJWaYcbm00rx0OjGTJvaLopFLvzP46CqkRY+ESKPiua84LSA334t7MaR/eoJktSfUnDiKytv0xzYUgMWtrC1u2btDowXIXMyVnqukFimj2WyATvLXZa7d5Ka1+PyySqtbBSPGqcTVeI8ADIzpTj0cJ9pvYP7K2vGAZyyJTatxzod0rHS8mjHXySZv8Ts3YftHV+GeRnSOHkpDkwd3cWLnyGjr3SikCZ2o+qn4VBBBjyAIgiDUREbZ0MmObRtx3f4h+qt9dH3vYR7e0kvk/eIA4UooWMt9pZ2joDYD55OcHS7aVmfFUm74iElFWwgMJkmN/ZY+SxLQFGuZAwBFxQYk9NKKk7Z8Se2TNcxR0JZJ5I/14PtRGD1b6wlG1TmwVeouNkuSegJogEyCxOmi/yQLCU/9+9gNmNFsFjjjx/dUgNi52XwGMqTOGDBfRSmb4WZUzQzDOsnz1Z3RvHhhaQW9wVLoVrfQUrHLVbUkeR5gwEjpNnmhpexzY7pTwwok3kuV2XplzE02LCTxb+0kcDJNvky6APiVTqHUs6VlfjpJFuBsluLHVl5pQylXm1Y07FKeyE4fu17TyVS67kxkUyQNMN+plH8PG1S0+ZAfTIpJRSYQ3dsEQRAEYQbkBXY8W+x4jAz68UMEXonifyrO4TXtdD5Q+ctv9cyY6spvkW+VgTwf/g6YuM/nGyoEI/OorwfOjreyZM4X2onmyRUmD5grFyZRHsqQgUmVYbNpJncnY3t4O+2mHna9HqD7rSDyHS2419+Ls6mGqnbFe5wtGTJDADrBnXpVR1i+5qNT3sPz+8P0bg2zp1HDtd6D64rXa8qSPQsslqk0xYMkm4Ak2QxQxZgoU6XynoHMYIQTJ+LE3svyUS4zOklAZZbPVSg5uR4TkPrdVWgVWdCK70mZPc8HCL/gI9xnQVvbiucrdiwT3p2x90E/0EN1pV5Q+Z5sbHymnfof7iK8v5v4ARlluRv3vU7UKx0LmMmSApSKZSkh3wqcKQRpYmRPgQh6BEEQBOFKSGbUNW10rl5L+AedBI7sImR/Hs/iq3dJY9q+OiVH8OH/d1WSUps5JrT7O9l9XyFQDB4cwP9slMBCFx3f86BcVxNOVT/LG8hY12yie3WO1FsRggfDhF7wEQrY2Pg3m7BXEYzcUEYyRJ7z4R8ES7OLe+93Yf5cI9bPzYPBvTz6Qqy28xkfMpvtY8Xk251s2u4kdzZG5ECI8Ku9+F79CbZv+9i0fHJIUGnmvxm5TcPz5G7c53WiPw0S7PfTfTyAdV0HHRsUsQTPJ0x0bxMEQRCE2TDHguvrDiTyJN+rslPJyFTjWzLkiruvjTJ+ZwAN1N9atOE3WcqMvAA+wrgEzDddbiUxzy8MyP4wXyEFl/J8CNBonv0vxaOBom/nDjofsCGfDdO9L35lY32qUF2sWE99A0yV/xXNMWFd5qb96d10P+bEOhyn94fhMmOvqtVAw0Lgt/mKeWPkc4CVhk/wc37m6G78g2B/ZAddj7lxNGuoC83IdTLy73+m4nHpD8o/nWPjvMz1V9iG9x9TF7BpoR33Y13s3t6Oc2Ge+I93EB4qbKs3FZpfMrnZD7+k+SrOb/p4/rlOvDaZ1Gvd7I1fwdNubsAK5Cq9uxjkfwssbLiqE0zeaETQIwiCIAiz5TNSoRvSLWMVv88U/tKeHSoZCwCQT+pUHsWgkyy3cSSJfhpYYKWxeKar4SSpchfK6STOgqRMGLPxRyoaEC8zZgeApE4c0FSl/PbZMEfGusZD62IwfnORi1d8PpCA1PlylevRfJuWxEJFAXTe0WdeATY3e/GsAM5VCkSrOgtKkwznExXGQGXQExmoU1E+wdakbDoJ2FjSXNpWkX6/cuew/L+myo4xyf1rghQSixdUEblJwL+ly+Zp8penpj8eoEHDu8EBpMl+MHraRQoKoCf0q9fqVGfF+ZetKBhkL1zB0z5fQa2DTEIvP2Ynq5M4D3KTIrq2TSCCHkEQBEGoWp5crsLX1ZEc0UMR8liw/fHYF2sTVkUGY4DEu8X7Jwm9kpjiWgbRg5GSAdCZowEiw6DcbaN0kuIkoZ8WV9ry6AeD6Mg4lmvjY0PqbDiWSxjHgoSLB8GPpAkfiGBIdhy22jrhfOYWgDTZC8XnNDDKDeYeyZP7LTBvXmEM0ZX4zwoqkIy/U1Ipzr0ZIlJly415uQu7ZBB7OUii3DEjTBqoX74FKU/ufwN1UsXxOJfdIgFpMmVq8srKViwkCR5MlFTG86cPETwDlntWchVD01K3SMAZ0sWB2IUogUNTtHKeCXF4sOgu8jqhoA51Dhx/Ml1OWVFU4N047xTn1YUooSNlwpUKzXv54YuAjPTZ0R8aWnAtkzBO7iWYqBD21DIZQaVmxeEcOUCWq3jaJeB8pkyAp7DyHgucCXKoOK0jeRIHgySx0LryE30qrntiTI8gCIIgVC1FaHM30TozSpOGZax7mZFBj+ukh0F5YPOktTGU1W6UI37C2ztIr7sX56J68qOLMqaandiORcq3BNxmw0YA39YErnucKGMLUp5MwR1eHl5d5huuakc93cMT/9aC22kbX5w0kcO0qgN308RKpYTtgXac/9pDYGsH+qq1tKjjC0Ymsiacj3+j5nVTTF+wo+An/PfdSG4XSt1F8nOXYDcP0L0lCF90Yv9TpbAa/ehiirHzJpwPlk7JXLM6G641JhJH+njiqTN4XIVFRVOxo4TelnCssBJ5s4rzyDa+8ZiTMzsj9Hw3gbZ8JbbmwuKPiX/WOXXaoHXb2GKdOoGHe9CbW7DbbFjrgEtj+S6hPLB62oBEaXYgH4ngf64P455CuRl/6MS2AGh0sfnBBL6Xetj8b3ZanRMWJx19FjavrW6Nntmi2p2YjoQJ/m03htuFUsfoIp4ptPtasb4cKn/cMpVTO58gtdyNs3nCs3bBhPNxd8liu6VkbC4npkSEvu91cuY+V2EB0XMDHA3FkVY4sB6LTjpCf/lhen6p0fIlG7YF9UCejD7A4WMJpDu8rF404dwPtuM800OkZzMJrYWVS22FvB7U0d+KY9xb/YKfmePd+A6C7ct27lLMyDCazhiZ25y0lWklm0zBtkImcsxPz4sGLpsZsgYL1xQ+dljWbsY76MPfs5nUslZWT1icNPZ+6b9Dggh6BEEQBKEGFuwPuMj8LE7qdAR9bLaquSasqouN97mwLyiqzDQ4ad8iEdgfZODVPhKAZFJpuc/HxhUy0TMR4uUudaEex7PbaTm4h0BgF6FhA6nOgvq1drzrtZL1ewD4SMG9zYW6P0Cwr4fcpdFrfetRPMutpUGFrOJ9pgvtoJ/A0QC9rxsgyViaXLR/zz15cdFqNThp78jTuzdE6MUemGvC5r0L+x9puNYlCPVHCJwMFcaozDVhVZ20PdmK4/bZGNYtod7/FO3yHgJHB/C/EB29HyebnnGj14pzEgAAIABJREFU/bqvuqAHkJu8dD+tEdwXJBoLkjheOL/coKC1utAuj6eyYH+ghfQ/vUPodLRwX5KMWdFofcxNa/P0lWSpyYvvEYM+fyHNUp0Z139zYhvdbl7VwY5FUQL7g4RejGEwVq6dhXL9pPvtLPbwdIdM774w4Rd7MJAwqS24t2zEsTBJ38vlDzMUN0+7VAL7g+zZmbt8XNujnqrLX1K9PNUus2d/hIF9vUSRkBeoOL+zHfefpOgrCnosLV5a/v0w74T6iF6Cy2W4vh33uqL3aML7EDw+QDBROJdUZ0ZpasWl1VedRfWaC9dgiNjxALF/LLT6SCYr6pfb6Gx1VLGosYTq9bFxpI+9/X5635SQG1y0rxl9KuaYcX53B0p/gMArIfpOGjCWn09Wn5+fJr/38ccffzzdTsPDtY7kEyYx8uSRmcVZIoVRxnAeZBlJdNQUhOtSXd34nLDib0n19Jfa6D5Wy+xhGSLbOvDjpXurU/TjF64v2QhdT/jhge6qW0oEYaKJf0tmSlQVrzod/6OP8uh3A9WvlpyN0NXWRtcRsaRUQZ7UkV46Nz9MW1sbbQ8/Sse+BJmTu3j0vz5K9/EJHUNE3gmCIAiCIAhFbsDubTr+tm4iRb9KdWYsio3V62eriXy2mGholJDmXu3F1G5euf5euvYlkNVW2r6pUD+cIvV/WDHPMyMjYaq7zprQRnT8jwRpfHqsv7cgCIIgCIJwLd2AQc+o+Q7a7rdRD1w8l+Dsr9OcOh2m73SEo1/rwPd1ZfrZUj4RFlxP7cZ1rZNxw8px6o0ERp2LTY+7UeYAaGgAeNjR57mmqStrKEnCADF+UBAEQRAE4fpw4wY9ty5EbdYK/ZabC1Vgbz5F8LlOQq/2EbF3iVkrbgofFaaI/HwDphukM2ZGT5SfN18QBEEQBEG4Jm7coKcc2UrrWjuhH8WI/zKHq7HQoUx/qY3u/CZ2P2Ijc7KPPv8AyWEDVnXQ9+CEIaLZBMF9ASKDafIGhVlyVnsmz5IzouN/pJvIwsqDRfWXHqb7mELbjg4cpikGlw6niL4SIBjTx2fYuc+D54+nuMeRHImDewgc1UkPG4WZb5pbafM6C9NkTpRNFGad0VPkRmcsMd2u0vKlVlxrlKm72w36aXs2w8a/a0f7dYjefWH0c/nRmVacPPSQp2RWn1nNZ/Lor+0ldDRBMgvgp6PNX9g0dr5BP23PRnA+3oe3aaqbGTtliuj+CfldZ0ZZ7qXNU2YWpJnk3bBO4Ie7iLxbmDPf/0QboylGKR68WVUeTKXwXB3WuuhebRDx7yb49ui5TCrOb7bhaTZXfsZWlM7ilD8XIxKKcmIwSWZ4dBaY2220/tU3cE7qMjrh2vdKJAJ9+PtHj5lrQrW78WwoMzPNSAb96FHCPxtAfz9XmH1omjII7PETTWZG88hM/cRzWu/F9x3HeFnUUr4V8rPiIPBKg3BH8/dQfDzP5AYF7W4n7jW2wpS8l++/2nd3Yv7Wo7/Wiz+UIH1pwnM0kifVHyBw8BTJbH48L5tW4nS7sM2/Ptq5hZlTH+yj78FajjDj3NqH82olSBCuRIMTX594OoVr6+YKegBpbLGn//ho8oZsBv1IF7v2p7F+0YHzVpD/eLzWnh/0s+XZCPkGDeeGVtQGCvO4v9ZDxwknHdu8qDIwR8W+SibyeoxE1lk6ZmNEJ/6mAU127poqqsjr+L/fTWTYjLbKO742wsEutvxzYQ72kmWtRjJEfuDD/3492jovnkX15LNxwq/46Twdp21bB46x9GQjdG3xkzJpuLztKHXAcIp4PEb0F2lca6pZsCpHut/PT4JJ1FYPmxbUj84xH6ZnSxxXexcetahyNVv5jETD7S24HlCJv9xHlPHujHxuBusR5HX8W7uJ5K047ttYmNf/vQiHXuvB97aL9m2e8fUBZpp3UgPaPRtpPO2n7zg4vunFNvoMSJbxaS6rz4PpZc4exf/9KIn/7MLzHQ/1w0kiB8OEd/q4+M2HmHdwDwMNLbjbXJjJEP9pgOiLXaSNLnyrJlbt8yT29xLKaDjXP4TaIMNwknAwhP+ps+S3ddG6oOjavzlB4HsRorfZcHk2Ya27SPLYIcLH++hKG3RtKQoe3jvKrv1RLF904V1vpZ48mXiYwOs9+HKb2PGIbTwQOx+ha6ufVKMTb/tK1HqDM6fD/GR/nJxsxXW/G/X/bBzfv5bynS2XRt/hvBXHfQ/hbZDhUobkz+NE30iSW2cbv/9a3t2x/L14Ft3fTXf/PDS7E1WCxkX1gIH+8ha6j+SxftnDQ81mZPJkku8Qf/MEyVwrtk9wZXZBEARBuBHcdEGPkf8QKLPS7dkgu85a8Wx7HmdxhSAfZ+/OCLnFHrq3uMa/Cjfbcd4dpmtLgJ59Ks9/24YEKEscyK+HiZ3O4CyaetH4eZSoAdryJVO0pBjor+wicsGE8/FOvE1jVTcN+2o7we93EoKSxczSh3fgf9eK5xkfrsv3oGHXFtK11Y//QJyW0TRm3j5B0lBp29qOwzS+r7ailbaps3CCFKFXJLzbOsfzrFnDsVSha6uf8L4IK7e5Jq8IPmv5LGFWNcxkyBwCmNCdsWYG8X09RAwH7c+1oY1ld7PGkjv9bHk2jP/oSrrWFe5kxnk314zabKYhWzhoYZNWusZFjc/atOIRUvd30/3VsZzR0L7QQPfmPmL/0ItpVQfbH1QvBwfaUivyY12EwzHSq1onlJ2M/bE+7JNaRDS0RRK+rUHCP0vSuqHoiewPM1B8/mYH9ld9+A4EOXrGiWfxhP0Xe3j+Bc/kOSObNeqNzew6GSXhtWGvAzCIHwwUyuC73stlYG7cROPvOuh81cC0WEO73H21tvKdNf8SI3JBxrWlE88d4z9ry5y4i3at5d297M099NQ56HiuKAgeSRA7kkP+qo/O+yeUSbMd532zeYOCIAiCcPO4QUZJVGk4QeDlGEh2HLaiT+WGgfLgptKKOJDpDxMzZFweV2k3mEYX7lUSRn+U+NgSE3fYcNRB8o046ckXIfF2HIMy159oJEn8zTwsbmVtU9F+c6w4XeVWZUhy4qdpWOYqvYf5DlxfBKM/gT4yOT1GSXNRbeRVnjLXc+JZJcO5o8TPFW2bzXyeLcNxov0G5q+sHa8Qj5KbVuOcD+lY8TicK8+7cmY/DzScy4tCQZOKbTGAQus96uRubHMUtKXA+VzpCvDl/jVYYMM+H/LJVJkV41Xc69WSbnIWmx0zeZLvlRnZVHINGc1mA3SSvx77LUUyYcBiG2rRlwPrnRqQRn8vP/7jjMp39hgfTfegzOTdBQwJ519P0epnGKWtwYIgCIIglHXjtvT8JsahfUOXv4waWZ1Tg2nymHE+9g1sJV1ZNBzN5dtehlJJwI6ysPylFNUGx2LovwK7BqCw8itmwgdOkBhyYRn74nwpwam3DKTlS9Cm6kozOruXWVPLtlyYFqmY0Sf/eD6JPgzmz36IfjpRckx6GCBN5gOgAcxNNiwE8W/tJNv2MK1LLTNasVmxlv86rjQtgdejJFN5mLT6+Gzm8yz5lU4CUMmSOJ0t2niRLMDZLFnAzOzlXTmzngfzFRaWrNdlxrIQOGPFcsVTZkvItwIj8FHxpvkqSrminivXND17oUuqUZiwAgAD49IUBxSrsXxnjaJhl6JEdvq4+PU2PGvV8mOHanx3L6tzYLujZPdC4LpMInqsB9+wm7YNLlQxNbogCIIgTOnGDXqGk0SPjC33KSE3WFBWtdF6j6N8RQwzprKLuWbIDAHMQ64QqIyNE0qfzzBWbbIsXY3lQIATp9O4GguBgfHPp4gbErYvalN3TbqYIwMocoW9ylUaM1lSAMf76Dk+1clHLWjF96TMnucDhF/wEe6zoK1txfMVO5YaFrU1myp8Zp4nIwP5/Icw6Vv/7ObzbMicL7TH6Qd6ikPJ8mYp78qkZPbz4FZ59qZmH04TO36YgVM6Q8MfcnF0gDwAi8vsP4NrZwYjnDgRJ/Zelo9ymdFJIopZUVSIJHTO5J2YJzxe6TM6YEFdNP5jzeU7W2QbG59pp/6Huwjv7yZ+QEZZ7sZ9r3NyEFLruzvm85XW9pKxPbyddlMPu14P0P1WEPmOFtzr78XZJFY6FwRBEIRybtygZ3Hl2dM+EY0aKxcECPwsQXqdBQsGibdiGJITx59evZmTSmYBm4J8u5NN253kzsaIHAgRfrUX36s/wfZtH5uKu0TV6qMbr2tN1bO8cZXz7jqUH/TTuTPCxbkKLevdOBsaaFAs1JMhsr2T4JVeYCRD5Dkf/kGwNLu4934X5s81Yv3cPBjcy6MvxCbsLGP/moufJMLsecYP31qL9jmD1IkgvQfSmFZ14CgzHX0t5TtrbtPwPLkb93md6E+DBPv9dB8PYF3XQccGZdLngFre3WnNMaHd38nu+zLoxw8RPDiA/9kogYUuOr7nQbme1mcWBEEQhOvAzTWmZ0bMmBsBPiRfoUvN2OQIlvkTKywWbHcrcO4EiSEKXdtOgrzKjjpdrtabMANGcR/+MSNlAorRY9IflI6smI5poR33Y13s3t6Oc2Ge+I93EB6q7thMLl9+w+h4ggZTffntJWaaz1eu3lT47F7xXqZwJXlX6trlwZRGdII7I2Tmt+Lb6aNtjR2tWcFSJyPXzU5LUubobvyDYH9kB12PuXE0a6gLzch1MvLvf6b0gMUennrMgXw2Qu+THTz6X330HM5z17c6edo7eRzRlZRv1cq9kxNI81Wc3/Tx/HOdeG0yqde62Rs3xhI443d3WpIZdU0bvp076HzAhnw2TPe++A33QUIQBEEQrjYR9ACKqgFx9GT57Uk9DmiofzT5d/PSlaikOXE6XejahoxjSRVTQTdYWAykEnqZweFgpFKF7jATNSpoEuQTOulKwdK019XwbnAAabIfVHeInixJCQDJwVOABesfVl8lnmk+XylpkYIC6AmdGVeLZ5B35VyrPJjSB2lSBpj/zI61+F+ES2dJnb3yS2TTScDGkubSJoj0+2U6peV1Qi8NYH6gm76+Pvr6+ti9o4O2FdaS8VWzUr58pvCv4dkhikcFAeSTeuk7WU6dFedftqJgkL1wsfDbbLy705kjY13joXUxGL+5yMWrdBlBEARBuFGJoAeQbQ7skkHkQJhMcaVkKEzwmIG03IGteDyH6S7sTZCOJ4gOxjEqDTwuNldjyXIJBoOEBouqaSMZIodjpcfMUVl9rwXOheg7ki7dDhMGgkOlqcfywxcBGemzVaQTMN4MEjlf9OP5CIFjeVi8GluZbkaVzDifr1RDC65lEsbJvQQTFarFs5h3n7kFIE32Qum2a5YHU7ml8F+Z9FBRC0Ge5MEgZZ7GGVxDAs6QLo4oLkQJHCozr9p7cSIXJCwN80q3Fau1fMsyYVVkMAZIvFt8bJLQK6UTEFSc3m+4MDPe5Wnza313pzNilG8lHsmT+y0wbx5V5JogCIIgfKrcuGN6ZtNcG994zMmZnQF839Nxrm0ZXzDyWILMbU46Hii3boqJJcs1+n4cIvgbA3mlrWRtnfIkbBs2Ytd3EdnZSWbdvTgX1ZPP6gwcjpD6ghPbmUhJK5Dl3s14/9WH/2UfDw/YcX3pLpQGyCR1EqdPod+5id0PFqa71l9+mJ5farR8yYZtQT2Qv3w/0h1eVi+qJp0mbF+EwPd9JNauxblobHHSGCkUvA/XOKZqxvl8pWRsD7bjPNNDpGczCa2FlUttWOsukhrU0d+KY9zbdXm8xZXmnekLdhT8hP++G8ntQqm7SH7uEuyqfA3zYAq3LcGpBUie7KVL8uCymZEvZYiHAwxIbjzLAwR+c2WXUO1OTEfCBP+2G8PtQqljdPHQFNp9rVhfDk0+QLHjvj1KcOejRCdtkDDdruL4+kO4tbFh/rWVbyXKajfKET/h7R2ki9/JZie2Y5PfyczxbnwHwfZlO3cpZmS4/H5kbnPSNqFVq5Z3d1ofROneEoQvOrH/qYJ5LjCcYiASInbehPNBrWQacUEQBEH4tBNBzyi5yUv30xrBfQEi+3sJGyDVWVDXtfPEeq38VLSMfrn/cYLYsBn3l6oLeQAw2dj43ztR/H2EDvfRcwkkk0rLfT42rpCIDEYo+bY8x4zzuztQ+gMEDp4ivC9W+DI/14RVdeBpGZ9e2tLipeXfD/NOqI/oJSjMcKegrW/Hva7y/UyWo37lDrYvD7Jnf4Bdr+YxJBlLUyvtD7hLF96swkzz+YrJKt5nutAO+gkeHyCYKFSlpTozSlMrLm18bNIV512Dk/aOPL17Q4Re7IG5Jmzeu7CPJeVa5UFFJuyPdcJLfn4S89P75mh6Vm9i+3qNj47ErjjoYbGHpztkeveFCb/Yg4GESW3BvWUjjoVJ+l6esO9IjkQwQHhIwtLcgtowIQT8bZpTpxOEep7E2LpjfPHTGsq3ogYn7VskAvuDDLzaR4KJ76RM9EyE+ITd6zUXrsEQseMBYv9YaPWRTFbUL7fR2erAOjHyqOHdndatGq51CUL9EQInQxPO46TtyVYct4uQR7g+GPk8fFZGEn1KBEG4Dvzexx9//PF0Ow0Pz/ZqkcJ1b9BP27ORazMjlvCpln7Nh2+/jOcZH64yi9xyLoRva5DMmg52P1Bl64hwzdTVjffVFH9Lbk76S210H3PS0efl8hup+3m4O4K0zsfzG4o+CF5IEPixn2gyQ94ofFzwfK8DZyMwrBN60U94MF3YVmfF/UQnrgprmwk3mWyErif8MJuzXQo3hYl/S2ZKtPQIgnAdyaDH07DQg61cwAPQYGEhkP6PTzJdgiDUpL4BiyQhmYtWmxpJEvgfPYSHrTg2bMTWAJnkRyifB0bShH7QTfC8GdvXN+JohEzyQ6yfvyZ3cOVGdPyPBGl82oezyp4RhQBSwbt9imNGdPyPdBOZ68K304NSoSUtc6SLjn1JQML5+O5pP2Aab/Xy8I8KozjFB0/hZiSCHkEQriPzmDcP0FOczTNpYdIxmRNh4kjYm2roTioIwier0UXnblfp7/8SI3IB1G+107ZiNCBqHt12Ls6Jc2D++mY2rbNM3nYjGkqSMKCG+X6qYvw8StQAjAiRn7tRbFONApWQJINofxxP01TjRXMMHJ+VaWsE4boletoKgnAdkbG5nJiMGL1P9hB8M0Hi9Oh/3gzR+/Sj+PYlkZdv5C+n/EMvCMJ1aQQMwHKbqXTbxRwZQFtcwxi361hGT1BmbsorlGPgWAxDc+NuMoi9lZhmXS4bjhUyRn+U+FS9S4cGODwoYV9un2InQbixiZYeQRCuK5Lq5emnFcL7w0T9PYRGF3KV6sxYFAeex1fjbBJ9vQXhk5Y5HcT/SgT93NikNk48D7rLtx4Uj804F6PvlTDv6IUVryLPthEBQMH7uIvciQjR03rptondvPIpovsDBGM6uUujE5Us99LmKZ4AJkNkWweHtS66761Hf60XfyhB+hIoRWNFcokge/aP3hMSpttttP7VN3AWTQiiv9RGd34Tux9WSR/dS9+hOKmcARPyQbttdOdhncAPdxF5tzCFvv+JNvyjm4qvX7OhAQ4PgvZtJ44RneCLEQbut+EoE0MWZGlsasVyLED0dA77ivI7pt86Slpy4F0Gsf4q0zLop+3ZD9n0wkZsH8To69vLwLt5DIrGd43kSfUHCLwygJ4zYGwimw2e2iZeqbr8gWyC4L4gUT1FbnRCItPtKi1fasW1RqFidgk3NRH0COU1eenr817rVAifUnKjHfdjdtzXOiGCIACF8SG+fUm43U7rt1oKU8LHjrLrezo2rYoqZF0jti+7sS0K03NAR/16++jkBBKNZpkhuwvFQum2W0ePz+v4t3YTyVtx3LcRW4M8Ou19D763XbRv86DOLUrzxbPo/m66++eh2Z2oEjQuGp/JsXBPKeo1F977FOpHp+r3PxUn/s0uOr5cFJwM6QR/1EskreK89yHcDZA5HSZwPERPKk/H//QW0iA1oN2zkcbTfvqOg+ObXmyjWSRZqphJcgrp0ydIY8dtkzH9zo5KH4f70zjWTdE6ZrWxenEAf3iA9AoXJXuOJDnxTxnkVXbUW2rt4pYl8y8RunYFSN9uw7FmHsxVuTwcaSRD5Ac+/O+CdVkrbXYr9aNT7Pc9NcCJB6ZfTgCorfyzEbq2+EmZNFzedpQ6YDhFPB4j+os0rjWia/SnlQh6BEEQBEGoLBth974k3OGl62+cl7+qa80OnCd72fxCcvpzmKxozYCUAHQsizW0CQPlzfMrbwOD+L4eIoaD9ufa0MYaB5o1ltzpZ8uzYfxHV9JVXPF/cw89dQ46nvOiFjcoDIXZsS+J9f5ufF8dr3RrSzUW/sCHf1+QuH0jtomB1NkIkbleuraN5wHNdlqaetn8owjhuBt1uQxzzajNZhqyhUhnYZM2oyUeSowkOfHTNNJyN9pcYG4LzuV+dr0RJ73OUhrMXGZmyd0q/hdPkBhyYSkaZGT8PEJk2IL7bgU+qDXoSRHclcK6oYvnywQv6UM78L8r4WjfTtvlgtPQljtp6XuCnn07CDd14Zpy4FNt5Z95+wRJQ6Vta/uEFjANbUUrbTXenXBzEWN6BEEQBEGoKHM6RhIJx3pnSTcieakT55XPJDu14TjRfgPzV9aOV3jHrt+0Gud8SMfKjJ8xJJx/XSbgAZInQqSx4ypuzZljxvEVGxgxEv9SfJSM8y/K5IG2BBuQSKZqvrVaFIITGefdYxMSSGhftCGdD3Pi3amPNS11YidN6I3iANUg8XYcY8FKtBnNuGBg3OllU7nWmhGdo4fS0OTBXVxwc2S09W4U0oROTBM0z6j8DYypBzsJn0KipUcQBEEQhAoMziaTgB21XK+gOVaUJuDkVUzCr3QSgEqWxOls0caLZAHOZskCk6redQ5sd5Q7YYbkYB7mf4YP9UTpQuBDOQDS5zNFZ9RQyq0XNFdmXtU3M1NjwYmblRPuSfpTJ866GJE34rjvmGJ2trkaS5ZLxPrjJD3K+DTXuQEi/Qbqt1qmaCmamrZ8SfkxMtkUSQPMd1YYQ9Ogos2H5GCSDAoVO7nVWP7mJhsWgvi3dpJte5jWpRZk8YlfQAQ9giAIgiBUdJGLWYB5yHPLbZeQaxiLPhOZ82kA9AM96LUc+PmGCgPWs2TPAkTp2xmt4YSV8uATMBqcyLenOLrPP2lT5lYw+k+ReNA2uTveJBK2u53I/ZOnuU73H0aX7GxaOvOh/WZThQcgkyUFKHKlUExCvhU4UyZgnXiaWst/QSu+J2X2PB8g/IKPcJ8FbW0rnq/YsVztVknhuiaCHkEQBEEQrnuzvmDmYi/dW52VWxiuI+n+w4UK//sxIu+X2yNG5K2/xFZhdjYAFttw1IUJv5XgIZsNiTSJn6WRlo6OEbrO1VL+8u1ONm13kjsbI3IgRPjVXnyv/gTbt31sWn4jlLhwNYigRxAEQRCECuqpbwDOGBgjlB0JfLXHTtSbGoAkmVwemI1mJROm+cBvsuSo3MJw/UgTfyMNyzax+5FyXdjShLf6CFSanW3MHIWV91gI7x+d5vr8CULnZJx/NdWipVfA3IAVyOUrPSAG+d8CCxuYap6HKyl/08LRmUCzCfx/t4vIj3cQXjTdxAnCzUr0chQEQRAEoQKJRosZOIV+ptz2NKl/vcopWKSgAHpCJz8rZ7SgNEkwnEA/NysnvLrePUH4vIR9qVYhOLFgu1uBc0eJT3M/luaVWNA58VYGfSBCfr5r0hihWTVfQa2DTEIvv0hrVidxHuSmKcbzMEvl36Dh3eAA0mQ/mOlJhBudCHoEQRAEQajIsnQ1FvJE/t8ImZHJ2/KJw4TPX+UENLTgWiZhnNxLMFGh2jtS/udKVGcrFtKE/leYdLljazxfOZ+5BSBN9sKVnMUg/kaEvGRjyZ9Ubo8xL12JSoZwdJqZ0BpbWNsEyZ9up+9NA8vdthlPYDC9QssSZ4IcKi63kTyJg0GSWGhdOc26ObWWf4Wmx/zwRUBG+mzVNyDcZET3NkEQBEEQKmt08fB9Mbpe8eP7H2fxuGyY5xYWJw29LeFYYSXy5tVMgIztwXacZ3qI9GwmobWwcqmtsEDqoI7+Vhzj3ioXuRyzoJXND+r4Xgrg+04M+5qV3KWYIZtEH4xzalBl024v6hWk2vQFOwp+wn/fjeR2odRdJD93CfZyc2hXcinBqX4D+avOKSYpAExLcGh99B6LEHcrU+xrYslyjb4fJ8ig0rb86oU8AJa1m/EO+vD3bCa1rJXVExYnjb0PygObq+hqVlv56y8/TM8vNVq+ZMO2oB7Ik9EHOHwsgXSHl9WLruotC9cxEfQIgiAIgjAl65930rUgQN++KIEXohiSjKXJyaZn3KjJ3qsc9ACyiveZLrSDfoLHBwgmCrOuSXVmlKZWXFp9zac0r+pgx6Iogf2HOPW6n9g/AkiYbldxbLBfeQtIg5P2jjy9e0OEXuyBuSZs3ruw13CK3FsRYsi4lkzTGoKMbYUdEnFO/bOBzVa5VUi2ObD/Q4KY6mDJzCdtq84cM87v7kDpDxB4JUTfSQOQMKkttD3pwXF7lQFgDeVvafHS8u+HeSfUR/QSgITcoKCtb8e9TitZZ0n49Pi9jz/++OPpdhoeHv4k0iIIgiDcZOrqxueIFX9LBEEQhJmY+LdkpkS8KwiCIAiCIAjCTU0EPYIgCIIgCIIg3NRE0CMIgiAIgiAIwk1NBD2CIAiCIAiCINzURNAjCIIgCIIgCMJNTQQ9giAIgiAIgiDc1ETQIwiCIAiCIAjCTU0EPYIgCIIgCIIg3NSqWpxUEARBEARBEAThRiVaegRBEARBEARBuKmJoEcQBEEQBEEQhJvaf6pmp+Hh4audDkEQBOEmVFdXd/l/i78lgiAIwkxM/FsyU6KlRxAEQRAEQRCEm5oIegRBEARBEARBuKmJoEcQBEEQBEEQhJuaCHoEQRAEQRAEQbipiaBHEARBEARBEISbmgj7rpmHAAAgAElEQVR6BEEQBEEQBEG4qYmgRxAEQRAEQRCEm5oIeqpk5PMYI9c6FYIgCIIgCIIg1EoEPdXQ/Tz66KNsfiVZ/TGDftra2vAPXr1kCYIwExki29po2xYhc62T8knJRuhqa6PryKfmjgVBEARhkv90Ta6ajdD1hJ/iEEIymVH+eCWu+1rRGq5Jysqrb8AiSUhm07VOycyMGGQSYYKvn0D/VYbcJQAJuUFBu9uFe52G+QYKf/WX2ug+puDd7sPZUPx76f5jz5XjHgf2hTMsw+E0seMhom8kSGbzGACSjHmBgu1LLlavVm+oPJxV2QhdTwzh7vOiXuu0XE25JNGfhjj6dpL02DMw14RVbWH1+lYct8tVnCRDZFsH/jMqbTs6cMzmPykjOv5HgjQ+Pfm9EARBEAThWgU9Y5rctK+xAnkyySRnz+mcejtIz8kItkd8bFpmvqbJu6zRRedu17VOxczkkwS3dxN630Cqs6DanZglAIOMfor4Kz3EQiqev9mEq6pK2/XOjOObXmyjlcmL5xKc/XWaU6eD9J4MsqfJg+87Lqw13GrurT66fhwlY0jIC1Ra1pgpZGEGPa4T3mfQuFTlRo2Jr5TxXpIk8651Mq6qTP8utv9DnIwhYVJtOJpH7/e3aU6dDtN3OsKhFRvxtdkwTRX8DsU5egZA53B/Gsc6y+wlcihJwoDG2TujIAiCINw0rm3QM19Bax79NtxsB6DtQoze7/cSezFIvHkjtrnXMH03upEMkR3dhN4HdUMnm9ZakSdVyNpgKMqu7X0Enu5B2ubDOf9aJXa2mFjYpI23FDZrAHhH8qQO76Jrf4CuHRJdf+OsqmUmP+jnyR9Fyd1mZ+OWjdiLv6B/E4xLBtKn+DlN6nHAca2TcdXkB/10/ThOvsHBxu+1lTwD3pE8+ivd9Ly2iyelDp5+UKVSTJ18I0S6zoV7eZTgG3HS6yzMVtiT0ROfnu56giAIglCjaxv0lHObndavBIkdiKP/CmwqjHUJOax10X1vPfprvfhDCdKXQHmgG9+aCS1C2QTBfQEig2nyBoXWjdUevOsndOEa9PPwsxGsxceOGdHxP9JN5M42djzuwDTaHY9y+0+6XqElwLnhIdy3THGP+RTR/QGCMZ3cJZDqzCjLvbR5SruZZU4H8R+Mor+fm9SdZuU9Lpx3TN20kIv5CbxrYFrno2OdtfxOjQ42/d85fFuDBIJxWh6xjVfYBv20PZth49+1o/06RO++MPq5PAYSJtXJQw95yndDHMmROLiHwFGd9LBRSHNzK21eJ9a6ybvqL7XRnd/E7odV0kf30ncoTipngCRjaXLiedCNdtuUt1mdOTLWdR10Gj58B/zsPqqVL/uJLukEX4iQkzQ2PrkRe4XsluZKpT9W8xyOGfTT9uyHbHphI+pQhL3/K0T8/RwGE54nbfLFZ5xvNZRNYf8MiYN+gsf1wvmRMM1XuGtDG21/oNPzvJ/EkAFE6G6LXD7M+Xgf3qYp8nYkg370KOGfDVx+tiu+B9kIXU8cRtvWTevcBIE9fqLJTCFfTSot93nwrLCWBhojeVL9AQKvDKDnCveq2t14NtTQCW8kSejF0Wdga1v5Z2COjLqhg40fbGbXMT8RZxetC8rsdylO5FgeeY2N1j+F8OthTrzbiueO0l0zR7ro2EdJF87RrYUucnjp3urEPKwT+OEuIu/mAfA/0YZ/dM+Sfx+B/FCM0N6fENFH832qPBQEQRCEm8T1F/QAkmwCMlA0W1rm4ll0fzfd/fPQ7E5UCRoX1V/enh/0s+XZCPkGDeeGVtQGyOgDHH6th44TTjq2eVFlQLXjrIsQjiXIrHFSUvXV40QNUO13MWVYcT5C11Y/yTlW7OvbaFlQz8VzAxz90RPozVr5Y/M6/q3dRPJWHPdtxNYgc/G9CIde68H3tov2bR7U0VaDzLEufC+lqNdceB9TqAcunosTH4iS+I0LZ5nK0rgc7/QnMFBxr1Wm2hEWuHAvC7LrZJSE14Z9UuU3R7rfz0+CSdRWD5vG7jEUpmdLHFd7Fx51QqV/JEPkBz7879ejrfPiWVRPPhsn/IqfztNx2rZ14CiuxA3pBH/USySt4rz3IdwNkDkdJnA8RE8qT8f/9F7OkytlWevGfmgXsX+KkV7TOuVX9nw8TGQYLBs8FQOessdV+xxOMoR+cBe9R4dQv9zKQ+vNkI0TfiVKqOdJ8h3b8apFwVWt+VZr2Yw9qxckrMscuP9EQf53ncTpd4B6qLPi3LAJ5UgPwUEV92MuxkJr0x9Ok0nvHWXX/iiWL7rwrrdST55MPEzg9R58uU3smBh8A5AhHQ3QcTyKqdmF5ztW6oeTRA6Gib7YRdrowrdq4pucR/dvoftYHrPmxLtcxUwGvf8QXVt1bH8AfDRNGgHOxIleAPmrrdM8AzK21lbMJ4OEf5akdUPpO2f88ynihpnWLynQCI66MJE34rjvsFEmbK6e1IB2z0YaT/vpO86k7p2SpX7SrsYv/GzZn8S83M1DXzUjD6cYiIQq5KEgCIIg3Dyuy6DHyOcAGemzRRve3ENPnYOO58pUGvNx9u6MkFvsoXuLa/xLcbMd591hurYE6Nmn8vy3bUhzFGzLZcKvx0hknUVfUg3i/VEMNBzNU9VyMkR2+0mi4P3vE7qFNWs4vhyj97u9JRM1gEF8Xw8Rw0H7c21o8vgxS+70s+XZMP6jK+laZwEyxN9IYjS14Wt3jAdQzRqOP2+bJgeBS0n0QeAOG3dNW2GXUP6LAicT6L8CuzZxW4rQKxLebZ2T73GpQtdWP+F9EVZuc10OHtKHd+B/14rnGR+uy13lNOzaQrq2+vEfiNPy7aJK3tkIkbleurY5J5VbS1Mvm38UIRx3oy6fpW/QczWWfBFiJxPoF1qxTNGKlNQTgJWVtho6INXyHE46MEXkiIR3W9eELoYa9uUavZt3EQnHcav2yYFAjflWW9nkib/UQ+SCCefjT+NtGjuPHed9Y8da0ZpBSgCDFpRmrfqJDBZ7eP4Fz+T5I5s16o3NFYJviL0+gPPx7RPSoqEttxP6vo9g8CjJVR7GQg1jMMiuYzlMqzronNDdTFvmxH7AR+erwOLpk5nW4+SRcDZP8+EAYIGCJkFkMEkGpehjSo6BYzGMBR5sCwAUVt5jIbz/FIkHbVfWjXeuGbXZTEO28KJP6t5ZJJVIlclDG5YyeSgIgiAIN5Prb76poTB9hzKwoJWVxZUSQ8L51+W+kkOmP0zMkHF5XKXdhxpduFdJGP1R4sOFn5Q/cyCT5Ohb6cn7Xkpw6i0DljmwlevuMyabIHYGpBXu0nEwdXacq8okcjhOtN/A/JW14wHPKLlpNc75kI4V9cv/nVHVB+kSv71IFuAPLVO3Vo0yzS98o0+fLx0VIK/ylN7jfCeeVTKcO0r83NiPSU78NA3LXGX2d+D6Ihj9CfSS9Y5knH9ROsZG1pZgAxLJVBV3UC2JRosZSJP9YKr9MmSGABSsNYxzqvU5nKhsPsuFII1EktJcqCXfaiyb7ADhkwbS8m/gabpKnZ5K/vWR0Ww2QCf56zL7N7lpLU7LHAu2PzPDcJJUdvznZDxKHoXWe0rH11hXr606OMtdzABWGqtqAGmgcSFwNku2eNPQAIcHQXW1XP5AYGleiYUYkbdyVaZmFtSQh4IgCIJwM7m2LT2/DOPfF7/8fz88d4q4nsOYq+L9b67Srkd1DmwVunQNpZKAHWVh+e2KaoNjsfGWjMUrcc0PE/xZYtJg4kIXFAn7Um3KLieFGavArpb/LmpVNHg9NvnHX+kkAJUsidPFtYvRIGW0wmTGjGazEDjgx/dUlof+r1bsC65Nj3vFWr6lQ2laAq9HSabysECG80n0YTB/9kP004mS/dPDAGkyHwCTvkRr5cttrnxV5gQb6z5p/G72z13zcziBppQbdyUhVyz2GvKt1rJJny08381TvwezTZLnAUZJ11YA851K2QC+UJ4TpUkOGjBfQy3X4mFSUOeDfuXJrVr69AnSkh330glpbWxhbVOAvvAA6RVl/r27CqrPQ0EQBEG4uVzboGcoQWRo7P8UBkjb7nsI91e10WmVi3y+oUKrxdhX+XnIFbqJFCpTYy0ZZsCC7W4Lwf0nSAy5sDQCGCTejmNINpb8ydRVvYu5QtAyTy6/39j1JqXyfKFVST/QU1WFy/I1H53yHp7fH6Z3a5g9jRqu9R5cSy1Fs7BdXWZThVr3PBkZyOc/BGTIZAutEcf76DleyxUql9vVkPsgDZgx1U+7a41m8hyOq/QsVVZDvtVYNmPPau1pql5mMMKJE3Fi72X5KDe2flRlpqrTkiN3HlgsVwjYJORba0rqlRkZbWW7rQH9Ff+kd9/4aKy11IWl3OQHs6z6PBQEQRCEm8u1DXpWddD34LVbztDSvBLL/gAnTqdxNVoKXdv6DaRVjqs6Vfa0M1tdJmNds4nu1TlSb0UIHgwTesFHKGBj499swj5Vt6vPmbEAyX9Lk0Odtotb7nyhK5Rlfg0DmT8yCjPKFSk3Y9T1I0/2XB5QpllXp576BuBMktR5UG/4qbwLrouyGckQec6HfxAszS7uvd+F+XONWD83Dwb38ugLsenP8Qlp+AMrkGIoQ1HrZDlZhs4CCxsm7Wr8PEJkGBhOEDlS7rg84WiS1vvFaBpBEARBuFquy4kMamfG3Aic+ZD8JaBMwGLkPwSKKvWNNlYvDuAf7eJmTpwihoyrZfpArN7UACQx/qPCDv9RGg6MHZPJ5aGWyWHnmLAuc9O+zE3mtJ/nfxSh94dhFm6bokvMHAVVg2gizjs55zQrvxsk/yUJaKh/VLq1YnqNQtDTMNZkUm/CDKQ/yFHcinHdyJ0imgAWayyeaswWEgsVBU4mSfxrDtf8arr/zPA5/CTUWDZjz+qH+cI01bMpc3Q3/kGwP7KDjcuKnqvf/8wsXMGEaT5glAvJC4wqb8u8WEUmxcDpJN4KXVkvO1dYHFRumjiJgUHirRjGfDddz5SbLdAg/uNH2XUsQtytVP2xpdr0C4IgCIJQcP1NZDBDiqoBcfTSKdOAsQUUiyv1ZpbcrcK5EySGDBKn44VxQ1XM6iRZLJiBU4PlL5h+v7QDm7RIQQH0hE5++kuUZW724lkBnMsy9fBnGXWZhoTO4ePpKffkXJjgSZCWl5+8Qa8wkUBy8BRgwfqHo7WvxsLsVfmETrrMmIxrL49+MIiOhH1ty7RVf/NSJ5oEeiBIosoCm9lz+AmosWzGntV4pRu5Atl0ErCxpLk0kC733tTOjGURcDaBXu4luXSW1NkqT7XIhuM2yB+LEJ/yGcgTD4XIYKF15YTgKDdA5CRY7rZV+EAhYVvuQDJinEqMB2mfuQUutzAVGz6DXm36BUEQBEEAbqKgR7Y5sEsGkQNhMsWVuqEwwWNG2Uq96Qt2VNLEfxFFf8tAXmlDqSZXFthYvQDyxwJEzhdtyyc4/E9laisNLbiWSRgn9xKsVIuekPbyH6rz5P43UCdN+6HXZPfiuUMifaCbXW9WCHyGouz62yBpScHz9fLrhRhvBkvv8XyEwLE8LF6NrXH0tzkqq++1wLkQfUcqXO9aBUNGhtiLnfQcyyHZHuIvl1bR0may492gIA1H2fVMoHwFushMn8OrrtayaViCU5MwjgUJD5Xf/bJbJCBNptpJyG6RgDOki+fyuBAlcKhcLb9WEtpSOxI6wYOlHxgyx8NU3YFujkLrt5yYjBi9zwTQy8y6x0gefX83vScNTGu8OBvHN6X7D6NjYWXzFNMUqHacdRA7PnD5Q4ZpoYKMwcDp0qAzGfoJpVNRjAVKabIXqr05QRAEQfj0uEm6twFzbXzjMSdndgbwfU/n/2/v/oObOu98j7+bruqM4o6cHYtdRAYnFyW7Z7w58UbQyi4oAdGgdPFl1sPi7aBk69wpdBp2gzutu4NzU7qDs63J1rAl3ZqdxN1ETCqmowwxbZQUQREpqDeol6r1nLYRbU0X0SJvgmcdzSVnCvcP/5ZlbAMGYj6vmUyMzq/vOToana+e5/k+wVW1o5NCHsqQvz1Iy/oSD/WuxQTMLjq7Y+RsJwHfdPvVewhtaCC1LUbkqa2cWhsanGj09DEOdqdx1AWoOpQs2saJ79Fmgic7SHRsJmPWsmyJj6ryc/T2WFhvprFXtw2NubCIbujAqqnF7/NRVQ6cz2MdfY1ExoF3/Yqp59O4xU1wcwv929vpfq6VDVEvPn/VSGWvd3uPkX6rgF1m0LhlU4mZ3wFc+O6H6FOtZFatInjX8OSkKXrxEt4wfnJXz+rNhH/ZSuSlVjYc8xP62H14KyGftcicOI51zyZ2z+o4rhypfRHOjJnjaaQqIA7cSzfR2uSbVhlvAPfKZlrebqf91TjtmxO4DB+LFwxfQZt89idYH6yn7cmh63C59+E1MLP3xoV/fSPJX0SIfulx0vcH8f+lF0dfBqvnOP33t9IyNDbIWxPAeSBB5Gtd2J/w4SaPfUdwaD6aiQx/ENeBOLF/acduCOEtZ2iC3l7MtfVUvdR9xefq8P0tGz9qsetQB1v/K8Tq5V4qhj8/vzUJ+rIkzk1vX87qMK2fPsf2b8Vp//sEnppajMqhd9DOY6Uy5M4P3VufNMa8tznSP8hBdRO18yfZOcAtXnzLnMRffY1jZwKE5gOLVtBwd4LI6+20/K44/sUEfYkJ8bvu9eMlQvzf2nE0hPCWn6NQthh/qRr/IiIiN5m5k/Qw+HDS/rRJbE+UxN5O4jY4yj0YDzfzhTXmxHlTBrfCt9QPmRSFeQ0T5wa6lIX1bH26iujzEZJ7O0naDpwLDIKf3U7Dn2XpnJD0AE6D8FfbMPdFiB0+RiwzuI6j3I23up6QOVxSzIN/fS257/+E7hPJwYIBDidur0n9Ew3U10xzTIjTS8P/fpZlmTix149gHUkMVckarJZXu76e1SuMSa4NQD8Vy3awvS7G83uj7HqlgO1w4qmup3l9w8RJEG9xE/zcDrxHo0T3HSe+JzUYe5mLKiNAY+1sF+YtkH0jMWZiWAeueR6Mh+oJBQMY82aabjjxrtvKsw9miMfiHOlJk7CGmuAcTtwLvARXGIwtBHd59+E1MNP3Zl6Qlme8JL8TZX86TuRHgwNJXHcahO4aPWNHdZjWz9h0RY4R+WYSR7mb0D8E8U0Wx6JGnm5x0rknTvy5DmwcuIxaGrZsJLAwS9dLV+NkXfg2PM1W74t07Y/TtdOGMheGv4HWjQEcBzLTTnoA3HWbaK/OkvxeNwd/fJzkiQI2g59bj1HPxrWhiSXl3zpC/CwY9fdNmWR7PxbC/WpstKgKboKbW3HsjRJLddOVYVz8zjeyJP5P0U4qgzS3FOh8sZvu5zqgzIUvfB/+6Z+miIjInPWBixcvXpxqpYGBUn06ZM7ridD0TGIG1eZERMYrLx/ty6nvEpkb8iS2tRA5eem19N0pcvWM/S65XHOqpUdERETk2nDiXVpL1a2ll3qv+lxwInIllPSIiIiIzJgH/5rwJONhReRGM2eqt4mIiIiIiJSilh4RERGR2dKXoO0LETzNXTT9RYHegy+ye1+a3IANd4fZsSU4WuzkQp7Mvgixwxa9/TY4nHiqgzSWKhw0pPCbJNG9+zmezVOwweEyqF3bSGNdFU79tC0yQkmPTK46TFdX+HpHISIi8r6XO9uLFemg/VABZ2UFbifg9YwmPAWLyJc6SPSB26wlOM8Bdp7M0W46tqQIPrGVcPX4KpH5Q+20vmBhl1XhfyDIbcC72STJ57ZyLBWm7XPB61cxVOQGo6RHREREZJblvtdBR8FD+OmWcZMYD+on1dlBos9JsPlpwuaY5OYTCdqejJD4ZgzfM2GMsqHXT0Zpe8GCuxtp+8cQnpHkpoHAC1toPxRh90FzaO4/EVH+LyIiIjLLCu/YBP6+uUTCA5w5RnfGxvHRR2gwi+b8mhekabUbBhIkM0PzxGGTPpigHw/1fzc24QFwYjQ+gh/Ifj9FblbORuT9Ry09IiIiIjOWI7UvwpmSJau9rFjvZ9yUz/NCrKguPUF2vidNDvD7TJwllnsWmUCC9C+zsMSAC1msN22Y58e3oMQGZQvxLoLUyQzWO/V4bp/hqYnMQUp6RERERGasQPaNBNlJlvqKk557qsb/e4y+3OBe+s9YZE6UWOEdGxfQ/4ehf7+do9cG6CN7IkPfhA1s+j809OcfJiwUuSkp6RERERGZMS/h7a3Tn6fHUbqVZyzr5Q6smYRwNknXzuRMthC5aSnpEREREbnu3DRsa6e+VHe1yXx0E7s/42PqdEpEVMhARERE5Dqq/NMqIE8uZ0+5LgB/7B7sKvfrHPlZjEtkLlHSIyIiInIdue8dHP+TfiNN/3Q2uMXArHPA2QRHTs5ycCJzhJIeERERketpfi31pgM78zy7XumlUGqd/jz954f/4cC3IoiLfuLPdpJ+p8T6F2zyfdNKoURuChrTIyIiInJdufBvbCb7pQ4SL29l8/c9GD4DtwOw82RPWPT2Vw0WThienHRRI62P9tL6Qopdn0vjMnwsXnAbAO+ezpDJ5iksbaHrUdd1OyuRG4mSHhEREZHrzWkQ/uoOlh2NEt13HOtwggyAw4l7gUFodYjFfzx+E/fyFnbfmyG2J0bSSpEYKv3mcLnx3t9A4ONV1/osRG5YH7h48eLFqVYaGBi4FrGIiMgcU15ePvK3vktERORyjP0uuVwa0yNzS0+EpqYmIj03aQw3wvmLiIiI3GCU9MjM9SVoa4rMbAI1mZT1wgbaDqjoqIiIiMhsUdIjM2b/Okv2egcxZ+TI9kxzXgYRERERuSxKemTGslb6eocwd/RZZM5e7yBERERE5jZVb5NRfcMVYHqH5gJw4LrToPZj9YRWenGdTtLxbITMGRtI0N6UGNk0+PkuwtWDfxdOp0h0JznSkyU/YA/tx0f93z1C8E7nmAPmSWxr4TWzjfbVDjLRLiJHh7Ypc2H4G2hcF6Bq7CbjYo2S6MlRsB04FxgE1z1GwwcnOzeLxPfjHPmRRW//YEzOSi+B9U001rjHr9sToemZd9n0zY343k7R1fUix94qYBOkpSuMcbkxjFPA2tvBrgPZwfkY9rTQtGdo0aIw7U8GGYlq3HHAUe7BWNFIeI2Je7o/WxQsIk+2kyBIy7Ywxphr2p+J8fzeBNbpAvak7xVYLzTRXtjE7g0GuYMv0rU/PXgtHU481UEaH23AvL3ouAO9JL8TZX969F5wVnoxHwzSsNKHuwwRERGRWaekRwb1JWjbEqHXZRIKN+MtBwZ6SadTJH+aI7TSC+VVBNdtwnugg1iPQcMTIYaLYbruGN5RgczeTrrzJsE1j2FUOmEgSzzWTeTLpyhsa6N+wfhD539/hOgXEyRv9xFq3ERV+Tmyh/YTP9xFW86mbcuYBADgbIK2JyNkb6nCv6aJ2gUVnDt9jIPf+AJWjUmpGQmyB3cRPerBFwrTsKACzudJfy9KfGcr5z67g41LijOrPvK/SNC2K0ruTh+BlbdBmUHlFcQwnoPKe+vZ+CdpIt9KwgNNhGsqBheVzadi+Gr2RNjyTIJCpUlwXT1GJeStY7z2agctRyYmMCVdIuHJH2ijdU8vFWaI8FovFefzpONRIl9Ok/5UGy0PFCWEZyxi3+gkkTMIrn6MhkrIn4gTPdxNR2+Bln8OYwwnMuctIk+1kyhUEVj7GOFKJ5zPk/2/aZI/yNL/sI+ivYuIiIjMCiU9AkD+x0fI2gZNTzYTGHliNzGX1tM0/E9XFWYNODJAjwdvjTna6jHCif+JLvzjWiBMzLsctD4ZI/7DLPXrvOM3ORrn2PIWtj9qMPw8btYE8L/SSuvLMQ6eDNK4aCRSErsjZPES/qdWgvOGXq4xCTyQovNznSXHG3nXPsvudeNfM++t4L3Nu0i9keGRJX7G5w69xHb1UrWujWdXFj+aX14M4zlwGyZud34wQbrDwCxucSqkeXFngv5FjbRvCY226tT4CT4Yp21LlI49Bs9+2odjssNcyJPY0UFiwEu4OEE6E2fHnixVn2yn9aHRY5tLTBZ+pZXInhhp/0Z8Y1tjTiVIlIVp2xYcF09tdSebv5Egnm7AqBs6yC9SJN5xEtqylca7R3dhfjRIw5TXR0REROTq0ZgeGcPGvhpj6kvdVQt8+OdBIdtL/4SFBg1rDIobLDw+P24KZH89prJZX4bUSXAsbRhNNoaV+wkun6TZo1RMTpPF9wNWlt4JC23se8JsmpDwXEEMM5Q/GidlOwk1hiZ2Y5sfomG5A/tokvSkU58UsCJtRN5yEnyieUKs2SPd5PATKm7NucVN4OM+sFNkflG8TyfBvwlOiMdpLsYHZLIlruR7KtQgIiIi15eSHgHAXe3DQ5bIk1uJ/ihH4cLVPoID54eBC/Be8aJ5Bt5S/cHKnBO6iQ1XjvMZ3hIbQJXXnFlMTmCSZ3KzbnHJbmpXN4bJnenNAibehaWXew0fkMH6Venl+QMddByCYPPThKuLE7E82Z4CzPsQ71oZMifG/2edGUxNc2eLS2lPEk+Zk9smBGjidxRI7Gxl16sW+at+T4mIiIhMj7q3yaAF9bR+ycnzz0aJf7OVeJcHc1U9jR/345npJLgDOVKHX+PYcYszA+9yrq8wmlcsKrH+h52Td88qcq6/D4DbnKW3cDgnPHoPupDHOniE5I9TnPyv9zh3tn+yXGeE21W6xeayY5iRPPkzALfhnGSw//BxBhOTsa01Dt49EaHtQBbb4WW+p2QlCPpOASTp2pmcQVyTxzOB08fGrzZT8a+7iO9tJ/2yE29dAw2rgxiVU28uIiIicrUo6ZERzjuDbNoepP9UisTL3cRf6aT1lW/j+3Qrm+qmN+S80BNh684E58q81K5pIFhZSaXXQwV5Etu3EpvlcyjpbIL2pyJYeDBXrSb8kBvXHVW4b4XMS4/TefR6BDWbbFIHkhgPBXEfShDdncD8x4ld0oCJla3qtAgAABgySURBVOKutttNGr+0m4azFsnvxYgdjdB+OErVwy20rPNO6NIoIiIiMhuU9MgEroV+Gp7w09CXIfL1XST+fQfxu9oIzZ9iwwsWsZ0J8vPq2fpPDVSNe8iefmvOpVS4KoEs9h8mWeEPxe03g0UHrAt+Nn5tI/6iVivnZXTwnHkMl8ONez5w8l0K54ESrSt24V0APPMmpizeT7bR8pCbvLuX1j1Rdh80aR03PsmFax7w+z76YdarqDnmGQQ/1UpwbS+Jb3UQebWdFxc9y0bf1bgrRERERC5NY3pkcpUm4XUBIEff29NY/+0cvTa4P+IvSniA86foPXXlITk8HtzA8Z7S9dFyv7GKXunjzEng/sX4JnTTy9H7y2sRw+XxGiaQxpqkFNzgJLEmxv+YuKxqwWAa4165gca7IbtnB92nx67hwVvtgIEM1umJ28+a8iqCf1uPF5u+d85dwwOLiIjIzUxJjwyapGxbYeAc4MRx65gXP+gAcuSLy7ANTcqZz50pGi9TILsvRupqxLnAx4oFUDgUJXG2ONgMr32/eOA94AB+naN4Sf8bUbqL9zFbMUxm6JrlJlxMcPoC+B02iZfjE4sAnIkTO2TjqAuUSObGchN8/DFMR47Yv0TJjtmPEazHQ47u/4iTK1Vk4EoLD0xWCnCgn37AeVXGPomIiIhMTd3bBADrpQ10/Nyk9mM+fAsqgMLgJJiHMjjuDrPirtF1vTUBnAcSRL7Whf0JH27y2HcE8S1YTNCMkv1RJ22ORkI+N86hyS6PORporIsS/f2VRuohtKGB1LYYkae2cmptCF+lc3Bi0O40jroAVYfGDsw38K90kXg1Rnu7TcNDXioYmvz0tyYNf1VF9LuzHcMl3G7iXwSR13fRfmsDobsqOFdwsLjOwFnm45EngpzcGaX1ixbBVbWjk5MeypC/PUjL+kvM0TPM5Wfjp3/C5m/E2RUxeXp4PqQF9Wx+1KL1hSitn03hX7mM+7xu6Mti9aQ53mOwaXe4xFxM05M/3E7rPvA94Oc+rxsnDF2jFPnbgzTVaESPiIiIXBtKegQAT22Y2t+9xk+6u0ieB3DgrPRirmmm4WFz3CB4R3WY1s/YdEWOEflmEke5m9A/BPHhwv/EVnghwrdTETrfAEe5B2PFJravMXnvQOoqJD3Awnq2Pl1F9PkIyb2dJG0HzgUGwc9up+HPsnQWJRzetU/TclsnkXicrp02lLkw/A20bgxQle26jKRn5jFMzk1wcwuF5yJ0v9JFBw5cS8LcVzeYajirw7Q/bRLbEyWxt5O4PXRNH27mC2vM0sUJSnAueYRNSzN0HOok5hstYe1e3sKOu5JE9+7n+OsRUt8FcOC60yCwzo9nxhdmVIUZItTTTepwlNR3B1t9HK4qjAea2FofoEo5j4iIiFwjH7h48eLFqVYaGJh09kMREZFJlZeP9r/Ud4mIiFyOsd8ll0tjekREREREZE5T0iMiIiIiInOakh4REREREZnTlPSIiIiIiMicpqRHRERERETmNCU9IiIiIiIypynpERERERGROU1Jj4iIiIiIzGnTmpxURERERETk/UotPSIiIiIiMqcp6RERERERkTntj6az0sDAwGzHISIic1B5efnI3/ouERGRyzH2u+RyqaVHRERERETmNCU9IiIiIiIypynpERERERGROU1Jj4iIiIiIzGlKekREREREZE5T0iMiIiIiInOakh4REREREZnTlPSIiIiIiMicpqTnarILFOzrHYTIDUqfDxEREblOlPRcNRaRxx/n8c9FyV7vUPoStDU10XYgf70jkbEu533pidDU1ESkZ/bCujZuoM+HiIiI3HT+6HoHcH1YRJraSRS96ih34/H6WLGmnsCdzhnu00XlfAeOskpcVytMef+5YBH5TIz5T7cSrLzewVx71gsbiHnaaF3pLlqiz4eIiIhcPzdp0jNkXoCmT/qoAM6dznDqtzmOn4jTdSLBwf/ZQutfe3FMe2ceQl/eTWj2opX3gzNZMjbMv95xXBc5sj02eEot0+dDRERErp+bO+n58EKMGhM3QI0JQLjQS+xrW+l+pYuEv43Qzfn0Kpcpb2W4aTsV9llkzl7vIEREREQmurmTnlKcVdSv8tP9jRTpn/cTmj/UGacnQtMz77LpmxvxvZ2iq+tFjr1VwCZIS1cYgzyJbS1ECNP+ZJBxnXsuFOg9GiW67zjZvgI2DpyVHrwrwmx6eHxrUn8mxvN7E1inB9dz3emj/u8eIViqu91AL8nvRImlLPrPg8NlULu2kcY/n8H59kRoeibPxq83Y/62m8498dFjG0Eee6wRs1Q3rQv9ZPY9T/SgRW7AhjIXVTX1NIWDVJWPX9V6oYn2wiZ2f8ZH/kdddEWOkR2wYXkLXY8ak4Y2st2GhVjRLp4/PHSe5R58azbwyIoqnOTJ7IuMxOEo92CsaOSxNSauUiPW+jLE9kRJ9OQo2IysH15j4r5lsuMb5A6+SNf+NL39NjiceKqDND7agHn78HthEf3XXSTeKgAQ+UITkaFF3vXtE7p7Fc6k6H7x2ySsfmzGvHdLq5i8Y2U/yWc20/VLP5u+vhFfWYk13mhn83NZgp/fTbh60h1Bn0Xi+3GO/MgaPCccOCu9BNY30VhT3DVtKObfJInu3c/xbH7o2rnxeFcQ/kwAe18Huw5kKQDsaaFpz9BGi4Y/D0Wfj54IG55JUFXi2gBD3QTbSdzTxI7PB0a6xA3GEOOY1T/0Obp0zOMNdWud7L7ridD0TILg57vGX7u+DLE9MZJWL/3nARy47jSo/Vg9oZXe8d31Cr0k9475TJa78daFaWosur/6ErR94TXMbe3Uuyy6n4vQfSKHjZfw9puza6SIiMhsUtJTgsN52+Aff3ivaEkf+V8kaNsVJXenj8DK26DM4JLPJxfyJL7SSuQtcJu1hFYZVJ7PYvUc5wzOcQlP/kAbrXt6qTBDhNd6qTifJx2PEvlymvSn2mh5YMyDXcEi8lQ7iQE35vIwtYYb+iyO7Wtjy898eIDpF8rqJ3c0wrdjWYz6RjYtqODc6WMc7I7TsSVNqLmNRmNMpMPn9JsKzIfDNN5VQaEvTfw7EbaeSNO0rYVA8UXpy2MdaGPX3hxV9wcIfhicfz6NJ7szGaJf6SRp19LYFMLN4DVJ7tnKqf/eyDLreWIDBqHGTTSWnyP7eozuVzr4UqGF7euNcde30BNhyzMJCpUmwXX1GJWQt47x2qsdtBwJ0rItjFGccZyxiH2jk0TOILj6MRoqIX8iTvRwNx29BVr+OYxRBjgqMT+xkfknInQdhsCnwviGnoYdnopxu7R/GmHL3izuugYee8iNc6CXY4luks+1kbPbaF0+2QO8i9oH/HT1pDn+Mxufr7jzZZ7jP7CgPIR/8lwSgOzBXUSPevCFwjQsqIDzedLfixLf2cq5z+5g45LxF2Lw3sxCpUntQ6sw/rRA9mcWx38PzjIHjnvr2fgnaSLfSsIDTYRrhs65bD4VJY6P4SdYniCeypBfWfQjAYCVJmmD4b9vNOEZfv/uDND4GR/usnNkD+0nvrOV9EPNtH3SmEF31GnqS9C2JUKvyyQUbsZbDgz0kk6nSP40R2ild3TdgkXkyXYShSoCazfiq3Ry7tcJ9r/aQeuPQzRvaxy8V0bk6f9Pi8i/tJO81aR2pYGD+VR9+GqfhIiIiCjpKcEuvAuAczj5GdFLbFcvVevaeLbUr9Ml5PbvIPIWeNePHdztJ/BX4fErnomzY0+Wqk+20/rQ6L7NJSYLv9JKZE+MtH/4130b6zu7SLzjIvj5rYSrhx9QTfwr/MSe2ko34GW6eun+joPwtq0E5w29VGMSWOKl7ckI8T0Jlm0LjQzVyL22g8hbVTR+tZXQ8PqY+M2FtD0ZIfJymtpP+8Y/gJ6KsetUFY3bnh09xnScSnJsaTM7/pc50gJiLqnC+UQb8Vc6id0dpm1bcORXdLPmPiqf2UzXgSSZtcZoa0ghzYs7E/QvaqR9S2j0V/caP8EH47RtidKxx+DZCXEnSJSNPwY1fmqrO9n8jQTxdANGnRPK3Bg1bir7Bh/RF1abpVvIgN5ML8HPbx/3vpl1PjxPtRKLHSS7vHHS985hLsbvSJFKpnnE5x/fKtSXIXUSnA/58E5Rl9G79ll2rxv/mnlvBe9t3kXqjQyPLBmz79Pd7NiThbvDtP3j6HXwL61n5C42TNzu/GCCcoeBOVXLyy1efHVO4q+nyPQFi1o2bNJHk9iYBGqGUp7zg++fXXwv1CzGeGEL7a9HSDx49buj5n98hKxt0PRkM4GRJh0Tc2k9TePWtEnv6SBhB2j+WhPmcIA1JovvibDlmTiRg8toe3j8gKfkcx04l7aw41HjEi18IiIicqVUsrrYQIboSylw+An4ih9DbOx7wmyaZsLDBYuD+3OwoIGmKbbJHukmh5/QA0Xr3eIm8HEf2Ckyvxjeb5b0GwVYVM+q6qIYb6kiGJriZ/4SnMsbJyYj84I0LnfC6YOkT49EypHv5eCjoRLrBwjdD/bRDNaFomW2jffRTTNLeAYjI/CgOf6B8BYv5hIAB4E1waJuaS6MGi/Qx7n/Hn01fzROynYSagxN6MbG/BANyx3YR5OkByYeP/g3xccAp7kYH5DJ9s70hKC6gfoJ75sH30fcMJClt+8S25b5CC53QibJ8f7xi3JvHiSLm1BgGuluqU++02Tx/YCVZexZWYlucnhoaJp4Ha6E9yMBnGQ5+GZu/ILzGY6/acNHA/iGukoW0klStptQqOhewIkRDOImR+qnszWaysaeqtl0IE3yqI3746tGE57hCKtXEJwHudTE8V52WZBNYSU8IiIis+3mbun5fYr9e86M/LJv91kc78lRwE3wiUdKjpkw6xZPv+RuXy9ZG9wfMUsXtBqRJ9tTgHkf4l0rQ6Z48ZnBp9vc2TzgHqkQ5jaNid2CANddBm6s6UYJgLeqdITe6sXwepJsbwEWOOFsFmsA3Le+i3ViQqTkBgBy5N+G8f3+xvxqPyMm3jsmvlrpGXywn/8n09vLmd4s4Me7sPRyr+GDQymsX4HfLDp+qW3KnBS3A06X+x5vyXvI4Zze9fF+JIDz9Tipn/YTWDq8TY7MD3OwoBHfgssMDAdOJ0X9IvP0nrRhnh/zahf1WLSM0Lw4sR9myD3sGfmM2D87Ttp24F9ijnw2s1YGMCCfIVOcOfQPZom9v+uDkp+Iy+eu9uEhRuTJrfQ1baB+iQdnqcTvVxaDEfaROVGctZ6jD+BUH8UROpdN3SonIiIiV+7mTnoGsiQPDE+VOFRcYHkT9Z8I4J3k+dPtmsFvsvk+egGvc6qRBn30nQJI0rUzOfV+z/WTv9R+y5wzngtl0vO6zYkTKBTeBZwj58ThLjoOz+gIuMqnXqtEADhLJJ8zkyd/5tL7Gh7HNZJYXtXjj+ea8n6YwqJl1C+IE40fI7d0qNvhmQxHToNn3VQJ9pALeayDR0j+OMXJ/3qPc2f7JxkDNnRvLnJe/fEyePA96CG29wiZMyE88wFsMj9OYzt8LP6L4SMOv38WsZ0zS+av2IJ6Wr/k5Plno8S/2Uq8y4O5qp7Gj/vxjLmf82cHW6uslztm9HOD5481a5GIiMi1cHMnPYtKVFq7nm60eADes0s+DJeqSCbXigffg16ie0aThdyJI+QwaKqbRspzNkH7UxEsPJirVhN+yI3rjirct0LmpcfpPDr7ZzDMU7MMz94oR07kCM33DHZtO2rjWB4o0dI6XCnx2nLeGWTT9iD9p1IkXu4m/konra98G9+nW9lUN/4zMKHym4iIiNwQ1LFiNlW4cAP9hakGBLhwzQN+30f/FGuO3a9dPG5m2IXSicql5PsLpRfYg/uqdFWMO3bu7WlFeoNw454P8C6F86XXGC5e4Zn3/kjk3EuWYZAbGg+TI/2DHFT7uW/KhoM8id0RrAt+Nj7TRvNfBzBrDKoqnTjLnSW6bg3dm/9dmPE9NS3zfaxYBLkfZsgBduY4KZwEa8emNhVUVA7G3j9hzNVV9IdLn6FroZ+GJ9rYvb2Z4MIC6X/fQfzMUISuwb6ck36ORERE5LpS0jOb5nsxHZDPWFNMWOnBW+2AgQzW6UuuOKjSwyKgN2OVTJLs3l5mOrzemmRAfrbnOOCh6o6hrkZD51TIWOQmS7puQF7DBNJY2dLLs1YaMDH+x7WM6gq4agnWOcj/ME3udJojZ6c73qyPMyeB+xePFAkYlaP3l8WvDd2bZzNYlyqwcNncLH7QgNNHyJyxyZxIQ3kA36Kx6zhY6PUCFj+xrjCpcAD/mSv5ucn+/Pj09lFpEl4XAHL0vT2027u8eAErY6G0R0RE5MajpGc23WLgX+mCkzH2n7j0o5ARrMdDju7/iJdOJsa+VmayuM4BPTG6e4r2eyFP4rXUjEO134iROFv04tkE0UMFWLQC3/Ag9lsMVqz2wOluug7kinczMdYbhNMXwO+wSbwcJ18c35k4sUM2jrpAiURgZj70QYAcfe9c2X6m5sC834fjbIaDiQx5SlUbnHRT+HVuQiLe/0aU7uJ7ADA+FsRFlti+DIVLvbcfHPxfLj+zVkDXvX4McqR/msR60y45uN9dF8LvsEm9FCNTqrXnAtO476rwGsBbaX5SHOI7SboPlPiMTlK2rTBwDnDiuHXohcpaQh91YP/oRWKZST7rN+DnQkRE5GZxc4/puQa8qzcSfLODxM7NZGtq8ft8uP9fFqsnzfHKMM+uH+rGs6CezY9atL4QpfWzKfwrl3Gf1w19Q+v2GGzaPTyewYFv3Ub81i4SO7eSf3g1wbsqKPRZHHstQe+9QXwnE9PrKgeAC9/9EH2qlcyqVQTvGp6cNEUvXsIbxo8z8qzeTPiXrUReamXDMT+hj92HtxLyWYvMieNY92xid6kZ76+nMh+PPBHk5M4orV+0CK6qHZ2c9FCG/O1BWtb7rniwvuteP14ixP+tHUdDCG/5OQpli/FPmPX0yjn+MkiwvI34IXDUhTCnVXBhMBFPvBqjvd2m4SEvFQxN8vlbk4a/qiL63aJNFtWzcWWajgMdbD5pUvsxH75Km6yVIZ12E/760H15u4l/EURe30X7rQ2E7qrgXMHB4ropSjK7FhMwu+jsjpGznQR8JUpuO4ffvwQdn8tg1i3DV1NFxUAvmZ9ZHD9hU7+ttWi+nwk7wRcK4sok6PriVk6uDQ1OIHr6GAe70ziWBqg6NL6QiPXSBjp+PnTOCyqAwsg947g7zIq7xuz70WaCJztIdGwmY9aybImPqvJz9PZYWG+msVe3aRyciIjIdaKkZ7Y5DcJfbcPcFyF2+BixE0kGK8V5Wbx0/BOae3kLO+5KEt27n+OvR0h9F8CB606DwDr/+KpcLh8b/2kr3kgX3a910XEeHC6D2rWtbFzqINGTmFj6elL9VCzbwfa6GM/vjbLrlQK2w4mnup7m9Q0TJ9m8xU3wczvwHo0S3Xec+J7U4HiPMhdVRoDG2mnVD7vmnNVh2p82ie2JktjbSdwGR7kH4+FmvrDGvDpz0FQGaW4p0PliN93PdUCZC1/4PvxXYdcT3OJl2cfdxF8+R6Bu+gmbd+3TtNzWSSQep2unDWUuDH8DrRsDVGW7JiY9ODHWt9NWHSOyL8mx72RIAo5yN15fYExlcjfBzS0UnovQ/UoXHThwLQlzX91UCbAT31I/ZFIU5jWwbNEka428fzGSqRiZwzD8WTLrQ5gfnvrcHUaYLzc7eX5vgmN7OkniwLnAIPjZ7TT8RS9dRUmPpzZM7e9e4yfdXSTPjznemmYaHi66Z4o/65nBfTnK3Xir6wmZFVMHKCIiIrPiAxcvXrw41UoDA7M5eliuq54ITc8kVHXqfalAquNxOn8VonVno+Z7kRtSeflon1F9l4iIyOUY+11yufSYJPJ+1X+cZAacdZrgUkRERORS9Kgk8r5UwNoXw8JD/YMlxsCIiIiIyAiN6RF53yiQfTNDwfHeYOGBTD+uhzcRmj/1liIiIiI3MyU9Iu8bNrnDz9PVY0OZB//6rTyyoup6ByUiIiJyw1MhAxERmTUqZCAiIldKhQxERERERESmoKRHRERERETmNCU9IiIiIiIypynpERERERGROW1ahQxERERERETer9TSIyIiIiIic5qSHhERERERmdOU9IiIiIiIyJympEdEREREROY0JT0iIiIiIjKnKekREREREZE5TUmPiIiIiIjMaUp6RERERERkTlPSIyIiIiIic5qSHhERERERmdOU9IiIiIiIyJympEdEREREROa0/w/IPubuziUo0AAAAABJRU5ErkJggg==;" parent="1" vertex="1">
          <mxGeometry x="43.61" y="1030" width="642.19" height="275" as="geometry" />
        </mxCell>
        <mxCell id="86m-LM2zIylcsITB_GDw-1" value="" style="sketch=0;aspect=fixed;html=1;points=[];align=center;image;fontSize=12;image=img/lib/mscae/OpenShift.svg;labelBackgroundColor=none;fontColor=#10739E;" parent="1" vertex="1">
          <mxGeometry x="200" y="620" width="31" height="28.52" as="geometry" />
        </mxCell>
        <mxCell id="86m-LM2zIylcsITB_GDw-2" value="" style="shape=image;verticalLabelPosition=bottom;labelBackgroundColor=default;verticalAlign=top;aspect=fixed;imageAspect=0;image=data:image/png,iVBORw0KGgoAAAANSUhEUgAAAIQAAABgCAYAAADckdozAAANxklEQVR4nO2cfVQWVR7Hvz2zB9t4UZTVeKAtPZG6JGBqSyoqGhpJsKV4jkp75LHTHnoB3XVxM91jR2KTcBUrXK2kWrECCQs2c8lljQwz2R6wp0w7kvIWLGaJdNJzYPePafSZee6duXeeeXjR+zmHw2Fm7p1h5jv3/t7uXHf+/Pn/QSD4CVt/X4BgYCEEIVAhBCFQIQQhUCEEIVAhBCFQIQQhUCEEIVAhBCFQIQQhUCEEIVAhBCFQIQQhUCEEIVAhBCFQ8TOrO3TWu1Dx3gGcPtOM003NuHjxkscxQ4b4ITrqdqSlpiAmOtLqSxiUFJeUo/pgLdo6OtF1/rxqX1iYHWH2GzExajxmTotFeFioz67jOisKZIpLyrG7tALt33Sgp7eHq61kk5CSNBfrVmcanmP7y8WqbUOG+CEp8W5kZTi4zumsd2FjwXa0tLSqtoeF2bE663fcIq2qrsGWwiKPB7ngN/fqXltzSxvW525GnfMY1/kCA/yRMHsG0tNSLReHV4LYsHEr3q78J7cISAQG+GNr3lPUh5GQvASdZ88R91WU7OS6MfNTHWhtbSPus9tD8Y/Sncx9AcCMeQvRdaHbY3tggD8+2L+H2GbDxq146519XOchsSrrYSxddL/X/SiYtiEWOzLx1jv7LBEDAHRd6Eb6I6tQVV1D3B8ddTu17ZZtRVznoonBaB+JquoaohgAIDAoiLh9fqrDEjEAwObnXrakHwXTgjh58pSV13GZJ/68Ec0tng9l3pw4apv6hs+Y+6cJzp3iknLm/vYfoPc3d/Z0j20PPZrNLTo9rHohFUwLwuhCJJuEwAB/BAb4Y9zYCISMCIZkk5j6XZ+72WN7QnwctT1tKiGh9wAVPm34grk/PTEuSE5U/V1VXWNoL0g2CXZ7KCbFTLj8Y7eHIjDAn/mavMEyL0OySYiIGIOke+J15zRnvQvP73hV98bUOY+huaXNwy6IiBiD41+eJLapqq5BQjx9FFFgGU14RhyaGENGBHtcf97mbdR+QkYEI3tlhuH/UFVdg51/L8XJk6fQ09vD9JLxYFoQc+LjcKC6BnZ7KFY8ks70MAAgJjoSL72Qh6rqGmSvzaUeV7Sr1MPziJ0SQxXE/gNsgmAZTVhHHL3pZ8a0WNXfzS1t1H55DNmE+LjL/2dxSTlG/iKEqR0rpgWRn7PGqxMnxMfhgeREqnH1waHDANSCyMpw4JVdpcTjWd5qZ72L+fqc9S5D91Nv+rnvnjmqvw8eOkw9dvuWp5mvyx0rvQuFfo1UrludyW0XhIwI5jrenYr3Dnhso52fdKyWI5/8h7hdskkeYqo+WEvtx5eBJl76PXQdETGG63jtUOyOkQdx+KiTeH6SKEjHaqG5m7NmTjVs6w6PV+Nr+l0Qvxp7K9fx6Wmp1H1v7qnQbdv+TYfHttgpMURRko51R+8hpqWmeGybcPs46vG7S/Wvuy/pd0GMGX0T1/HhYXQX7MRX9NhIc0sb0VVekJyI2CkxHtt7enuI8RAF2hRAmi4AYObUX1P7am1tQ8E2vuior+h3QZjhzil3ELfThnAAKCMYr5JNQnhYqEe8QK+NAk18tCkwJjpS10V8ZVcpEpKXMAXOfInl2U5AttBdX57w2B459jZLsptpqSk4QLlxxSXlROv78CeeNsGoG0cCkEcdySZ5jCCHP3EiK4N8DTTxOR6kT2kpSXN1Q9adZ88he23u5ZiO48FUZnfeKiwThJLxZAnLSjYJwcFBuPmmcAwLHsZ9LuVtI00B1QdriYIghdpjJ1+ZKkhBL1p4nja8SzZJ9wGuW52JDw4dNvSIenp7cPzLk5fjNHZ7KObOno4FyYk+90i8njKKS8oxY95C5BfsYI7R9/T2oPPsOdQ5j1HfdCNoQzNtKCeJxz1WQLMjSJBGG+DKiKNH0bZN3NHF1tY2vLKrFPctciAheYlPvRKvBLHYkYn8gh26c7evSLonnriddC2kG6g1/mhGH6ktbeQgJbO0hIeFYu8bL8JuN/emd549h/yCHZgxbyFXoI0V04KYn+qghpH7Ar0onfYhkjwC7dtMM/q0bWneCgDmQp3wMDlUvSwt1XQuwqhcwCymBLFqbS7T9BAyIliVtZsUM+FyBtQKaG+Z9iGSppHxhPgHacjXtqV5HrQIqh5ZGQ4cralEXs4ajBsbYUoc2WtzLRUFt1HZ3NKmO++zlsQBsjfyZM4m0/UBsZNj8NY7nm21D5E0jZDqK0j9advS7Ae9CKoR7gmrquoavLmnAs6Gz5lrHTY8U2CZN8I9QuhVJ0k2CXvfeJFJDIA8TIeONJ+to0Ut3R8i7e0h3UBtQorUB81+0Iug8pAQH4eXXsjD0ZpKFBXmY45OHYhC14VuywxNbkHQEjoAsPLx5X2aqAkPC6UO1coNImUkaW1odoTSB81+INU+WEFMdCTyc9bgaE0l5hiMAFaFv7kFQfMoJJvkk3SsEbRaS8WOIKXF9eozSXaE0kcRJfWu159V5OeswTKdUUhb8W0Wy0LXLD44ibaOTq/OS0okAVfsCFIQaGLUeGp/JGPz3Dn5ZtMyoLRrsJqsDAd1+rDK9bdMEEGBAdxtnPUurwtOacN814Vuqp+uN5KRjM2e3h44613EDCgtmeUreMsFeLFMENpFLyw8mbNJdz9r4IV2k0j9G7m8NGv9+R2vEu0H3toHb/H/+fXE7Va58pYJQu+NJLFh41bD0eHgRx8z9UVLKJH6v+1W4zeMZHQ6Gz4nHqu3PMAX0K6DtgaEF25B6AVg/riOrTbwoUezmRaqlO19l6k/Hh88fuZdhseQjETS6GCUzHJn1dpcTJyWiPmpDtOBpPmpDmpswj1R5w3cgtALwHSePUeNsTvrXVi1NheT45KY1zLyjDqsuQEWT4j1reeZz5VgXmtrG7J/ug+LHZkoLinXLcRxv2+0EVWyScyxHyNMre2cHJfEtFDnhhvk+c7IAqalsgH2EvWCbTupFdkKemsttUycRi6acYdnXSVLf1o74IcffmSKVi5LS+Ve8EzDlA2x8vHlhsf09Pag60K3oRjyctbo9mdU26hAq3pyJyzMztQXwJab4Im7sBh9yv1SfljEYLeHWiYGwKQgli66Hw8wPAA9JJuEvJw1SIiPw9JF91MfQErSXKb+9KKWCqSaBxpGwSbe9PXWvKe4jmdh3NgI7pXqRpj2MtatztSNnOkxKWYC9r7xosogIxWOrMp6mGtu1LseySZxvUkrMtJ19z+99g/MfQFyvMSbdLc7kk3CsrRUvL5zq9d9afH6gyHKRy+MsnOSTcKsmVOxIiOdGvdXsp9BgQF4dsMTpvIDBdt24thnx1XbhgUPM/W1GiXzqCV+5l1ehemLS8pR+V715fWZrCgfCrHKgCRhyRdkFKqqa9Dx306camxSldf7+jM4g53iknKcamzC6TPNHvuGBQ/DxKjxfZYnslQQgsHPoFyXIfAdQhACFUIQAhVCEAIVQhACFT5Z2ymwmO4m4OsKoP1D4OJ3QHcLcPFb9THDJ8i/f5kERD5i+lTC7RyotNcCrueAthrg0vf87QNHA4mVgD/f5xb0BVG3Hug4AtyxDhhlXEcgsABXIeD8izkRaLk5CZi9m6uJ/pRx/GX5wt6dB9w4HZixnVtxAka6m4D3FwPfNljX58XvuJvoG5WhboUi33wIlEQChx7jPomAgX1J1orBJMY2xKHHgBOveW6/7bfAtOd9dFnXIHXrgcZywD8MGDIMGPXTSvJb7qOPyu21wFfF5OcDyKN6IlsZogKbUVm3Hmj4K3mfEEb/014rT+taTNgQbHGISeuBWUWA31DPfSdeA4qCgH33yvOgoO+hGfyjjL9XoYXP7exuAvZO1beAA0cDcX8TXonVKNPD9SHyC6qliFCGv8hlsdtJ419LgNOV+sf4DQVuSRHTibe4CoEvtgNdjVe2aW0D0pThNxRYyj9imwtdz94tTyF6XPr+ynSyJxpoLDN1qmuS9lp5Ci4KAo78SS0GAPhWs4yheb9nHwE3mzq1d5FKM77z8CggaiUweoHp016V8EQmo36vnjbenu75DGYVmbrH1oSuXYWyknm51sXBG572GwpM3eJ5v0j2Q7q5zwNYl8vwNtIWOFoOhN269Oo2SOvWA83v89+n4VHA3a97GomNZcC/NRXiXoQCrE9uNZYBH63wPhZ/NQiku0kO/3ccked9M/eENiookKYLE96Fgu+ynXrBLDP4DZVTvCPvlH8PtGlGSVGfqTT/8LWwvOna6cJEdNId36e/aaFvK1ACZcMnqMO9XtQD6NJeC3R+CvzYIb/1Sl2CFQ/fHdZEImm6MGk7KPRdPYQvhaGHe3R1yHA5V6DHpfPAhdOabRY/cBq8GeU90WqX9M5nvH4Z+r5A5tBjwNdv991NHgyYKS3obpKzz+59eDFVKPRfxRQpAnct4W0k133EDRwNLKy35LL6v4Suuwn4eLX5UrHBxvAoIPZZ7z2n4pvk+2WhGICBIAh3GsuAhs0DolDEUnwRgGuvBX5otdzbGliCcKexTP4ZjCOH4iKPWz7w3GMDBq4g3FECPM3vyx7AQBOIe4xk3PJBXXc6OARBwlUor1PoOtO3IvEbKmcSQ2IAe/ygGwGMGLyCoOEqlH8ri1oAz3SxEcqiFyXYdcOoq+7B07j6BCHwCrG2U6BCCEKgQghCoEIIQqBCCEKgQghCoEIIQqBCCEKgQghCoEIIQqBCCEKg4v+3caUhPJt7+AAAAABJRU5ErkJggg==;" parent="1" vertex="1">
          <mxGeometry x="194.5" y="660" width="42" height="30.55" as="geometry" />
        </mxCell>
      </root>
    </mxGraphModel>
  </diagram>
</mxfile>
